<?xml version="1.0" encoding="UTF-8" standalone="no"?>
<!DOCTYPE svg PUBLIC "-//W3C//DTD SVG 1.1//EN" "http://www.w3.org/Graphics/SVG/1.1/DTD/svg11.dtd">
<svg xmlns="http://www.w3.org/2000/svg" xmlns:xlink="http://www.w3.org/1999/xlink" version="1.1" width="217.243pt" height="180.469pt" viewBox="0 0 217.243 180.469">
<clipPath id="cp0">
<path transform="matrix(1,0,0,-1,10.405,174.486)" d="M 0 0 L 194.27216 0 L 194.27216 161.39636 L 0 161.39636 Z "/>
</clipPath>
<g clip-path="url(#cp0)">
<path transform="matrix(1,0,0,-1,10.405,174.486)" stroke-width="1.19553" stroke-linecap="butt" stroke-miterlimit="10" stroke-linejoin="miter" fill="none" stroke="#000080" d="M 30.08388 5.07108 C 33.81952 17.16618 33.81952 17.16618 35.61649 22.64009 C 37.41345 28.11398 40.2952 36.49324 42.09216 41.46951 C 43.88913 46.44579 46.77087 54.02704 48.56784 58.50569 C 50.3648 62.98434 53.24654 69.76756 55.0435 73.7486 C 56.84047 77.72963 59.72221 83.71481 61.51918 87.19823 C 63.31615 90.68163 66.19789 95.86882 67.99486 98.85461 C 69.79182 101.84041 72.67357 106.22957 74.47054 108.71773 C 76.2675 111.2059 79.14923 114.79704 80.9462 116.7876 C 82.74316 118.77814 85.62491 121.5713 87.42188 123.06424 C 89.21884 124.55716 92.10059 126.55229 93.89755 127.54759 C 95.69452 128.54288 98.57625 129.73999 100.37321 130.23767 C 102.17018 130.73535 105.05194 131.13449 106.8489 131.13454 C 108.64587 131.13459 111.5276 130.73566 113.32457 130.2381 C 115.12154 129.74054 118.00328 128.54364 119.80025 127.54845 C 121.59721 126.55327 124.47894 124.5583 126.27591 123.06549 C 128.07288 121.5727 130.95464 118.77974 132.7516 116.78932 C 134.54857 114.79892 137.4303 111.20795 139.22727 108.71991 C 141.02423 106.23186 143.90596 101.84286 145.70293 98.8572 C 147.4999 95.87152 150.38166 90.68452 152.17862 87.20123 C 153.97559 83.71794 156.85732 77.73294 158.65428 73.75203 C 160.45125 69.77112 163.333 62.98807 165.12996 58.50954 C 166.92693 54.031 169.80867 46.44995 171.60564 41.4738 C 173.4026 36.49765 176.28435 28.11865 178.08132 22.64488 C 179.87828 17.1711 184.55698 2.02255 183.61392 5.07617 "/>
<path transform="matrix(-.2958,.95782,.95782,.2958,40.48888,169.41492)" d="M 3.18808 0 L -1.91284 2.55046 L 0 0 L -1.91284 -2.55046 " fill="#000080"/>
<path transform="matrix(.2958,.95782,.95782,-.2958,194.01892,169.40982)" d="M 3.18808 0 L -1.91284 2.55046 L 0 0 L -1.91284 -2.55046 " fill="#000080"/>
<symbol id="font_1_4">
<path d="M .397 .344 C .40600003 .367 .42300005 .41000004 .48900003 .411 L .48900003 .44200004 C .46600003 .44000004 .43700005 .43900005 .41400004 .43900005 C .39000003 .43900005 .344 .441 .32700003 .44200004 L .32700003 .411 C .36400003 .41000004 .37500004 .38700003 .37500004 .36800004 C .37500004 .35900004 .37300004 .35500003 .36900003 .344 L .26700003 .089 L .155 .36800004 C .14900002 .381 .14900002 .38300003 .14900002 .38500003 C .14900002 .411 .18800003 .411 .206 .411 L .206 .44200004 C .176 .441 .12000001 .43900005 .097 .43900005 C .07 .43900005 .030000002 .44000004 0 .44200004 L 0 .411 C .063 .411 .067 .40500004 .080000009 .374 L .224 .019000002 C .23000002 .005000001 .23200003 0 .245 0 C .25800003 0 .26200003 .009000001 .26600004 .019000002 L .397 .344 Z "/>
</symbol>
<symbol id="font_1_1">
<path d="M .08400001 .263 C .09 .41200004 .17400001 .43700005 .20800002 .43700005 C .31100003 .43700005 .321 .30200003 .321 .263 L .08400001 .263 M .083000008 .24200002 L .36200003 .24200002 C .38400004 .24200002 .38700003 .24200002 .38700003 .263 C .38700003 .36200003 .33300004 .45900003 .20800002 .45900003 C .09200001 .45900003 0 .35600005 0 .23100002 C 0 .097 .105000007 0 .22000002 0 C .342 0 .38700003 .111 .38700003 .13000001 C .38700003 .14000002 .379 .14200002 .374 .14200002 C .365 .14200002 .36300005 .136 .36100004 .128 C .326 .025000003 .236 .025000003 .22600001 .025000003 C .17600002 .025000003 .136 .055000005 .113000009 .092 C .083000008 .14000002 .083000008 .20600002 .083000008 .24200002 Z "/>
</symbol>
<symbol id="font_1_2">
<path d="M .13900002 .33200003 L .13900002 .44200004 L 0 .43100003 L 0 .4 C .07000001 .4 .07800001 .393 .07800001 .344 L .07800001 .076000008 C .07800001 .031000002 .067 .031000002 0 .031000002 L 0 0 C .039 .001 .08600001 .003 .11400001 .003 C .15400002 .003 .20100002 .003 .24100003 0 L .24100003 .031000002 L .22000002 .031000002 C .14600002 .031000002 .14400001 .042000005 .14400001 .078 L .14400001 .23200001 C .14400001 .33100004 .18600002 .42000003 .26200003 .42000003 C .26900003 .42000003 .27100004 .42000003 .27300004 .41900004 C .27 .418 .25000004 .40600003 .25000004 .38000003 C .25000004 .35200004 .27100004 .337 .293 .337 C .31100003 .337 .33600004 .349 .33600004 .381 C .33600004 .41300003 .305 .44200004 .26200003 .44200004 C .18900001 .44200004 .15300001 .37500004 .13900002 .33200003 Z "/>
</symbol>
<symbol id="font_1_3">
<path d="M .15400002 .411 L .29700003 .411 L .29700003 .44200004 L .15400002 .44200004 L .15400002 .626 L .12900001 .626 C .12799999 .544 .098000008 .43700005 0 .43300004 L 0 .411 L .085 .411 L .085 .135 C .085 .012000001 .178 0 .21400002 0 C .28500004 0 .31300003 .071 .31300003 .135 L .31300003 .19200002 L .28800003 .19200002 L .28800003 .13700001 C .28800003 .063 .25800003 .025000003 .22100002 .025000003 C .15400002 .025000003 .15400002 .116000007 .15400002 .13300002 L .15400002 .411 Z "/>
</symbol>
<symbol id="font_1_5">
<path d="M .275 .23500002 C .305 .273 .34300003 .32200004 .367 .34800003 C .39800004 .384 .43900005 .39900003 .48600004 .4 L .48600004 .43100003 C .46000005 .42900003 .43000005 .42800004 .404 .42800004 C .374 .42800004 .321 .43 .30800004 .43100003 L .30800004 .4 C .32900004 .39800004 .337 .38500003 .337 .36900003 C .337 .35300002 .32700003 .34 .32200004 .33400003 L .26000003 .256 L .18200001 .35700003 C .17300001 .367 .17300001 .36900003 .17300001 .37500004 C .17300001 .39000003 .18800001 .39900003 .20800002 .4 L .20800002 .43100003 C .18200001 .43 .116000007 .42800004 .1 .42800004 C .079 .42800004 .032000007 .42900003 .005000001 .43100003 L .005000001 .4 C .075 .4 .076000008 .39900003 .123 .33900003 L .22200002 .21000001 L .128 .091000009 C .080000009 .033 .021 .031000002 0 .031000002 L 0 0 C .026000003 .002 .057000005 .003 .083000008 .003 C .112 .003 .15400002 .001 .17800002 0 L .17800002 .031000002 C .15600002 .034 .14900002 .047000003 .14900002 .062000004 C .14900002 .08400001 .17800002 .117000009 .23900002 .18900001 L .31500004 .089 C .323 .078 .33600004 .062000004 .33600004 .056 C .33600004 .047000003 .32700003 .032 .3 .031000002 L .3 0 C .33 .001 .38600005 .003 .40800003 .003 C .43500004 .003 .47400005 .002 .504 0 L .504 .031000002 C .45000003 .031000002 .43200005 .033 .40900005 .062000004 L .275 .23500002 Z "/>
</symbol>
<use xlink:href="#font_1_4" transform="matrix(9.9626,0,0,-9.9626,113.72029,32.404588)" fill="#000080"/>
<use xlink:href="#font_1_1" transform="matrix(9.9626,0,0,-9.9626,118.79125,32.404588)" fill="#000080"/>
<use xlink:href="#font_1_2" transform="matrix(9.9626,0,0,-9.9626,123.214649,32.295)" fill="#000080"/>
<use xlink:href="#font_1_3" transform="matrix(9.9626,0,0,-9.9626,127.03033,32.404588)" fill="#000080"/>
<use xlink:href="#font_1_1" transform="matrix(9.9626,0,0,-9.9626,130.99544,32.404588)" fill="#000080"/>
<use xlink:href="#font_1_5" transform="matrix(9.9626,0,0,-9.9626,135.25945,32.295)" fill="#000080"/>
</g>
<path transform="matrix(1,0,0,-1,10.405,174.486)" stroke-width=".19925" stroke-linecap="butt" stroke-miterlimit="10" stroke-linejoin="miter" fill="none" stroke="#929292" d="M 0 78.5723 L 0 82.82404 M 19.42722 78.5723 L 19.42722 82.82404 M 38.85443 78.5723 L 38.85443 82.82404 M 58.28165 78.5723 L 58.28165 82.82404 M 77.70886 78.5723 L 77.70886 82.82404 M 116.5633 78.5723 L 116.5633 82.82404 M 135.99051 78.5723 L 135.99051 82.82404 M 155.41773 78.5723 L 155.41773 82.82404 M 174.84494 78.5723 L 174.84494 82.82404 M 194.27216 78.5723 L 194.27216 82.82404 "/>
<path transform="matrix(1,0,0,-1,10.405,174.486)" stroke-width=".19925" stroke-linecap="butt" stroke-miterlimit="10" stroke-linejoin="miter" fill="none" stroke="#929292" d="M 95.01024 0 L 99.26189 0 M 95.01024 16.13963 L 99.26189 16.13963 M 95.01024 32.27927 L 99.26189 32.27927 M 95.01024 48.4189 L 99.26189 48.4189 M 95.01024 64.55853 L 99.26189 64.55853 M 95.01024 96.83781 L 99.26189 96.83781 M 95.01024 112.97745 L 99.26189 112.97745 M 95.01024 129.11708 L 99.26189 129.11708 M 95.01024 145.25672 L 99.26189 145.25672 M 95.01024 161.39636 L 99.26189 161.39636 "/>
<path transform="matrix(1,0,0,-1,10.405,174.486)" stroke-width=".3985" stroke-linecap="butt" stroke-miterlimit="10" stroke-linejoin="miter" fill="none" stroke="#000000" d="M 0 80.69818 L 192.27964 80.69818 "/>
<path transform="matrix(1,0,0,-1,202.68463,93.78781)" d="M 1.99252 0 L -1.19551 1.59401 L 0 0 L -1.19551 -1.59401 "/>
<path transform="matrix(1,0,0,-1,10.405,174.486)" stroke-width=".3985" stroke-linecap="butt" stroke-miterlimit="10" stroke-linejoin="miter" fill="none" stroke="#000000" d="M 97.13608 0 L 97.13608 159.40384 "/>
<path transform="matrix(0,-1,-1,-0,107.54108,15.082153)" d="M 1.99252 0 L -1.19551 1.59401 L 0 0 L -1.19551 -1.59401 "/>
<symbol id="font_2_1">
<path d="M .63600006 0 C .65200009 0 .67600008 0 .67600008 .023999989 C .67600008 .048999996 .65300008 .048999996 .63600006 .048999996 L .04 .048999996 C .023999997 .048999996 0 .048999996 0 .025000006 C 0 0 .02300001 0 .04 0 L .63600006 0 Z "/>
</symbol>
<use xlink:href="#font_2_1" transform="matrix(6.9738,0,0,-6.9738,4.07317,102.35291)"/>
<symbol id="font_3_2">
<path d="M .22600001 .63600006 C .22600001 .66300007 .224 .66400006 .19600001 .66400006 C .132 .601 .041 .6 0 .6 L 0 .564 C .023999997 .564 .09000001 .564 .14500001 .592 L .14500001 .082 C .14500001 .049000004 .14500001 .036000004 .04500001 .036000004 L .0069999995 .036000004 L .0069999995 0 C .024999999 .001 .148 .004 .185 .004 C .21600002 .004 .34200005 .001 .36400003 0 L .36400003 .036000004 L .32600004 .036000004 C .22600001 .036000004 .22600001 .049000004 .22600001 .082 L .22600001 .63600006 Z "/>
</symbol>
<symbol id="font_3_1">
<path d="M .46400006 .33900003 C .46400006 .44900004 .45100004 .528 .40500004 .598 C .374 .644 .31200005 .684 .23200001 .684 C 0 .684 0 .41100005 0 .33900003 C 0 .26700003 0 0 .23200001 0 C .46400006 0 .46400006 .26700003 .46400006 .33900003 M .23200001 .028 C .186 .028 .125 .055 .105000007 .13700001 C .091000009 .19600001 .091000009 .27800004 .091000009 .35200004 C .091000009 .42500005 .091000009 .50100007 .106000009 .556 C .127 .635 .19100002 .656 .23200001 .656 C .286 .656 .338 .623 .356 .565 C .37200005 .51100006 .37300004 .43900005 .37300004 .35200004 C .37300004 .27800004 .37300004 .20400001 .36 .141 C .34000004 .050000006 .272 .028 .23200001 .028 Z "/>
</symbol>
<use xlink:href="#font_3_2" transform="matrix(6.9738,0,0,-6.9738,10.307144,103.92899)"/>
<use xlink:href="#font_3_1" transform="matrix(6.9738,0,0,-6.9738,13.884704,104.06847)"/>
<use xlink:href="#font_2_1" transform="matrix(6.9738,0,0,-6.9738,25.48617,102.35291)"/>
<symbol id="font_3_6">
<path d="M .30100004 .38100005 C .37900005 .41900004 .42900003 .46600003 .42900003 .535 C .42900003 .632 .32800005 .684 .23100002 .684 C .12100001 .684 .031 .612 .031 .517 C .031 .47000004 .053000008 .43600003 .070999998 .41600005 C .089 .39500005 .096 .39100004 .155 .35600005 C .09900001 .33200003 0 .27800004 0 .17300001 C 0 .062000008 .11500001 0 .22900002 0 C .35600005 0 .46 .08100001 .46 .18900001 C .46 .25500003 .42100004 .31100003 .36300005 .34500004 C .35000003 .35300002 .31500004 .37300004 .30100004 .38100005 M .138 .47600005 C .112 .49100004 .08400001 .518 .08400001 .555 C .08400001 .61800006 .157 .65500006 .22900002 .65500006 C .30700005 .65500006 .37600003 .606 .37600003 .535 C .37600003 .44600005 .272 .40100003 .27 .40100003 C .26800005 .40100003 .26600004 .40200005 .25900004 .40600003 L .138 .47600005 M .187 .337 L .32400004 .25800003 C .35000003 .243 .40000005 .213 .40000005 .154 C .40000005 .079 .31700004 .032 .23100002 .032 C .139 .032 .060000007 .091000009 .060000007 .17300001 C .060000007 .24700001 .11500001 .30400003 .187 .337 Z "/>
</symbol>
<use xlink:href="#font_3_6" transform="matrix(6.9738,0,0,-6.9738,31.336585,104.06847)"/>
<use xlink:href="#font_2_1" transform="matrix(6.9738,0,0,-6.9738,44.91317,102.35291)"/>
<symbol id="font_3_5">
<path d="M .096 .34700004 C .096 .42900003 .103 .503 .141 .564 C .17500001 .61800006 .22900002 .65500006 .293 .65500006 C .323 .65500006 .36300005 .647 .38300003 .62 C .35800005 .61800006 .33700005 .601 .33700005 .572 C .33700005 .547 .35400004 .525 .38400004 .525 C .41400004 .525 .43200005 .545 .43200005 .574 C .43200005 .632 .39000006 .684 .29100005 .684 C .147 .684 0 .552 0 .337 C 0 .078 .12200001 0 .23200001 0 C .35400004 0 .46 .09300001 .46 .224 C .46 .35100005 .35900004 .44500003 .242 .44500003 C .162 .44500003 .118 .39200003 .096 .34700004 M .23200001 .032 C .18200001 .032 .143 .061000006 .12200001 .105000007 C .10700001 .135 .09900001 .185 .09900001 .245 C .09900001 .34200005 .157 .41700004 .237 .41700004 C .28300003 .41700004 .31400005 .39900003 .33900003 .36200003 C .36300005 .32400004 .36400003 .28200004 .36400003 .224 C .36400003 .167 .36400003 .125 .33700005 .086 C .31300003 .051000004 .28100003 .032 .23200001 .032 Z "/>
</symbol>
<use xlink:href="#font_3_5" transform="matrix(6.9738,0,0,-6.9738,50.763589,104.06847)"/>
<use xlink:href="#font_2_1" transform="matrix(6.9738,0,0,-6.9738,64.34017,102.35291)"/>
<symbol id="font_3_4">
<path d="M .49000005 .164 L .49000005 .2 L .379 .2 L .379 .646 C .379 .66700008 .379 .674 .35700003 .674 C .345 .674 .34100003 .674 .331 .66 L 0 .2 L 0 .164 L .294 .164 L .294 .082 C .294 .048 .294 .036000004 .213 .036000004 L .186 .036000004 L .186 0 C .236 .002 .3 .004 .33600004 .004 C .37300004 .004 .437 .002 .48700003 0 L .48700003 .036000004 L .46 .036000004 C .379 .036000004 .379 .048 .379 .082 L .379 .164 L .49000005 .164 M .301 .56600007 L .301 .2 L .037000006 .2 L .301 .56600007 Z "/>
</symbol>
<use xlink:href="#font_3_4" transform="matrix(6.9738,0,0,-6.9738,70.085979,103.92899)"/>
<use xlink:href="#font_2_1" transform="matrix(6.9738,0,0,-6.9738,83.76717,102.35291)"/>
<symbol id="font_3_3">
<path d="M .442 .18200001 L .40800003 .18200001 C .40500004 .16000001 .39500005 .101 .38200004 .091000009 C .374 .085 .29700003 .085 .28300003 .085 L .099 .085 C .20400003 .178 .23900002 .20600002 .29900003 .25300003 C .37300004 .312 .442 .374 .442 .469 C .442 .59000006 .33600004 .66400006 .20800004 .66400006 C .084 .66400006 0 .577 0 .485 C 0 .43400003 .043000007 .42900003 .053000004 .42900003 C .077 .42900003 .10600001 .446 .10600001 .48200003 C .10600001 .5 .099 .535 .047000007 .535 C .078 .606 .146 .628 .19300002 .628 C .293 .628 .34500004 .55 .34500004 .469 C .34500004 .38200004 .28300003 .31300003 .25100003 .277 L .010000005 .039 C 0 .030000002 0 .028 0 0 L .41200004 0 L .442 .18200001 Z "/>
</symbol>
<use xlink:href="#font_3_3" transform="matrix(6.9738,0,0,-6.9738,89.68034,103.92899)"/>
<use xlink:href="#font_3_3" transform="matrix(6.9738,0,0,-6.9738,125.42034,103.92899)"/>
<use xlink:href="#font_3_4" transform="matrix(6.9738,0,0,-6.9738,144.67998,103.92899)"/>
<use xlink:href="#font_3_5" transform="matrix(6.9738,0,0,-6.9738,164.21158,104.06847)"/>
<use xlink:href="#font_3_6" transform="matrix(6.9738,0,0,-6.9738,183.63858,104.06847)"/>
<use xlink:href="#font_3_2" transform="matrix(6.9738,0,0,-6.9738,201.46315,103.92899)"/>
<use xlink:href="#font_3_1" transform="matrix(6.9738,0,0,-6.9738,205.04071,104.06847)"/>
<use xlink:href="#font_2_1" transform="matrix(6.9738,0,0,-6.9738,88.47817,174.74192)"/>
<use xlink:href="#font_3_2" transform="matrix(6.9738,0,0,-6.9738,94.71214,176.318)"/>
<use xlink:href="#font_3_1" transform="matrix(6.9738,0,0,-6.9738,98.2897,176.45748)"/>
<use xlink:href="#font_2_1" transform="matrix(6.9738,0,0,-6.9738,92.44917,158.6029)"/>
<use xlink:href="#font_3_6" transform="matrix(6.9738,0,0,-6.9738,98.29958,160.31847)"/>
<use xlink:href="#font_2_1" transform="matrix(6.9738,0,0,-6.9738,92.44917,142.46292)"/>
<use xlink:href="#font_3_5" transform="matrix(6.9738,0,0,-6.9738,98.29958,144.17848)"/>
<use xlink:href="#font_2_1" transform="matrix(6.9738,0,0,-6.9738,92.44917,126.32391)"/>
<use xlink:href="#font_3_4" transform="matrix(6.9738,0,0,-6.9738,98.19498,127.899997)"/>
<use xlink:href="#font_2_1" transform="matrix(6.9738,0,0,-6.9738,92.44917,110.18491)"/>
<use xlink:href="#font_3_3" transform="matrix(6.9738,0,0,-6.9738,98.36234,111.760997)"/>
<use xlink:href="#font_3_3" transform="matrix(6.9738,0,0,-6.9738,98.36234,79.896999)"/>
<use xlink:href="#font_3_4" transform="matrix(6.9738,0,0,-6.9738,98.19498,63.756998)"/>
<use xlink:href="#font_3_5" transform="matrix(6.9738,0,0,-6.9738,98.29958,47.757474)"/>
<use xlink:href="#font_3_6" transform="matrix(6.9738,0,0,-6.9738,98.29958,31.618466)"/>
<use xlink:href="#font_3_2" transform="matrix(6.9738,0,0,-6.9738,94.71214,15.338989)"/>
<use xlink:href="#font_3_1" transform="matrix(6.9738,0,0,-6.9738,98.2897,15.478465)"/>
<path transform="matrix(1,0,0,-1,10.405,174.486)" d="M 108.84224 131.13454 C 108.84224 132.23502 107.95015 133.12709 106.84969 133.12709 C 105.7492 133.12709 104.85713 132.23502 104.85713 131.13454 C 104.85713 130.03408 105.7492 129.14199 106.84969 129.14199 C 107.95015 129.14199 108.84224 130.03408 108.84224 131.13454 Z M 106.84969 131.13454 " fill="#000080"/>
<path transform="matrix(1,0,0,-1,10.405,174.486)" stroke-width=".3985" stroke-linecap="butt" stroke-miterlimit="10" stroke-linejoin="miter" fill="none" stroke="#000080" d="M 108.84224 131.13454 C 108.84224 132.23502 107.95015 133.12709 106.84969 133.12709 C 105.7492 133.12709 104.85713 132.23502 104.85713 131.13454 C 104.85713 130.03408 105.7492 129.14199 106.84969 129.14199 C 107.95015 129.14199 108.84224 130.03408 108.84224 131.13454 Z M 106.84969 131.13454 "/>
<symbol id="font_4_1">
<path d="M .305 .31300003 C .311 .33900003 .334 .43100003 .404 .43100003 C .409 .43100003 .433 .43100003 .454 .418 C .426 .41300003 .40600003 .388 .40600003 .36400003 C .40600003 .34800003 .417 .32900004 .444 .32900004 C .46600003 .32900004 .498 .34700004 .498 .38700003 C .498 .43900005 .439 .45300005 .405 .45300005 C .347 .45300005 .312 .40000005 .3 .37700004 C .275 .44300003 .221 .45300005 .19200002 .45300005 C .08800001 .45300005 .031000002 .32400004 .031000002 .29900003 C .031000002 .28900004 .041 .28900004 .043000007 .28900004 C .051000008 .28900004 .054000006 .291 .056 .3 C .09 .40600003 .156 .43100003 .19000001 .43100003 C .209 .43100003 .244 .42200003 .244 .36400003 C .244 .33300004 .22700002 .26600004 .19000001 .126 C .17400001 .064 .13900002 .022000002 .095000009 .022000002 C .08900001 .022000002 .06600001 .022000002 .045 .035 C .07000001 .040000004 .09200001 .061 .09200001 .089 C .09200001 .116000007 .07000001 .124000009 .055000009 .124000009 C .025 .124000009 0 .098000008 0 .06600001 C 0 .020000002 .050000006 0 .094000007 0 C .16000001 0 .19600001 .07000001 .19900002 .076000008 C .21100001 .039 .24700003 0 .307 0 C .41 0 .467 .12900001 .467 .15400002 C .467 .16400002 .458 .16400002 .455 .16400002 C .446 .16400002 .444 .16000001 .442 .15300001 C .409 .046 .341 .022000002 .30900003 .022000002 C .27 .022000002 .254 .054 .254 .08800001 C .254 .11000001 .26 .13200002 .271 .17600002 L .305 .31300003 Z "/>
</symbol>
<use xlink:href="#font_4_1" transform="matrix(9.9626,0,0,-9.9626,208.51792,96.02958)"/>
<symbol id="font_4_2">
<path d="M .45700003 .586 C .461 .6 .461 .602 .461 .609 C .461 .62700006 .447 .63600006 .432 .63600006 C .42200003 .63600006 .40600003 .63 .397 .615 C .395 .61 .387 .579 .38300003 .561 C .37600003 .535 .36900003 .508 .363 .48100005 L .318 .301 C .314 .286 .271 .21600002 .20500002 .21600002 C .15400002 .21600002 .143 .26000003 .143 .29700003 C .143 .34300003 .16000001 .40500004 .194 .49300004 C .21000001 .53400006 .21400002 .545 .21400002 .56500008 C .21400002 .61 .18200001 .6470001 .13200002 .6470001 C .037 .6470001 0 .50200006 0 .49300004 C 0 .48300005 .01 .48300005 .012 .48300005 C .022000002 .48300005 .023 .485 .028000003 .50100007 C .055000009 .595 .095000009 .625 .12900001 .625 C .13700001 .625 .15400002 .625 .15400002 .59300008 C .15400002 .568 .14400001 .54200008 .13700001 .523 C .097 .41700004 .079 .36 .079 .31300003 C .079 .224 .142 .194 .201 .194 C .24000003 .194 .274 .21100001 .30200003 .23900002 C .289 .187 .277 .13800001 .237 .08500001 C .21100001 .051 .17300001 .022 .127 .022 C .113000009 .022 .068 .025000006 .051000008 .06400001 C .067 .06400001 .080000009 .06400001 .094000007 .076000008 C .104 .08500001 .11400001 .098000008 .11400001 .117000009 C .11400001 .148 .087000008 .15200001 .07700001 .15200001 C .054000006 .15200001 .021 .136 .021 .087000008 C .021 .037 .065000008 0 .127 0 C .23 0 .333 .091000009 .361 .20400001 L .45700003 .586 Z "/>
</symbol>
<use xlink:href="#font_4_2" transform="matrix(9.9626,0,0,-9.9626,105.22691,9.652319)"/>
</svg>