<svg viewBox="0 0 511 511">
    <path d="M495.5 392H487V87.5c0-8.5-7-15.5-15.5-15.5h-432C31 72 24 79 24 87.5V392h-8.5C7 392 0 399 0 407.5v16c0 8.5 7 15.5 15.5 15.5h480c8.5 0 15.5-7 15.5-15.5v-16C511 399 504 392 495.5 392zM39 87.5c0-0.3 0.2-0.5 0.5-0.5h432c0.3 0 0.5 0.2 0.5 0.5V392H143v-16.5c0-4.1-3.4-7.5-7.5-7.5h-64c-4.1 0-7.5 3.4-7.5 7.5V392H39V87.5zM79 392v-9h49v9H79zM496 423.5c0 0.3-0.2 0.5-0.5 0.5h-480c-0.3 0-0.5-0.2-0.5-0.5v-16c0-0.3 0.2-0.5 0.5-0.5h480c0.3 0 0.5 0.2 0.5 0.5V423.5z"/>
    <path d="M87.5 303h64c4.1 0 7.5-3.4 7.5-7.5s-3.4-7.5-7.5-7.5H95v-0.5c0-9.1 7.4-16.5 16.5-16.5h8c21.8 0 39.5-17.7 39.5-39.5S141.3 192 119.5 192 80 209.7 80 231.5c0 4.1 3.4 7.5 7.5 7.5s7.5-3.4 7.5-7.5c0-13.5 11-24.5 24.5-24.5s24.5 11 24.5 24.5S133 256 119.5 256h-8C94.1 256 80 270.1 80 287.5v8C80 299.6 83.4 303 87.5 303z"/>
    <path d="M231.5 303h64c4.1 0 7.5-3.4 7.5-7.5s-3.4-7.5-7.5-7.5H239v-0.5c0-9.1 7.4-16.5 16.5-16.5h8c21.8 0 39.5-17.7 39.5-39.5S285.3 192 263.5 192 224 209.7 224 231.5c0 4.1 3.4 7.5 7.5 7.5s7.5-3.4 7.5-7.5c0-13.5 11-24.5 24.5-24.5s24.5 11 24.5 24.5S277 256 263.5 256h-8c-17.4 0-31.5 14.1-31.5 31.5v8C224 299.6 227.4 303 231.5 303z"/>
    <path d="M175.5 255h8.5v8.5c0 4.1 3.4 7.5 7.5 7.5s7.5-3.4 7.5-7.5V255h8.5c4.1 0 7.5-3.4 7.5-7.5s-3.4-7.5-7.5-7.5H199v-8.5c0-4.1-3.4-7.5-7.5-7.5s-7.5 3.4-7.5 7.5v8.5h-8.5c-4.1 0-7.5 3.4-7.5 7.5S171.4 255 175.5 255z"/>
    <path d="M319.5 271h32c4.1 0 7.5-3.4 7.5-7.5s-3.4-7.5-7.5-7.5h-32c-4.1 0-7.5 3.4-7.5 7.5S315.4 271 319.5 271z"/>
    <path d="M319.5 247h32c4.1 0 7.5-3.4 7.5-7.5s-3.4-7.5-7.5-7.5h-32c-4.1 0-7.5 3.4-7.5 7.5S315.4 247 319.5 247z"/>
    <path d="M375.5 271H416v24.5c0 4.1 3.4 7.5 7.5 7.5s7.5-3.4 7.5-7.5V271h8.5c4.1 0 7.5-3.4 7.5-7.5s-3.4-7.5-7.5-7.5H431v-32.5c0-4.1-3.4-7.5-7.5-7.5s-7.5 3.4-7.5 7.5V256h-30.9l13.7-54.7c1-4-1.4-8.1-5.5-9.1 -4-1-8.1 1.4-9.1 5.5l-16 64c-0.6 2.2-0.1 4.6 1.4 6.4C371 269.9 373.2 271 375.5 271z"/>
</svg>
