<svg xmlns="http://www.w3.org/2000/svg" viewBox="0 0 511.8 511.8">
  <title>Kursevi programiranja i prekvalifikacija</title>
  <path d="M307.1 179c0 4.7 3.8 8.5 8.5 8.5h85.3c4.7 0 8.5-3.8 8.5-8.5s-3.8-8.5-8.5-8.5h-85.3C310.9 170.5 307.1 174.3 307.1 179z"/><path d="M358.3 230.2c0 4.7 3.8 8.5 8.5 8.5h51.2c4.7 0 8.5-3.8 8.5-8.5s-3.8-8.5-8.5-8.5h-51.2C362.1 221.7 358.3 225.5 358.3 230.2z"/><path d="M349.8 136.3c4.7 0 8.5-3.8 8.5-8.5 0-4.7-3.8-8.5-8.5-8.5h-17.1c-4.7 0-8.5 3.8-8.5 8.5 0 4.7 3.8 8.5 8.5 8.5H349.8z"/><path d="M247.4 221.7c-4.7 0-8.5 3.8-8.5 8.5s3.8 8.5 8.5 8.5h85.3c4.7 0 8.5-3.8 8.5-8.5s-3.8-8.5-8.5-8.5H247.4z"/><path
  d="M290 460.6H127.9c-14.1 0-25.6-11.5-25.6-25.6V42.5c0-4.7-3.8-8.5-8.5-8.5 -23.5 0-42.7 19.1-42.7 42.7 0 4.7 3.8 8.5 8.5 8.5s8.5-3.8 8.5-8.5c0-11.1 7.1-20.6 17.1-24.1v382.5c0 23.5 19.1 42.7 42.7 42.7h162.1c4.7 0 8.5-3.8 8.5-8.5S294.8 460.6 290 460.6z"/><path d="M162 187.5h119.5c4.7 0 8.5-3.8 8.5-8.5s-3.8-8.5-8.5-8.5H162c-4.7 0-8.5 3.8-8.5 8.5S157.3 187.5 162 187.5z"/><path d="M162 136.3h34.1c4.7 0 8.5-3.8 8.5-8.5 0-4.7-3.8-8.5-8.5-8.5h-34.1c-4.7 0-8.5 3.8-8.5 8.5C153.5 132.5 157.3 136.3 162 136.3z"/><path d="M298.6 119.3h-68.3c-4.7 0-8.5 3.8-8.5 8.5 0 4.7 3.8 8.5 8.5 8.5h68.3c4.7 0 8.5-3.8 8.5-8.5C307.1 123.1 303.3 119.3 298.6 119.3z"/><path
  d="M418 0H93.8c-42.2 0-76.6 34.3-76.8 76.5v0.1 0.1V76.8v0.1c0.1 27.2 14.8 52.6 38.4 66.2 4.1 2.4 9.3 1 11.7-3.1 2.4-4.1 1-9.3-3.1-11.7C45.5 117.7 34.1 97.9 34 76.7c0.1-32.9 26.8-59.6 59.7-59.6h324.3c32.9 0 59.7 26.8 59.7 59.7v358.4c0 4.3-1.2 8.7-3.5 12.5 -2.4 4.1-1 9.3 3 11.7 1.4 0.8 2.9 1.2 4.3 1.2 2.9 0 5.8-1.5 7.4-4.2 3.8-6.5 5.8-13.8 5.8-21.2V76.8C494.8 34.4 460.4 0 418 0z"/><path d="M443.6 392.3c0-28.2-23-51.2-51.2-51.2 -28.2 0-51.2 23-51.2 51.2 0 28.2 23 51.2 51.2 51.2C420.7 443.5 443.6 420.6 443.6 392.3zM392.4 426.5c-18.8 0-34.1-15.3-34.1-34.1s15.3-34.1 34.1-34.1c18.8 0 34.1 15.3 34.1 34.1S411.3 426.5 392.4 426.5z"/><path
  d="M377 452.1c-4.1-2.4-9.3-1-11.7 3.1l-18.4 31.8 -2.9-4.4c-1.5-2.2-3.9-3.7-6.6-3.8l-5.3-0.3 18.7-32.3c2.4-4.1 1-9.3-3.1-11.7 -4.1-2.4-9.3-1-11.7 3.1l-25.6 44.3c-1.5 2.6-1.5 5.7-0.1 8.3s4 4.3 7 4.5l14.8 0.9 8.2 12.4c1.6 2.4 4.3 3.8 7.1 3.8h0.3c2.9-0.1 5.6-1.7 7.1-4.3l25.3-43.8C382.5 459.7 381.1 454.4 377 452.1z"/><path
  d="M449 438c-2.4-4.1-7.6-5.5-11.7-3.1 -4.1 2.4-5.5 7.6-3.1 11.7l18.5 31.9 -5.3 0.3c-2.7 0.2-5.1 1.6-6.6 3.8l-2.9 4.4 -18.3-31.7c-2.4-4.1-7.6-5.5-11.7-3.1 -4.1 2.4-5.5 7.6-3.1 11.7l25.2 43.6c1.5 2.6 4.2 4.2 7.1 4.3h0.3c2.9 0 5.5-1.4 7.1-3.8l8.2-12.4 14.8-0.9c3-0.2 5.6-1.9 7-4.5s1.3-5.8-0.1-8.3L449 438z"/><path d="M162 238.7h51.2c4.7 0 8.5-3.8 8.5-8.5s-3.8-8.5-8.5-8.5h-51.2c-4.7 0-8.5 3.8-8.5 8.5S157.3 238.7 162 238.7z"/><path d="M162 289.9h102.4c4.7 0 8.5-3.8 8.5-8.5s-3.8-8.5-8.5-8.5h-102.4c-4.7 0-8.5 3.8-8.5 8.5S157.3 289.9 162 289.9z"/><path
  d="M162.9 396.2c2.1 4.2 7.2 5.9 11.4 3.8 4.2-2.1 5.9-7.2 3.8-11.5 -8.4-16.9-10.3-32.1-5.1-40.6 2.8-4.5 7.7-6.8 14.5-6.8 4.1 0 5.6 1.4 6.5 2.8 6.4 9.2 0.3 37.1-6 54 -1.4 3.8 0 8 3.4 10.2 3.4 2.2 7.8 1.7 10.7-1.1 3.6-3.6 7.6-7.3 11-10.2v4.2c0 3.4 2.1 6.6 5.3 7.9 3.2 1.3 6.9 0.6 9.3-1.8 3.9-3.9 8.4-7.7 12.2-10.5 -0.1 0.2-0.2 0.4-0.3 0.6 -1.3 2.6-1.2 5.8 0.4 8.3 1.6 2.5 4.3 4 7.3 4h34.1c4.7 0 8.5-3.8 8.5-8.5s-3.8-8.5-8.5-8.5h-22.2c0.7-4.1 0.5-8.2-1.5-11.5 -2.2-3.5-6-5.5-10.4-5.5 -5.3 0-11.5 3.2-17.1 7.2 -0.4-3.7-2.6-6.8-6-8.2 -2.3-0.9-5.2-2.2-12.3 2.1 2.8-14.7 3.6-31.6-3.7-42.2 -3.2-4.6-9.4-10.1-20.6-10.1 -12.8 0-23.1 5.3-29 14.9C150.1 352.8 151.7 373.6 162.9 396.2z"/><path d="M392.4 281.4c0-4.7-3.8-8.5-8.5-8.5h-85.3c-4.7 0-8.5 3.8-8.5 8.5s3.8 8.5 8.5 8.5h85.3C388.6 289.9 392.4 286.1 392.4 281.4z"/>
</svg>
