<svg xmlns="http://www.w3.org/2000/svg" viewBox="0 0 512 512">
  <title>Individualna obuka</title>
  <path d="M498.8 74.8h-62.1L365.9 4.1c-5.4-5.4-14.2-5.4-19.6 0l-70.8 70.8h-62.1c-7.1 0-12.9 5.8-12.9 12.9v96.6l14.3-8.9c10.3-6.4 22.7-7.2 33.4-2.8l48-37.8c7.2-5.7 17.7-4.5 23.4 2.8 5.7 7.2 4.5 17.7-2.8 23.4l-46.8 36.9c3.8 15.1-2.4 31.6-16.3 40.3l-27.5 17.1L200.6 271.1v28c0 7.1 5.8 12.9 12.9 12.9h285.3c7.1 0 12.9-5.8 12.9-12.9V87.7C511.6 80.6 505.9 74.8 498.8 74.8zM314.8 74.8l41.3-41.3 41.3 41.3H314.8z"/><path d="M250 197c-5.4-8.7-16.7-11.3-25.4-5.9l-37.3 23.2c-0.2-31-0.1-14.5-0.2-34.5 -0.1-23.9-19.7-43.4-43.6-43.4H125.4c-4.6 12-16.2 42.1-19.7 51.2l36.9 16.9v-24.5c0-2.1 1.7-3.9 3.9-3.9s3.9 1.7 3.9 3.9c0 0 0 0 0 0l0.4 68.9c1.1 13.8 16.5 21.3 28.1 14.1l65.3-40.6C252.7 217 255.4 205.7 250 197z"/><path d="M44.9 288.2l0 201.6c0 12.2 9.9 22.1 22.1 22.1 12.2 0 22.1-9.9 22.1-22.1V313h8.4C95.8 312.5 44.9 288.2 44.9 288.2z"/><path d="M142.5 265.1l-16.2 35.3c-4.8 10.4-16.5 16-27.6 12.9v176.5c0 12.2 9.9 22.1 22.1 22.1 12.2 0 22.1-9.9 22.1-22.1C142.9 478.7 142.5 277.4 142.5 265.1z"/><path d="M106.5 166.4l-7.5-13.6 6.7-12.1c1-1.8-0.3-4-2.4-4H85c-2.1 0-3.4 2.2-2.4 4l6.7 12.1 -7.5 13.7c-0.9 1.6-1.2 3.4-0.8 5.2l2.6 13.2c7.9-2.9 13.8-1.1 20.5 1.9l3.2-15.1C107.6 169.9 107.4 168 106.5 166.4z"/><path d="M138.1 218.3l-42.7-19.6c-4.6-2.1-10-0.1-12.1 4.5L72.2 227.3l22.5 12.5c16.1 8.9 21.9 29.2 12.9 45.3 -2.8 5-6.6 9-11.1 11.8l4.6 2.1c4.6 2.1 10 0.1 12.1-4.5l29.4-64C144.7 225.8 142.7 220.4 138.1 218.3z"/><circle cx="93.9" cy="86" r="38.2"/><path d="M87.5 252.7l-50.2-27.9c0.1-16.8 0.2-29.1 0.3-44.9 0 0 0 0 0 0 0-2 1.7-3.6 3.7-3.6s3.6 1.6 3.6 3.7v32.1l14.7 8.2 10.6-23.1c2.4-5.2 6.6-9.3 11.7-11.6 -2.1-5.4-16.9-43.8-19-49.2H44.3c-23.9 0-43.5 19.5-43.6 43.4 0 8.1-0.3 47.7-0.3 55.8 0 6.7 3.6 13 9.5 16.2l59.7 33.2c8.9 4.9 20.1 1.7 25.1-7.2C99.6 268.9 96.4 257.7 87.5 252.7z"/>
</svg>
