<svg xmlns="http://www.w3.org/2000/svg" viewBox="0 0 459.5 459.5"><path d="M17 55.2h48.7l69.4 251c2 7.4 8.8 12.5 16.4 12.5h213.4c6.8 0 12.8-4 15.6-10.2l77.6-178.5c2.3-5.4 1.7-11.3-1.4-16.1 -3.1-4.8-8.5-7.6-14.2-7.6H206.8c-9.3 0-17 7.7-17 17s7.7 17 17 17H416.5l-62.9 144.5H164.3L94.9 33.7c-2-7.4-8.8-12.5-16.4-12.5H17c-9.3 0-17 7.7-17 17S7.7 55.2 17 55.2z"/><path d="M135.4 438.3c21.3 0 38.5-17.3 38.5-38.5s-17.3-38.5-38.5-38.5S96.9 378.5 96.9 399.8 114.2 438.3 135.4 438.3z"/><path d="M376.3 438.3c0.9 0 2 0 2.8 0 10.2-0.8 19.6-5.4 26.4-13.3 6.8-7.6 9.9-17.6 9.4-28 -1.4-21-19.8-37.1-41.1-35.7 -21.2 1.4-37.1 20.1-35.7 41.1C339.4 422.4 356.2 438.3 376.3 438.3z"/></svg>
