<svg xmlns="http://www.w3.org/2000/svg" viewBox="0 0 512 512">
    <path d="M298.7 153.6c2.2 0 4.4-0.8 6-2.5 3.3-3.3 3.3-8.7 0-12.1l-17.1-17.1c-3.3-3.3-8.7-3.3-12.1 0 -3.3 3.3-3.3 8.7 0 12.1l17.1 17.1C294.3 152.8 296.5 153.6 298.7 153.6z"/>
    <path d="M298.7 460.8c-4.7 0-8.5 3.8-8.5 8.5s3.8 8.5 8.5 8.5h8.5c4.7 0 8.5-3.8 8.5-8.5s-3.8-8.5-8.5-8.5H298.7z"/>
    <path d="M162.1 460.8c-4.7 0-8.5 3.8-8.5 8.5s3.8 8.5 8.5 8.5h85.3c4.7 0 8.5-3.8 8.5-8.5s-3.8-8.5-8.5-8.5H162.1z"/>
    <path d="M224.4 122c-3.3 3.3-3.3 8.7 0 12.1l68.3 68.3c1.7 1.7 3.8 2.5 6 2.5 2.2 0 4.4-0.8 6-2.5 3.3-3.3 3.3-8.7 0-12.1l-68.3-68.3C233.1 118.6 227.7 118.6 224.4 122z"/>
    <path d="M349.9 102.4c-4.7 0-8.5 3.8-8.5 8.5v358.4c0 12.4-13.2 25.6-25.6 25.6H93.9c-12.4 0-25.6-13.2-25.6-25.6v-25.6h247.5c4.7 0 8.5-3.8 8.5-8.5s-3.8-8.5-8.5-8.5h-256c-4.7 0-8.5 3.8-8.5 8.5v34.1c0 21.9 20.7 42.7 42.7 42.7h221.9c21.9 0 42.7-20.7 42.7-42.7v-358.4C358.4 106.2 354.6 102.4 349.9 102.4z"/>
    <path d="M307.5 42.7c0-4.7-3.8-8.5-8.5-8.5h-0.1c-4.7 0-8.5 3.8-8.5 8.5 0 4.7 3.9 8.5 8.6 8.5S307.5 47.4 307.5 42.7z"/>
    <path d="M230.4 51.2c4.7 0 8.5-3.8 8.5-8.5 0-4.7-3.8-8.5-8.5-8.5h-51.2c-4.7 0-8.5 3.8-8.5 8.5 0 4.7 3.8 8.5 8.5 8.5H230.4z"/>
    <path d="M460.7 489.8L425.3 201.8c-0.1-1.1-0.5-2.1-1-3.1l-21.3-38.8 -1.9-15.3c-0.6-4.7-4.8-8-9.5-7.4 -4.7 0.6-8 4.8-7.4 9.5l1.9 15.3 -11.3 42.8c-0.3 1.1-0.3 2.1-0.2 3.2l35.4 288c1.1 8.6 8.3 15 16.9 15 0.7 0 1.4 0 2.1-0.1l16.9-2.1c4.5-0.6 8.6-2.8 11.4-6.4C460 498.8 461.2 494.3 460.7 489.8zM426.8 494h0l-35.2-286.3 5.9-22.2 11.1 20.1 35.1 286.3L426.8 494z"/>
    <path d="M102.4 460.8c-4.7 0-8.5 3.8-8.5 8.5s3.8 8.5 8.5 8.5h8.5c4.7 0 8.5-3.8 8.5-8.5s-3.8-8.5-8.5-8.5H102.4z"/>
    <path d="M317.8 8.8C316.4 8.4 281.8 0 204.8 0 127.8 0 93.2 8.4 91.7 8.8 71.6 14 51.2 29.1 51.2 51.2v349.9c0 4.7 3.8 8.5 8.5 8.5s8.5-3.8 8.5-8.5V51.2c0-12.3 14-22.3 27.7-25.8 0.3-0.1 34.4-8.3 108.9-8.3s108.5 8.2 109.2 8.4c13.4 2.8 27.3 13.2 27.3 25.8v17.1H93.9c-4.7 0-8.5 3.8-8.5 8.5s3.8 8.5 8.5 8.5h256c4.7 0 8.5-3.8 8.5-8.5V51.2C358.4 29.2 337.3 12.9 317.8 8.8z"/>
</svg>
