<svg xmlns="http://www.w3.org/2000/svg" viewBox="0 0 512.4 512.4">
  <style>.a{fill:#FFF;}</style>
  <rect x="32" y="84.2" width="448" height="336" fill="#00C37A"/>
  <path d="M472.2 76.2h-432c-8.8 0-16 7.2-16 16v312c0 4.4 3.6 8 8 8s8-3.6 8-8v-312h432v312c0 4.4 3.6 8 8 8s8-3.6 8-8v-312C488.2 83.4 481 76.2 472.2 76.2z" fill="#7E5C62"/><path d="M504.4 436.2H8c-4.4 0-8-3.6-8-8v-16c0-4.4 3.6-8 8-8h496.4c4.4 0 8 3.6 8 8v16C512.4 432.6 508.9 436.2 504.4 436.2z" fill="#E6BE8A"/><path d="M136.2 404.2v-16c0-4.4-3.6-8-8-8h-48c-4.4 0-8 3.6-8 8v16" class="a"/><path d="M120.2 276.2c-4.4 0-8-3.6-8-8s3.6-8 8-8c13.2 0 24-10.8 24-24s-10.8-24-24-24 -24 10.8-24 24c0 4.4-3.6 8-8 8s-8-3.6-8-8c0-22.1 17.9-40 40-40s40 17.9 40 40S142.3 276.2 120.2 276.2z" class="a"/><path d="M152.2 308.2h-64c-4.4 0-8-3.6-8-8v-8c0-17.6 14.4-32 32-32h8c4.4 0 8 3.6 8 8s-3.6 8-8 8h-8c-8.8 0-16 7.2-16 16h56c4.4 0 8 3.6 8 8S156.6 308.2 152.2 308.2z" class="a"/><path d="M264.2 276.2c-4.4 0-8-3.6-8-8s3.6-8 8-8c13.2 0 24-10.8 24-24s-10.8-24-24-24 -24 10.8-24 24c0 4.4-3.6 8-8 8s-8-3.6-8-8c0-22.1 17.9-40 40-40s40 17.9 40 40S286.3 276.2 264.2 276.2z" class="a"/><path d="M296.2 308.2h-64c-4.4 0-8-3.6-8-8v-8c0-17.6 14.4-32 32-32h8c4.4 0 8 3.6 8 8s-3.6 8-8 8h-8c-8.8 0-16 7.2-16 16h56c4.4 0 8 3.6 8 8S300.6 308.2 296.2 308.2z" class="a"/><path d="M208.2 260.2h-32c-4.4 0-8-3.6-8-8s3.6-8 8-8h32c4.4 0 8 3.6 8 8S212.6 260.2 208.2 260.2z" class="a"/><path d="M352.2 276.2h-32c-4.4 0-8-3.6-8-8s3.6-8 8-8h32c4.4 0 8 3.6 8 8S356.6 276.2 352.2 276.2z" class="a"/><path d="M352.2 252.2h-32c-4.4 0-8-3.6-8-8s3.6-8 8-8h32c4.4 0 8 3.6 8 8S356.6 252.2 352.2 252.2z" class="a"/><path d="M192.2 276.2c-4.4 0-8-3.6-8-8v-32c0-4.4 3.6-8 8-8s8 3.6 8 8v32C200.2 272.6 196.6 276.2 192.2 276.2z" class="a"/><path d="M440.2 276.2h-64c-2.5 0-4.8-1.1-6.3-3.1s-2.1-4.5-1.5-6.9l16-64c1.1-4.3 5.4-6.9 9.7-5.8 4.3 1.1 6.9 5.4 5.8 9.7l-13.5 54.1h53.8c4.4 0 8 3.6 8 8S444.6 276.2 440.2 276.2z" class="a"/><path d="M424.2 308.2c-4.4 0-8-3.6-8-8v-72c0-4.4 3.6-8 8-8s8 3.6 8 8v72C432.2 304.6 428.6 308.2 424.2 308.2z" class="a"/><path d="M0 420.2v8c0 4.4 3.6 8 8 8h496.4c4.4 0 8-3.6 8-8v-8H0z" fill="#C9A07C"/>
</svg>
