<svg xmlns="http://www.w3.org/2000/svg" width="124" height="124" viewBox="0 0 123.6 123.6"><path d="M103.6 25.6c-0.1-0.1-0.3-0.1-0.5-0.2 -1.2-0.8-2.6-1.4-4-1.8l-2.8 2.8 -2.7-2.9c0 0 0 0 0 0 -1.4 0.3-2.7 0.9-3.9 1.6 -0.3 0.1-0.6 0.2-0.9 0.4 -1.7 1-3.4 1.2-5.2 0.6 -6-1.9-11.6-11.1-13.3-14.5 -0.4-0.9-1.2-1.6-2-2l-1.2-0.4c-0.9-0.1-1.8 0-2.7 0.4 -2.2 1.1-3.1 3.7-2 5.9 0.3 0.5 1.2 2.4 2.8 4.9l1 1.6c3.2 4.7 8.3 10.6 14.8 12.6 1.3 0.4 2.5 0.6 3.8 0.7v23.1c0 1.2 0.2 2.3 0.6 3.3 0 0.2-0.1 0.4-0.1 0.7l0 42c0 2.9 2.3 5.2 5.2 5.2 2.9 0 5.2-2.3 5.2-5.2l0-36c0.2 0 0.4 0 0.6 0 0 0 0.1 0 0.1 0l0 36c0 2.9 2.3 5.2 5.2 5.2l0 0c2.9 0 5.2-2.3 5.2-5.2l0-41.2c0.3 0.3 0.6 0.5 0.9 0.7 0.7 0.4 1.4 0.5 2.1 0.5 1.6 0 3.1-0.8 3.9-2.3C126 39.4 109.1 29 103.6 25.6zM96.3 48.9h-0.1l-2.7-3.7 2.7-18.2h0.1l2.7 18.2L96.3 48.9zM107.9 53.8V41.3C109.5 44.5 109.9 48.5 107.9 53.8z"/><circle cx="96.3" cy="11.7" r="11.3"/><path d="M71.4 63.5H16c-3.5 0-6.4-2.9-6.4-6.4V6.4C9.7 2.9 12.5 0 16 0h55.3c3.5 0 6.4 2.9 6.4 6.4v50.7C77.7 60.6 74.9 63.5 71.4 63.5zM16 4.2c-1.2 0-2.1 1-2.1 2.1v50.7c0 1.2 1 2.1 2.1 2.1h55.3c1.2 0 2.1-1 2.1-2.1V6.4c0-1.2-1-2.1-2.1-2.1H16z"/><circle cx="26.3" cy="78.7" r="8.9"/><path d="M15.9 108.1c-0.3-2.5 0.2-4.5 1.2-6.2v6.2h9.1l-2.1-2.9 2.2-14.4h0l2.2 14.4 -2.1 2.9h9.1v-6.1c1 1.7 1.5 3.7 1.2 6.1h7c0.8-10.7-8-16.1-11.4-18.2 -0.2-0.1-0.3-0.2-0.5-0.2 -1-0.7-2.1-1.2-3.3-1.4l-2.2 2.2 -2.2-2.3c0 0 0 0 0 0 -1.2 0.3-2.3 0.8-3.3 1.5 -0.2 0.1-0.3 0.1-0.5 0.2 -3.4 2.1-12.2 7.5-11.4 18.2H15.9z"/><circle cx="61.1" cy="78.7" r="8.9"/><path d="M50.8 108.1c-0.3-2.5 0.2-4.5 1.2-6.2v6.2h9.1l-2.1-2.9 2.2-14.4h0l2.2 14.4 -2.1 2.9h9.1v-6.1c1 1.7 1.5 3.7 1.2 6.1h7c0.8-10.7-8-16.1-11.4-18.2 -0.1-0.1-0.3-0.2-0.5-0.2 -1-0.7-2.1-1.2-3.3-1.4l-2.2 2.2 -2.2-2.3c0 0 0 0 0 0 -1.2 0.3-2.3 0.8-3.3 1.5 -0.2 0.1-0.3 0.1-0.5 0.2 -3.4 2.1-12.2 7.5-11.4 18.2H50.8z"/><rect x="5.5" y="110.8" width="102.2" height="12.7"/><path d="M59.1 33.8l-1.8-0.7c0.1-1.3 0.1-2.6-0.2-3.9l1.7-0.8c1.1-0.5 1.5-1.8 1-2.8l-1-2.2c-0.5-1.1-1.8-1.5-2.8-1.1l-1.7 0.8c-0.8-1-1.8-1.9-2.9-2.7l0.7-1.8c0.4-1.1-0.2-2.3-1.3-2.8l-2.3-0.8c-1.1-0.4-2.4 0.2-2.8 1.3l-0.7 1.8c-1.3-0.1-2.6-0.1-3.9 0.1l-0.8-1.7c-0.5-1.1-1.8-1.5-2.8-1.1l-2.2 1c-1.1 0.5-1.5 1.8-1 2.8l0.8 1.7c-1 0.8-1.9 1.8-2.7 2.9l-1.8-0.7c-1.1-0.4-2.4 0.2-2.8 1.3l-0.8 2.3c-0.2 0.5-0.2 1.1 0.1 1.6 0.2 0.5 0.7 0.9 1.2 1.1l1.8 0.7c-0.1 1.3-0.1 2.6 0.2 3.9l-1.7 0.8c-1.1 0.5-1.5 1.8-1 2.8l1 2.2c0.5 1.1 1.8 1.5 2.8 1l1.7-0.8c0.8 1 1.8 1.9 2.9 2.7l-0.7 1.8c-0.2 0.5-0.2 1.1 0.1 1.6 0.2 0.5 0.7 0.9 1.2 1.1l2.3 0.8c0.5 0.2 1.1 0.2 1.6-0.1 0.5-0.2 0.9-0.7 1.1-1.2l0.7-1.8c1.3 0.1 2.6 0.1 3.9-0.1l0.8 1.7c0.5 1.1 1.8 1.5 2.8 1l2.2-1c1.1-0.5 1.5-1.8 1.1-2.8l-0.8-1.7c1-0.8 1.9-1.8 2.7-2.9l1.8 0.7c0.5 0.2 1.1 0.2 1.6-0.1 0.5-0.2 0.9-0.7 1.1-1.2l0.8-2.3C60.7 35.5 60.2 34.2 59.1 33.8zM47.3 39.4c-1.1 0.5-2.3 0.8-3.5 0.8 -3.3 0-6.3-1.9-7.7-4.9 -2-4.2-0.1-9.3 4.2-11.3 1.1-0.5 2.3-0.8 3.5-0.8 3.3 0 6.3 1.9 7.7 4.9C53.4 32.4 51.5 37.5 47.3 39.4z"/></svg>
