<svg xmlns="http://www.w3.org/2000/svg" viewBox="0 0 512 512"><path d="M256.9 334c-5.5 0-10 4.5-10 10 0 5.5 4.5 10 10 10h0.1c5.5 0 10-4.5 10-10C267 338.5 262.5 334 256.9 334z"/><path d="M470 20H42c-23.2 0-42 18.8-42 42v282c0 27.6 22.4 50 50 50h152v38h-14c-23.2 0-42 18.8-42 42v8c0 5.5 4.5 10 10 10h173c0.3 0 0.6 0 0.9 0 0.5 0 142.6 0 142.6 0 21.8 0 39.5-17.7 39.5-39.5v-24.5 -366C512 38.8 493.2 20 470 20zM50 374c-16.5 0-30-13.5-30-30v-30h272v60h-80H50zM292 394v38h-70v-38H292zM166.1 472c1-11.2 10.5-20 21.9-20h24 80v0.5c0 7.1 1.9 13.7 5.2 19.5H166.1zM492 452.5c0 10.8-8.7 19.5-19.5 19.5h-141c-10.8 0-19.5-8.7-19.5-19.5v-10.5 -4h180V452.5zM492 418H312v-34V246.1h180V418zM492 226.1H312v-18.6c0-10.8 8.7-19.5 19.5-19.5h141c10.8 0 19.5 8.7 19.5 19.5V226.1zM492 173.2c-5.8-3.3-12.4-5.2-19.5-5.2h-141c-10.1 0-19.2 3.8-26.2 10h-53.8c-5.5 0-10 4.5-10 10 0 5.5 4.5 10 10 10h41.7c-0.8 3-1.2 6.2-1.2 9.5v86.5H20V62c0-12.1 9.9-22 22-22h428c12.1 0 22 9.9 22 22V173.2z"/><path d="M426.8 197H377.3c-5.5 0-10 4.5-10 10 0 5.5 4.5 10 10 10h49.5c5.5 0 10-4.5 10-10C436.8 201.5 432.3 197 426.8 197z"/><path d="M402.1 445h-0.1c-5.5 0-10 4.5-10 10 0 5.5 4.5 10 10 10h0.1c5.5 0 10-4.5 10-10C412.1 449.5 407.6 445 402.1 445z"/><path d="M344.9 332.1l18.4-18.4c3.9-3.9 3.9-10.2 0-14.1 -3.9-3.9-10.2-3.9-14.1 0l-25.4 25.4c-3.9 3.9-3.9 10.2 0 14.1l25.4 25.4c2 2 4.5 2.9 7.1 2.9s5.1-1 7.1-2.9c3.9-3.9 3.9-10.2 0-14.1L344.9 332.1z"/><path d="M480.3 325l-25.4-25.4c-3.9-3.9-10.2-3.9-14.1 0 -3.9 3.9-3.9 10.2 0 14.1l18.4 18.4 -18.4 18.4c-3.9 3.9-3.9 10.2 0 14.1 2 2 4.5 2.9 7.1 2.9s5.1-1 7.1-2.9l25.4-25.4C484.2 335.2 484.2 328.9 480.3 325z"/><path d="M425 292.9c-4.8-2.8-10.9-1.2-13.7 3.6l-35.9 61.1c-2.8 4.8-1.2 10.9 3.6 13.7 1.6 0.9 3.3 1.4 5.1 1.4 3.4 0 6.8-1.8 8.6-4.9l35.9-61.1C431.4 301.8 429.8 295.7 425 292.9z"/><path d="M235.6 130H96c-5.5 0-10 4.5-10 10 0 5.5 4.5 10 10 10h139.6c5.5 0 10-4.5 10-10C245.6 134.5 241.2 130 235.6 130z"/><path d="M416 130H283.8c-5.5 0-10 4.5-10 10 0 5.5 4.5 10 10 10H416c5.5 0 10-4.5 10-10C426 134.5 421.5 130 416 130z"/><path d="M324.6 82H96c-5.5 0-10 4.5-10 10 0 5.5 4.5 10 10 10h228.6c5.5 0 10-4.5 10-10C334.6 86.5 330.1 82 324.6 82z"/><path d="M416 82h-39.9c-5.5 0-10 4.5-10 10 0 5.5 4.5 10 10 10H416c5.5 0 10-4.5 10-10C426 86.5 421.5 82 416 82z"/><path d="M268.9 226h-39.9c-5.5 0-10 4.5-10 10 0 5.5 4.5 10 10 10H268.9c5.5 0 10-4.5 10-10C278.9 230.5 274.4 226 268.9 226z"/><path d="M173.7 226H96c-5.5 0-10 4.5-10 10 0 5.5 4.5 10 10 10h77.7c5.5 0 10-4.5 10-10C183.7 230.5 179.2 226 173.7 226z"/><path d="M177.7 178H96c-5.5 0-10 4.5-10 10 0 5.5 4.5 10 10 10h81.7c5.5 0 10-4.5 10-10C187.7 182.5 183.3 178 177.7 178z"/><path d="M223 180.9c-1.9-1.9-4.4-2.9-7.1-2.9s-5.2 1.1-7.1 2.9c-1.9 1.9-2.9 4.4-2.9 7.1 0 2.6 1.1 5.2 2.9 7.1 1.9 1.9 4.4 2.9 7.1 2.9s5.2-1.1 7.1-2.9c1.9-1.9 2.9-4.4 2.9-7.1C226 185.4 224.9 182.8 223 180.9z"/></svg>
