<?xml version="1.0" encoding="iso-8859-1"?>
<!-- Generator: Adobe Illustrator 19.0.0, SVG Export Plug-In . SVG Version: 6.00 Build 0)  -->
<svg version="1.1" id="Capa_1" xmlns="http://www.w3.org/2000/svg" xmlns:xlink="http://www.w3.org/1999/xlink" x="0px" y="0px"
	 viewBox="0 0 512 512" style="enable-background:new 0 0 512 512;" xml:space="preserve">
<g>
	<g>
		<path d="M438.429,231.331c-0.12-0.63-0.32-1.26-0.57-1.87c-0.25-0.6-0.56-1.18-0.92-1.72c-0.359-0.55-0.779-1.06-1.239-1.52
			c-0.46-0.47-0.971-0.88-1.521-1.25c-0.54-0.36-1.12-0.67-1.729-0.92c-0.6-0.25-1.23-0.44-1.87-0.57c-1.29-0.26-2.62-0.26-3.91,0
			c-0.63,0.13-1.26,0.32-1.87,0.57c-0.6,0.25-1.18,0.56-1.72,0.92c-0.55,0.37-1.061,0.78-1.521,1.25c-0.46,0.46-0.88,0.97-1.25,1.52
			c-0.359,0.54-0.66,1.12-0.91,1.72c-0.25,0.61-0.449,1.24-0.58,1.87c-0.129,0.65-0.189,1.31-0.189,1.96
			c0,0.65,0.059,1.31,0.189,1.95c0.131,0.64,0.33,1.27,0.58,1.87c0.25,0.6,0.551,1.19,0.91,1.73c0.37,0.55,0.79,1.06,1.25,1.52
			c0.46,0.46,0.971,0.88,1.521,1.24c0.54,0.36,1.12,0.67,1.72,0.92c0.61,0.25,1.24,0.44,1.87,0.57c0.649,0.13,1.31,0.2,1.96,0.2
			c0.65,0,1.31-0.07,1.95-0.2s1.269-0.32,1.87-0.57c0.609-0.25,1.189-0.56,1.729-0.92c0.55-0.36,1.061-0.78,1.521-1.24
			c0.46-0.46,0.88-0.97,1.239-1.52c0.36-0.54,0.67-1.13,0.92-1.73c0.25-0.6,0.45-1.23,0.57-1.87c0.13-0.641,0.2-1.3,0.2-1.95
			C438.629,232.641,438.559,231.981,438.429,231.331z"/>
	</g>
</g>
<g>
	<g>
		<path d="M129.341,355.831c-0.47-0.46-0.981-0.87-1.521-1.24c-0.549-0.36-1.129-0.67-1.729-0.92s-1.23-0.44-1.87-0.57
			c-1.29-0.26-2.62-0.26-3.91,0c-0.64,0.13-1.269,0.32-1.87,0.57c-0.599,0.25-1.179,0.56-1.729,0.92
			c-0.541,0.37-1.061,0.78-1.521,1.24c-1.859,1.86-2.92,4.44-2.92,7.08c0,0.65,0.06,1.3,0.19,1.95c0.13,0.64,0.32,1.27,0.57,1.87
			c0.25,0.6,0.56,1.18,0.92,1.73c0.359,0.54,0.779,1.05,1.239,1.52c0.46,0.46,0.981,0.87,1.521,1.24
			c0.549,0.36,1.129,0.67,1.729,0.92s1.23,0.44,1.87,0.57c0.65,0.13,1.3,0.19,1.96,0.19c0.65,0,1.299-0.06,1.952-0.19
			c0.64-0.13,1.27-0.32,1.87-0.57c0.599-0.25,1.179-0.56,1.729-0.92c0.541-0.37,1.051-0.78,1.521-1.24
			c0.46-0.47,0.88-0.98,1.24-1.52c0.359-0.55,0.67-1.13,0.92-1.73c0.25-0.6,0.439-1.23,0.569-1.87c0.131-0.65,0.2-1.3,0.2-1.95
			C132.271,360.271,131.201,357.691,129.341,355.831z"/>
	</g>
</g>
<g>
	<g>
		<path d="M502,208.015c5.522,0,10-4.477,10-10v-74.49c0-5.523-4.478-10-10-10h-13.743l-0.746-27.787
			c0.933-11.123,0.467-23.761-9.216-33.907c-27.225-28.516-82.966-4.251-117.438,21.066c-3.941-2.134-7.86-3.647-11.713-4.518
			c-10.436-3.157-21.839-3.222-32.315-0.187c-4.144,0.811-8.267,2.291-12.323,4.419c-13.7-9.937-33.571-21.492-53.873-28.038
			c-35.474-11.439-54.159-2.071-63.585,7.804c-9.642,10.1-10.127,22.483-9.217,33.36l-0.747,27.787h-13.742c-5.522,0-10,4.477-10,10
			v74.49c0,5.523,4.478,10,10,10h13.733v35.567l-13.139,4.799c-9.063,3.311-17.254,8.205-24.305,14.297H78.604v-0.231
			c0-5.523-4.478-10-10-10H10c-5.523,0-10,4.477-10,10v152.498c0,5.523,4.477,10,10,10h58.604c5.485,0,9.938-4.417,9.998-9.888
			h32.265c19.63,0,38.149,9.466,49.539,25.322c15.561,21.663,44.134,32.647,84.927,32.647H468.9
			c22.49,0,40.787-18.297,40.787-40.787c0-15.6-8.676-29.197-21.422-36.153v-188.07H502z M58.604,404.944H20V272.446h38.604V404.944
			z M197.804,84.561c-0.866-9.788,0.105-14.596,3.711-18.374c17.671-18.514,67.214,3.407,96.184,26.347
			c3.479,2.754,8.357,2.888,11.98,0.326c3.853-2.723,7.646-4.437,11.278-5.094c0.37-0.067,0.736-0.155,1.098-0.263
			c6.967-2.093,14.63-2.057,21.575,0.104c0.292,0.091,0.588,0.168,0.887,0.232c3.395,0.724,7.145,2.525,11.145,5.354
			c3.625,2.563,8.504,2.431,11.982-0.325c29.17-23.1,78.822-45.413,96.184-27.227c3.547,3.716,4.587,9.021,3.711,18.92
			c-0.034,0.382-0.046,0.767-0.035,1.15l0.747,27.813h-271.16l0.748-27.813C197.85,85.328,197.838,84.944,197.804,84.561z
			 M428.629,265.763c-5.522,0-10,4.477-10,10v115.389h-19.531c1.348-1.936,2.548-4.012,3.576-6.221l0.08-0.17
			c9.616-20.687,0.729-45.317-19.808-55.126l-2.425-1.38v-120.24h87.744v183.137h-29.638V275.763
			C438.629,270.24,434.151,265.763,428.629,265.763z M304.819,188.015v-54.49h55.703v54.49H304.819z M360.522,208.015v108.856
			l-55.703-31.705v-77.151H360.522z M173.342,188.015v-54.49H284.82v54.49H173.342z M284.819,208.015v65.768l-49.375-28.103
			c-7.538-4.29-15.395-6.935-23.351-7.859c-4.983-0.58-10.039-0.542-15.019,0.095v-29.901H284.819z M489.689,432.238
			c0,11.462-9.325,20.787-20.787,20.787H245.334c-33.507,0-57.257-8.408-68.683-24.315c-15.138-21.073-39.729-33.654-65.783-33.654
			H78.604V282.678h44.386c-2.112,3.633-3.931,7.429-5.441,11.346c-0.038,0.099-0.077,0.199-0.115,0.298
			c-0.007,0.018-0.013,0.035-0.02,0.053c-3.029,7.939-4.797,16.428-5.101,25.177c-0.002,0.057-0.004,0.115-0.006,0.172
			c-0.005,0.151-0.009,0.303-0.014,0.454c-0.003,0.106-0.005,0.211-0.008,0.317c-0.003,0.117-0.005,0.234-0.007,0.351
			c-0.003,0.147-0.005,0.295-0.007,0.443c-0.001,0.087-0.003,0.175-0.003,0.262c-0.002,0.238-0.003,0.476-0.003,0.714
			c0,5.523,4.478,10,10,10c5.522,0,10-4.477,10-10c0-0.166,0.001-0.332,0.003-0.498c0-0.049,0.001-0.098,0.001-0.148
			c0.001-0.151,0.004-0.302,0.007-0.453c0.001-0.062,0.003-0.124,0.004-0.186c0.002-0.099,0.005-0.198,0.007-0.297
			c0.002-0.084,0.005-0.169,0.007-0.253c0.002-0.051,0.004-0.101,0.005-0.152c0.007-0.2,0.015-0.4,0.024-0.6
			c0-0.01,0.001-0.019,0.001-0.029c0.298-6.554,1.708-12.992,4.112-19.032c0.005-0.013,0.01-0.026,0.015-0.038
			c0.041-0.103,0.082-0.206,0.124-0.308c6.127-15.063,18.391-27.322,34.223-33.105l19.751-7.214
			c6.114-2.234,12.765-3.016,19.236-2.266c5.271,0.613,10.576,2.421,15.767,5.375l147.836,84.144
			c0.238,0.136,0.481,0.261,0.73,0.377c10.82,5.03,15.53,17.926,10.518,28.707l-0.077,0.165c-4.97,10.674-17.6,15.399-28.327,10.695
			l-142.941-85.878c-4.735-2.845-10.878-1.311-13.723,3.422c-2.844,4.734-1.312,10.877,3.422,13.722l8.421,5.059
			c0.042,0.161,0.088,0.321,0.138,0.481l16.395,52.089c6.599,20.964,25.799,35.073,47.792,35.107h193.165
			C480.363,411.152,489.689,420.611,489.689,432.238z M324.058,391.152H304.82v-11.558L324.058,391.152z M284.819,367.578v23.574
			h-9.067c-13.216-0.021-24.762-8.505-28.73-21.112l-9.77-31.04L284.819,367.578z M380.522,188.015v-54.49H492v54.49H380.522z"/>
	</g>
</g>
<g>
</g>
<g>
</g>
<g>
</g>
<g>
</g>
<g>
</g>
<g>
</g>
<g>
</g>
<g>
</g>
<g>
</g>
<g>
</g>
<g>
</g>
<g>
</g>
<g>
</g>
<g>
</g>
<g>
</g>
</svg>
