<svg xmlns="http://www.w3.org/2000/svg" viewBox="0 0 512 512">
  <path
    d="M438.4 231.3c-0.1-0.6-0.3-1.3-0.6-1.9 -0.2-0.6-0.6-1.2-0.9-1.7 -0.4-0.5-0.8-1.1-1.2-1.5 -0.5-0.5-1-0.9-1.5-1.2 -0.5-0.4-1.1-0.7-1.7-0.9 -0.6-0.2-1.2-0.4-1.9-0.6 -1.3-0.3-2.6-0.3-3.9 0 -0.6 0.1-1.3 0.3-1.9 0.6 -0.6 0.3-1.2 0.6-1.7 0.9 -0.5 0.4-1.1 0.8-1.5 1.3 -0.5 0.5-0.9 1-1.2 1.5 -0.4 0.5-0.7 1.1-0.9 1.7 -0.2 0.6-0.4 1.2-0.6 1.9 -0.1 0.7-0.2 1.3-0.2 2 0 0.7 0.1 1.3 0.2 2 0.1 0.6 0.3 1.3 0.6 1.9 0.3 0.6 0.6 1.2 0.9 1.7 0.4 0.6 0.8 1.1 1.3 1.5 0.5 0.5 1 0.9 1.5 1.2 0.5 0.4 1.1 0.7 1.7 0.9 0.6 0.3 1.2 0.4 1.9 0.6 0.6 0.1 1.3 0.2 2 0.2 0.7 0 1.3-0.1 2-0.2s1.3-0.3 1.9-0.6c0.6-0.2 1.2-0.6 1.7-0.9 0.6-0.4 1.1-0.8 1.5-1.2 0.5-0.5 0.9-1 1.2-1.5 0.4-0.5 0.7-1.1 0.9-1.7 0.3-0.6 0.5-1.2 0.6-1.9 0.1-0.6 0.2-1.3 0.2-1.9C438.6 232.6 438.6 232 438.4 231.3z"/>
  <path
    d="M129.3 355.8c-0.5-0.5-1-0.9-1.5-1.2 -0.5-0.4-1.1-0.7-1.7-0.9s-1.2-0.4-1.9-0.6c-1.3-0.3-2.6-0.3-3.9 0 -0.6 0.1-1.3 0.3-1.9 0.6 -0.6 0.3-1.2 0.6-1.7 0.9 -0.5 0.4-1.1 0.8-1.5 1.2 -1.9 1.9-2.9 4.4-2.9 7.1 0 0.7 0.1 1.3 0.2 2 0.1 0.6 0.3 1.3 0.6 1.9 0.3 0.6 0.6 1.2 0.9 1.7 0.4 0.5 0.8 1.1 1.2 1.5 0.5 0.5 1 0.9 1.5 1.2 0.5 0.4 1.1 0.7 1.7 0.9s1.2 0.4 1.9 0.6c0.7 0.1 1.3 0.2 2 0.2 0.7 0 1.3-0.1 2-0.2 0.6-0.1 1.3-0.3 1.9-0.6 0.6-0.2 1.2-0.6 1.7-0.9 0.5-0.4 1.1-0.8 1.5-1.2 0.5-0.5 0.9-1 1.2-1.5 0.4-0.5 0.7-1.1 0.9-1.7 0.3-0.6 0.4-1.2 0.6-1.9 0.1-0.6 0.2-1.3 0.2-1.9C132.3 360.3 131.2 357.7 129.3 355.8z"/>
  <path
    d="M502 208c5.5 0 10-4.5 10-10v-74.5c0-5.5-4.5-10-10-10h-13.7l-0.7-27.8c0.9-11.1 0.5-23.8-9.2-33.9 -27.2-28.5-83-4.3-117.4 21.1 -3.9-2.1-7.9-3.6-11.7-4.5 -10.4-3.2-21.8-3.2-32.3-0.2 -4.1 0.8-8.3 2.3-12.3 4.4 -13.7-9.9-33.6-21.5-53.9-28 -35.5-11.4-54.2-2.1-63.6 7.8 -9.6 10.1-10.1 22.5-9.2 33.4l-0.7 27.8h-13.7c-5.5 0-10 4.5-10 10v74.5c0 5.5 4.5 10 10 10h13.7v35.6l-13.1 4.8c-9.1 3.3-17.3 8.2-24.3 14.3H78.6v-0.2c0-5.5-4.5-10-10-10H10c-5.5 0-10 4.5-10 10v152.5c0 5.5 4.5 10 10 10h58.6c5.5 0 9.9-4.4 10-9.9h32.3c19.6 0 38.1 9.5 49.5 25.3 15.6 21.7 44.1 32.6 84.9 32.6H468.9c22.5 0 40.8-18.3 40.8-40.8 0-15.6-8.7-29.2-21.4-36.2v-188.1H502zM58.6 404.9H20V272.4h38.6V404.9zM197.8 84.6c-0.9-9.8 0.1-14.6 3.7-18.4 17.7-18.5 67.2 3.4 96.2 26.3 3.5 2.8 8.4 2.9 12 0.3 3.9-2.7 7.6-4.4 11.3-5.1 0.4-0.1 0.7-0.2 1.1-0.3 7-2.1 14.6-2.1 21.6 0.1 0.3 0.1 0.6 0.2 0.9 0.2 3.4 0.7 7.1 2.5 11.1 5.4 3.6 2.6 8.5 2.4 12-0.3 29.2-23.1 78.8-45.4 96.2-27.2 3.5 3.7 4.6 9 3.7 18.9 0 0.4 0 0.8 0 1.2l0.7 27.8h-271.2l0.7-27.8C197.9 85.3 197.8 84.9 197.8 84.6zM428.6 265.8c-5.5 0-10 4.5-10 10v115.4h-19.5c1.3-1.9 2.5-4 3.6-6.2l0.1-0.2c9.6-20.7 0.7-45.3-19.8-55.1l-2.4-1.4v-120.2h87.7v183.1h-29.6V275.8C438.6 270.2 434.2 265.8 428.6 265.8zM304.8 188v-54.5h55.7v54.5H304.8zM360.5 208v108.9l-55.7-31.7v-77.2H360.5zM173.3 188v-54.5H284.8v54.5H173.3zM284.8 208v65.8l-49.4-28.1c-7.5-4.3-15.4-6.9-23.4-7.9 -5-0.6-10-0.5-15 0.1v-29.9H284.8zM489.7 432.2c0 11.5-9.3 20.8-20.8 20.8H245.3c-33.5 0-57.3-8.4-68.7-24.3 -15.1-21.1-39.7-33.7-65.8-33.7H78.6V282.7h44.4c-2.1 3.6-3.9 7.4-5.4 11.3 0 0.1-0.1 0.2-0.1 0.3 0 0 0 0 0 0.1 -3 7.9-4.8 16.4-5.1 25.2 0 0.1 0 0.1 0 0.2 0 0.2 0 0.3 0 0.5 0 0.1 0 0.2 0 0.3 0 0.1 0 0.2 0 0.4 0 0.1 0 0.3 0 0.4 0 0.1 0 0.2 0 0.3 0 0.2 0 0.5 0 0.7 0 5.5 4.5 10 10 10 5.5 0 10-4.5 10-10 0-0.2 0-0.3 0-0.5 0 0 0-0.1 0-0.1 0-0.2 0-0.3 0-0.5 0-0.1 0-0.1 0-0.2 0-0.1 0-0.2 0-0.3 0-0.1 0-0.2 0-0.3 0-0.1 0-0.1 0-0.2 0-0.2 0-0.4 0-0.6 0 0 0 0 0 0 0.3-6.6 1.7-13 4.1-19 0 0 0 0 0 0 0-0.1 0.1-0.2 0.1-0.3 6.1-15.1 18.4-27.3 34.2-33.1l19.8-7.2c6.1-2.2 12.8-3 19.2-2.3 5.3 0.6 10.6 2.4 15.8 5.4l147.8 84.1c0.2 0.1 0.5 0.3 0.7 0.4 10.8 5 15.5 17.9 10.5 28.7l-0.1 0.2c-5 10.7-17.6 15.4-28.3 10.7l-142.9-85.9c-4.7-2.8-10.9-1.3-13.7 3.4 -2.8 4.7-1.3 10.9 3.4 13.7l8.4 5.1c0 0.2 0.1 0.3 0.1 0.5l16.4 52.1c6.6 21 25.8 35.1 47.8 35.1h193.2C480.4 411.2 489.7 420.6 489.7 432.2zM324.1 391.2H304.8v-11.6L324.1 391.2zM284.8 367.6v23.6h-9.1c-13.2 0-24.8-8.5-28.7-21.1l-9.8-31L284.8 367.6zM380.5 188v-54.5H492v54.5H380.5z"/>
</svg>
