<svg xmlns="http://www.w3.org/2000/svg" viewBox="0 0 59.4 59.4">
  <style>.a{fill:#010002;}</style>
  <circle cx="16.4" cy="16.2" r="4.3" class="a"/><path d="M19.7 35.1c0.3-1.9 2.1-3.1 3.9-2.5l3.9 1.3c-0.8-1.3-1.5-2.7-2.1-4.2 -0.1-0.2-0.2-0.4-0.3-0.5l-0.8-2.2c2.2 0.9 4.4 1.8 6.6 2.9 0.1 0.1 0.3 0.1 0.4 0.2 -1.7-1.1-2.6-3.2-2.2-5.3 0-0.2 0.1-0.3 0.1-0.5 -2.7-1.2-5.5-2.3-8.3-3.2 -0.1 0-0.2 0-0.3-0.1 -0.5-0.2-1.1-0.3-1.8-0.2 -1.2 0.1-2.5 0.8-3.3 1.9 -1.2 1.2-2.5 2.3-3.7 3.5 -2.1-0.7-4.3-1.4-6.4-2.1 -2.7-0.9-3.9 3.4-1.2 4.3 2.5 0.8 5.1 1.7 7.6 2.5 0.8 0.3 1.6 0 2.2-0.6 0.6-0.5 1.1-1.1 1.7-1.6 0.7 2.4 1.4 3.7 1.4 3.7s0.4 0.7 1 1.5c-1.5 4.4-3.1 8.8-4.8 13.1 -1 2.7 3.3 3.8 4.3 1.2 1.2-3.2 2.5-6.5 3.7-9.7C20 37.7 19.5 36.3 19.7 35.1z" class="a"/><circle cx="34.3" cy="25.9" r="4.3" class="a"/><path d="M50.1 44.2c-1 0.8-1.9 1.6-2.8 2.3 -1.5-2.2-2.9-4.5-3.9-7 -0.1-0.2-0.2-0.4-0.3-0.5l-0.8-2.2c2.2 0.9 4.4 1.8 6.6 2.9 2.6 1.3 4.8-2.6 2.2-3.8 -3.9-1.9-8-3.6-12.2-5 -0.1 0-0.2 0-0.3-0.1 -0.5-0.2-1.1-0.3-1.8-0.2 -1.2 0.1-2.5 0.8-3.3 1.9 -1.2 1.2-2.5 2.3-3.7 3.5 -2.1-0.7-4.3-1.4-6.4-2.1 -2.7-0.9-3.9 3.4-1.2 4.3 2.5 0.8 5.1 1.7 7.6 2.5 0.8 0.3 1.6 0 2.2-0.6 0.6-0.5 1.1-1.1 1.7-1.6 0.7 2.4 1.4 3.7 1.4 3.7s0.4 0.7 1 1.5c-1.5 4.4-3.1 8.8-4.8 13.1 -1 2.7 3.3 3.8 4.3 1.2 1.7-4.3 3.3-8.6 4.8-13 0.1 0 0.2-0.1 0.3-0.1 0.1 0 0.3-0.1 0.4-0.2 1.1 2.1 2.4 4.1 3.8 6.1 0.7 1 1.9 1.4 3 0.8 2-1.1 3.6-2.7 5.4-4.1C55.5 45.6 52.3 42.4 50.1 44.2z" class="a"/><circle cx="36.9" cy="4.3" r="4.3" class="a"/><path d="M52.7 22.5c-1 0.8-1.9 1.6-2.8 2.3 -1.5-2.2-2.9-4.5-3.9-7 -0.1-0.2-0.2-0.4-0.3-0.5l-0.8-2.2c2.2 0.9 4.4 1.8 6.6 2.9 2.6 1.3 4.8-2.6 2.2-3.8 -3.9-1.9-8-3.6-12.2-5 -0.1 0-0.2 0-0.3-0.1 -0.5-0.2-1.1-0.3-1.8-0.2 -1.2 0.1-2.5 0.8-3.3 1.9 -1.2 1.2-2.5 2.3-3.7 3.5 -2.1-0.7-4.3-1.4-6.4-2.1 -2.7-0.9-3.9 3.4-1.2 4.3 2.5 0.8 5.1 1.7 7.6 2.5 0.8 0.3 1.6 0 2.2-0.6 0.6-0.5 1.1-1.1 1.7-1.6 0.7 2.4 1.4 3.7 1.4 3.7s0.4 0.7 1 1.5c0 0.1-0.1 0.3-0.1 0.4 1 1.3 1.5 2.9 1.1 4.6 -0.2 0.9-0.5 1.6-1 2.3 0.1 0 0.1 0 0.2 0.1 0.1 0 0.3 0.1 0.4 0.1 0.4 0.2 0.9 0.3 1.3 0.5 0.8-2.2 1.6-4.4 2.4-6.6 0.1 0 0.2-0.1 0.3-0.1 0.1 0 0.3-0.1 0.4-0.2 1.1 2.1 2.4 4.1 3.8 6.1 0.7 1 1.9 1.4 3 0.8 2-1.1 3.6-2.7 5.4-4.1C58.1 23.9 55 20.8 52.7 22.5z" class="a"/>
</svg>
