<?xml version="1.0" encoding="iso-8859-1"?>
<!-- Generator: Adobe Illustrator 19.0.0, SVG Export Plug-In . SVG Version: 6.00 Build 0)  -->
<svg version="1.1" id="Capa_1" xmlns="http://www.w3.org/2000/svg" xmlns:xlink="http://www.w3.org/1999/xlink" x="0px" y="0px"
	 viewBox="0 0 512 512" style="enable-background:new 0 0 512 512;" xml:space="preserve">
<g>
	<g>
		<path d="M251.96,52.083c-1.87-1.86-4.44-2.93-7.07-2.93s-5.21,1.07-7.08,2.93c-1.859,1.86-2.93,4.44-2.93,7.07
			s1.07,5.21,2.93,7.08c1.87,1.86,4.44,2.92,7.08,2.92c2.63,0,5.2-1.06,7.07-2.92c1.859-1.87,2.93-4.45,2.93-7.08
			S253.82,53.943,251.96,52.083z"/>
	</g>
</g>
<g>
	<g>
		<path d="M488.934,161.224c1.443-3.469,2.245-7.254,2.245-11.22c0-3.878-0.769-7.583-2.151-10.989
			C502.233,135.627,512,123.906,512,110.003c0-7.918-3.173-15.124-8.34-20.491c4.506-5.25,7.238-12.064,7.238-19.509
			c0-14.084-9.758-25.926-22.867-29.136c1.315-3.371,2.044-7.033,2.044-10.864c0-16.542-13.458-30-30-30h-50.641h-1.103H365.76
			c-22.892,0-45.137,6.392-64.525,18.477c-1.789-2.711-4.858-4.502-8.349-4.502H10c-5.522,0-10,4.477-10,10v188.008
			c0,6.136,3.119,11.728,8.344,14.958c5.186,3.207,11.532,3.498,16.97,0.782c2.897-1.447,6.027-2.181,9.302-2.181h1.282
			c11.51,0,20.874,9.364,20.874,20.874s-9.364,20.874-20.874,20.874h-1.282c-3.274,0-6.404-0.734-9.302-2.181
			c-5.439-2.718-11.783-2.426-16.97,0.782C3.119,269.125,0,274.717,0,280.853v39.381c0,14.498,9.768,26.75,23.066,30.543
			c-1.443,3.469-2.245,7.254-2.245,11.22c0,3.878,0.769,7.583,2.151,10.989C9.767,376.373,0,388.094,0,401.997
			c0,7.621,2.94,14.583,7.767,19.881C2.943,427.203,0,434.262,0,441.997c0,14.084,9.758,25.925,22.866,29.136
			c-1.315,3.371-2.044,7.033-2.044,10.864c0,16.542,13.458,30,30,30h51.744h43.675c22.892,0,45.138-6.392,64.525-18.477
			c1.789,2.711,4.858,4.502,8.349,4.502H502c5.522,0,10-4.477,10-10v-148c0-0.065-0.008-0.128-0.01-0.192
			c0.001-0.128,0.01-0.255,0.01-0.383v-39.433c0-6.136-3.119-11.728-8.344-14.958c-5.188-3.208-11.533-3.499-16.97-0.782
			c-2.897,1.447-6.027,2.181-9.302,2.181h-1.282c-11.51,0-20.874-9.364-20.874-20.874c0-11.51,9.364-20.874,20.874-20.874h1.282
			c3.274,0,6.404,0.734,9.302,2.181c5.438,2.717,11.782,2.425,16.97-0.782c5.225-3.23,8.344-8.822,8.344-14.958v-39.381
			C512,177.268,502.232,165.016,488.934,161.224z M481.179,120.003h-20.821h-18.206v-20h38.746h0.281
			c5.967,0,10.821,4.486,10.821,10S487.146,120.003,481.179,120.003z M471.178,150.003c0,5.514-4.854,10-10.821,10h-6.024h-12.182
			v-20h18.206C466.324,140.003,471.178,144.489,471.178,150.003z M408.333,20.003h1.102h50.641c5.514,0,10,4.486,10,10
			s-4.486,10-10,10h-51.743c-5.514,0-10-4.486-10-10S402.819,20.003,408.333,20.003z M408.332,60.003h51.743h20.822
			c5.514,0,10,4.486,10,10s-4.486,10-10,10h-72.565c-5.514,0-10-4.486-10-10S402.818,60.003,408.332,60.003z M302.886,41.233
			l7.078-4.623c16.635-10.864,35.929-16.607,55.796-16.607h14.292c-1.11,3.13-1.72,6.494-1.72,10c0,7.678,2.902,14.688,7.664,20
			c-4.761,5.312-7.664,12.322-7.664,20c0,11.903,6.968,22.208,17.04,27.053c-4.715,5.513-8.232,12.114-10.086,19.429
			c-9.28-11.54-22.002-19.973-36.705-24.021c-5.327-1.462-10.83,1.663-12.296,6.988c-1.466,5.325,1.663,10.83,6.987,12.295
			c15.292,4.209,27.606,15.001,33.785,29.609l3.168,7.49c1.7,4.023,5.814,6.483,10.165,6.059c4.348-0.417,7.922-3.607,8.827-7.88
			l5.205-24.555c2.036-9.604,8.917-17.266,17.729-20.624v64.651c0,12.466-10.143,22.608-22.608,22.608h-13.21
			c-23.194,0-45.523-6.992-64.575-20.22l-18.872-13.103V41.233z M20,33.978h262.886v128H255.99V94.337c0-5.523-4.478-10-10-10
			c-5.522,0-10,4.477-10,10v67.641h-26.601c-4.367-12.329-16.139-21.188-29.945-21.188H142.96
			c2.311-5.201,3.519-10.866,3.519-16.601v-1.282c0-22.538-18.336-40.874-40.874-40.874c-22.538,0-40.874,18.336-40.874,40.874
			v1.282c0,5.735,1.207,11.399,3.518,16.601H31.764c-4.155,0-8.123,0.81-11.764,2.268V33.978z M20,320.236v-35.633
			c4.647,1.788,9.547,2.691,14.615,2.691h1.282c22.538,0,40.874-18.336,40.874-40.874c0-22.538-18.336-40.874-40.874-40.874h-1.282
			c-5.068,0-9.968,0.903-14.615,2.691v-35.682c0-6.486,5.277-11.764,11.764-11.764H72.23c6.254,0,12.087-3.367,15.222-8.788
			c3.16-5.463,3.173-11.982,0.035-17.437c-1.805-3.137-2.758-6.725-2.758-10.376v-1.282c0-11.51,9.364-20.874,20.874-20.874
			s20.874,9.364,20.874,20.874v1.282c0,3.65-0.954,7.238-2.758,10.375c-3.139,5.456-3.126,11.974,0.034,17.438
			c3.136,5.42,8.968,8.788,15.223,8.788h40.467c6.486,0,11.763,5.277,11.763,11.764v35.63c-4.647-1.788-9.547-2.691-14.615-2.691
			h-1.282c-22.537,0-40.873,18.336-40.873,40.875c0,22.538,18.336,40.874,40.873,40.874h1.282c5.069,0,9.969-0.903,14.615-2.69
			v35.596c-19.96-11.307-42.378-17.253-65.539-17.253h-13.21c-18.774,0-34.74,12.211-40.402,29.103H51.644h-19.88
			C25.278,331.999,20,326.722,20,320.236z M69.848,351.997v20H51.644c-5.968,0-10.823-4.486-10.823-10c0-5.514,4.854-10,10.822-10
			H69.848z M30.821,391.997h39.027v20H30.821c-5.967,0-10.821-4.486-10.821-10C20,396.483,24.854,391.997,30.821,391.997z
			 M102.565,491.997H50.821c-5.513,0-10-4.486-10-10c0-5.514,4.486-10,10-10h51.744c5.514,0,10,4.486,10,10
			C112.565,487.511,108.079,491.997,102.565,491.997z M102.565,451.997H50.821H30c-5.514,0-10-4.486-10-10c0-5.514,4.486-10,10-10
			h0.821h71.744c5.514,0,10,4.486,10,10C112.565,447.511,108.079,451.997,102.565,451.997z M209.114,470.768l-7.078,4.623
			c-16.635,10.863-35.928,16.606-55.796,16.606h-15.395c1.11-3.13,1.72-6.494,1.72-10c0-7.678-2.902-14.688-7.664-20
			c4.761-5.312,7.664-12.322,7.664-20c0-11.6-6.622-21.676-16.28-26.665c4.885-5.591,8.531-12.327,10.43-19.816
			c9.28,11.54,22.002,19.972,36.705,24.02c5.327,1.463,10.829-1.663,12.296-6.988c1.466-5.325-1.663-10.83-6.987-12.295
			c-15.292-4.209-27.606-15.001-33.785-29.609l-3.168-7.49c-1.7-4.022-5.813-6.474-10.165-6.059
			c-4.348,0.417-7.922,3.607-8.827,7.88l-5.206,24.555c-2.035,9.604-8.916,17.266-17.729,20.624v-64.651
			c0-12.466,10.143-22.608,22.608-22.608h13.21c23.194,0,45.524,6.992,64.576,20.22l18.871,13.103V470.768z M219.113,330.023
			c-3.045,0-5.767,1.366-7.601,3.512l-2.495-1.732c1.432-3.671,2.188-7.61,2.188-11.569v-39.432c0-6.136-3.119-11.728-8.343-14.958
			c-5.188-3.208-11.531-3.5-16.972-0.782c-2.896,1.447-6.025,2.181-9.301,2.181h-1.282c-11.51,0-20.873-9.364-20.873-20.874
			c0-11.51,9.363-20.874,20.873-20.874h1.282c3.274,0,6.404,0.734,9.302,2.181c5.438,2.716,11.781,2.426,16.97-0.782
			c5.225-3.23,8.344-8.822,8.344-14.958v-29.957h81.68c3.045,0,5.767-1.366,7.602-3.513l2.495,1.733
			c-1.431,3.653-2.189,7.553-2.189,11.569v30.418c-4.647-1.788-9.547-2.691-14.615-2.691h-1.282
			c-22.538,0-40.874,18.336-40.874,40.875c0,22.536,18.336,40.872,40.874,40.872h1.282c5.069,0,9.969-0.903,14.615-2.69v31.471
			H219.113z M491.999,478.022H229.114v-128h28v67.642c0,5.523,4.478,10,10,10c5.522,0,10-4.477,10-10v-67.642h25.497
			c4.367,12.329,16.139,21.188,29.946,21.188h36.484c-2.311,5.201-3.519,10.866-3.519,16.601v1.282
			c0,22.538,18.336,40.874,40.874,40.874c22.538,0,40.874-18.336,40.874-40.874v-1.282c0-5.735-1.208-11.4-3.518-16.601h36.483
			c4.155,0,8.123-0.81,11.764-2.268V478.022z M492.001,227.397H492c-4.647-1.788-9.547-2.691-14.615-2.691h-1.282
			c-22.538,0-40.874,18.336-40.874,40.874s18.336,40.874,40.874,40.874h1.282c5.068,0,9.968-0.903,14.615-2.691v35.683
			c0,6.486-5.277,11.763-11.764,11.763H439.77c-6.254,0-12.086,3.367-15.222,8.788c-3.16,5.464-3.173,11.983-0.034,17.438
			c1.804,3.136,2.757,6.724,2.757,10.375v1.282c0,11.51-9.364,20.874-20.874,20.874c-11.51,0-20.874-9.364-20.874-20.874v-1.282
			c0-3.65,0.954-7.238,2.758-10.375c3.139-5.456,3.126-11.975-0.034-17.438c-3.136-5.42-8.969-8.788-15.223-8.788h-40.467
			c-6.486,0-11.763-5.277-11.763-11.763v-44.645c0-6.136-3.119-11.728-8.343-14.958c-5.188-3.207-11.531-3.5-16.972-0.782
			c-2.896,1.447-6.025,2.181-9.301,2.181h-1.282c-11.51,0-20.874-9.364-20.874-20.874c0-11.51,9.364-20.874,20.874-20.874h1.282
			c3.274,0,6.404,0.734,9.302,2.181c5.438,2.717,11.781,2.425,16.97-0.782c5.225-3.23,8.344-8.822,8.344-14.958v-34.082
			c19.959,11.307,42.378,17.254,65.539,17.254h13.21c18.774,0,34.74-12.211,40.402-29.103h40.292
			c6.486,0,11.764,5.277,11.764,11.763V227.397z"/>
	</g>
</g>
<g>
	<g>
		<path d="M274.189,445.773c-1.87-1.86-4.449-2.93-7.08-2.93c-2.63,0-5.21,1.07-7.069,2.93c-1.86,1.86-2.931,4.44-2.931,7.07
			s1.07,5.21,2.931,7.07c1.87,1.86,4.439,2.93,7.069,2.93c2.631,0,5.21-1.07,7.08-2.93c1.86-1.86,2.92-4.44,2.92-7.07
			S276.049,447.633,274.189,445.773z"/>
	</g>
</g>
<g>
</g>
<g>
</g>
<g>
</g>
<g>
</g>
<g>
</g>
<g>
</g>
<g>
</g>
<g>
</g>
<g>
</g>
<g>
</g>
<g>
</g>
<g>
</g>
<g>
</g>
<g>
</g>
<g>
</g>
</svg>
