<svg xmlns="http://www.w3.org/2000/svg" viewBox="0 0 512 512">
<style>
  .a{
    fill:#FFF;
  }
  .b{
    fill:#FFCDAC;
  }
</style>
  <path d="M480.2 361.2H439.8c-5.8 0-9.5 6.2-6.6 11.2 2.6 4.5 4.1 9.8 4.1 15.4v1.3c0 17.1-13.8 30.9-30.9 30.9l0 0c-17.1 0-30.9-13.8-30.9-30.9v-1.3c0-5.6 1.5-10.8 4.1-15.4 2.9-5-0.8-11.2-6.6-11.2h-40.5c-11.8 0-21.4-9.4-21.7-21.2h-91.7v148H502v-148h0C501.7 351.8 492.1 361.2 480.2 361.2z" fill="#FF8C8C"/>
  <path d="M476.1 234.7h1.3c4.9 0 9.6 1.2 13.8 3.2 5 2.5 10.8-1.2 10.8-6.8v-39.4c0-12-9.7-21.8-21.8-21.8h-147.7c-12 0-21.8 9.7-21.8 21.8v34.2c0 5.6-5.9 9.3-10.8 6.8 -4.1-2.1-8.8-3.2-13.8-3.2h-1.3c-17.1 0-30.9 13.8-30.9 30.9l0 0c0 17.1 13.8 30.9 30.9 30.9h1.3c4.9 0 9.6-1.2 13.8-3.2 5-2.5 10.8 1.2 10.8 6.8v39.4 5.2c0 12 9.7 21.8 21.8 21.8h40.5c5.8 0 9.5 6.2 6.6 11.2 -2.6 4.5-4.1 9.8-4.1 15.4v1.3c0 17.1 13.8 30.9 30.9 30.9l0 0c17.1 0 30.9-13.8 30.9-30.9v-1.3c0-5.6-1.5-10.8-4.1-15.4 -2.9-5 0.8-11.2 6.6-11.2h40.5c12 0 21.8-9.7 21.8-21.8v-39.4c0-5.6-5.9-9.3-10.8-6.8 -4.1 2.1-8.8 3.2-13.8 3.2h-1.3c-17.1 0-30.9-13.8-30.9-30.9l0 0C445.2 248.5 459.1 234.7 476.1 234.7z" fill="#F5B955"/>
  <rect x="10" y="24" width="282.9" height="148" fill="#78D2FA"/>
  <path d="M190.4 274c-4.1 2.1-8.8 3.2-13.8 3.2h-1.3c-17.1 0-30.9-13.8-30.9-30.9l0 0c0-17.1 13.8-30.9 30.9-30.9h1.3c4.9 0 9.6 1.2 13.8 3.2 5 2.5 10.8-1.2 10.8-6.8v-39.4c0-12-9.7-21.8-21.8-21.8h-40.5c-5.8 0-9.5-6.2-6.6-11.2 2.6-4.5 4.1-9.8 4.1-15.4v-1.3c0-17.1-13.8-30.9-30.9-30.9l0 0c-17.1 0-30.9 13.8-30.9 30.9v1.3c0 5.6 1.5 10.8 4.1 15.4 2.9 5-0.8 11.2-6.6 11.2H31.8c-12 0-21.8 9.7-21.8 21.8v39.4c0 5.6 5.9 9.3 10.8 6.8 4.1-2.1 8.8-3.2 13.8-3.2h1.3c17.1 0 30.9 13.8 30.9 30.9l0 0c0 17.1-13.8 30.9-30.9 30.9h-1.3c-4.9 0-9.6-1.2-13.8-3.2C15.9 271.6 10 275.3 10 280.9v39.4c0 12 9.7 21.8 21.8 21.8h44.5 103.2c8.4 0 15.7-4.7 19.3-11.7 1.6-3 2.5-6.4 2.5-10.1v-39.4C201.2 275.2 195.3 271.5 190.4 274z" fill="#A5DC69"/>
  <rect x="244.9" y="24" width="48" height="148" class="a"/>
    <path d="M460.1 10h-95.4c-21.8 0-43 6.3-61.3 18.2l-10.5 6.9v126.7l22.1 15.3c20.6 14.3 45.2 22 70.3 22h13.2c18 0 32.6-14.6 32.6-32.6l0.3 3.5h27.9c11.5 0 20.8-9 20.8-20s-9.3-20-20.8-20h20.8c11.5 0 20.8-9 20.8-20s-9.3-20-20.8-20h0.8c11 0 20-9 20-20s-9-20-20-20h-20.8c11 0 20-9 20-20S471.1 10 460.1 10z" class="b"/>
    <path d="M50.8 502h34.5 17.3 43.7c21.8 0 43-6.3 61.3-18.2l10.5-6.9V350.2L195.9 334.9c-20.6-14.3-45.2-22-70.3-22h-13.2c-18 0-32.6 14.6-32.6 32.6l-0.3-3.5h-27.9c-11.5 0-20.8 9-20.8 20s9.3 20 20.8 20H30.8c-11.5 0-20.8 9-20.8 20s9.3 20 20.8 20H30c-11 0-20 9-20 20s9 20 20 20h20.8c-11 0-20 9-20 20S39.8 502 50.8 502z" class="b"/>
  <rect x="219.1" y="340" width="48" height="148" class="a"/>
  <path d="M244.9 69.2c2.6 0 5.2-1.1 7.1-2.9 1.9-1.9 2.9-4.4 2.9-7.1s-1.1-5.2-2.9-7.1c-1.9-1.9-4.4-2.9-7.1-2.9s-5.2 1.1-7.1 2.9c-1.9 1.9-2.9 4.4-2.9 7.1s1.1 5.2 2.9 7.1C239.7 68.1 242.3 69.2 244.9 69.2z"/>
  <path d="M488.9 161.2c1.4-3.5 2.2-7.3 2.2-11.2 0-3.9-0.8-7.6-2.2-11C502.2 135.6 512 123.9 512 110c0-7.9-3.2-15.1-8.3-20.5 4.5-5.2 7.2-12.1 7.2-19.5 0-14.1-9.8-25.9-22.9-29.1 1.3-3.4 2-7 2-10.9 0-16.5-13.5-30-30-30h-50.6 -1.1H365.8c-22.9 0-45.1 6.4-64.5 18.5 -1.8-2.7-4.9-4.5-8.3-4.5H10c-5.5 0-10 4.5-10 10v188c0 6.1 3.1 11.7 8.3 15 5.2 3.2 11.5 3.5 17 0.8 2.9-1.4 6-2.2 9.3-2.2h1.3c11.5 0 20.9 9.4 20.9 20.9s-9.4 20.9-20.9 20.9h-1.3c-3.3 0-6.4-0.7-9.3-2.2 -5.4-2.7-11.8-2.4-17 0.8C3.1 269.1 0 274.7 0 280.9v39.4c0 14.5 9.8 26.8 23.1 30.5 -1.4 3.5-2.2 7.3-2.2 11.2 0 3.9 0.8 7.6 2.2 11C9.8 376.4 0 388.1 0 402c0 7.6 2.9 14.6 7.8 19.9C2.9 427.2 0 434.3 0 442c0 14.1 9.8 25.9 22.9 29.1 -1.3 3.4-2 7-2 10.9 0 16.5 13.5 30 30 30h51.7 43.7c22.9 0 45.1-6.4 64.5-18.5 1.8 2.7 4.9 4.5 8.3 4.5H502c5.5 0 10-4.5 10-10v-148c0-0.1 0-0.1 0-0.2 0-0.1 0-0.3 0-0.4v-39.4c0-6.1-3.1-11.7-8.3-15 -5.2-3.2-11.5-3.5-17-0.8 -2.9 1.4-6 2.2-9.3 2.2h-1.3c-11.5 0-20.9-9.4-20.9-20.9s9.4-20.9 20.9-20.9h1.3c3.3 0 6.4 0.7 9.3 2.2 5.4 2.7 11.8 2.4 17-0.8 5.2-3.2 8.3-8.8 8.3-15v-39.4C512 177.3 502.2 165 488.9 161.2zM442.2 160v-20h18.2c6 0 10.8 4.5 10.8 10s-4.9 10-10.8 10h-6H442.2zM481.2 120h-20.8 -18.2v-20h38.7 0.3c6 0 10.8 4.5 10.8 10S487.1 120 481.2 120zM480.9 80h-72.6c-5.5 0-10-4.5-10-10s4.5-10 10-10h51.7 20.8c5.5 0 10 4.5 10 10S486.4 80 480.9 80zM409.4 20h50.6c5.5 0 10 4.5 10 10s-4.5 10-10 10h-51.7c-5.5 0-10-4.5-10-10s4.5-10 10-10C408.3 20 409.4 20 409.4 20zM365.8 20h14.3c-1.1 3.1-1.7 6.5-1.7 10 0 7.7 2.9 14.7 7.7 20 -4.8 5.3-7.7 12.3-7.7 20 0 11.9 7 22.2 17 27.1 -4.7 5.5-8.2 12.1-10.1 19.4 -9.3-11.5-22-20-36.7-24 -5.3-1.5-10.8 1.7-12.3 7s1.7 10.8 7 12.3c15.3 4.2 27.6 15 33.8 29.6l3.2 7.5c1.7 4 5.8 6.5 10.2 6.1 4.3-0.4 7.9-3.6 8.8-7.9l5.2-24.6c2-9.6 8.9-17.3 17.7-20.6v64.7c0 12.5-10.1 22.6-22.6 22.6h-13.2c-23.2 0-45.5-7-64.6-20.2l-18.9-13.1V41.2l7.1-4.6C326.6 25.7 345.9 20 365.8 20zM284.9 301.2h1.3c5.1 0 10-0.9 14.6-2.7v31.5h-81.7c-3 0-5.8 1.4-7.6 3.5l-2.5-1.7c1.4-3.7 2.2-7.6 2.2-11.6v-39.4c0-6.1-3.1-11.7-8.3-15 -5.2-3.2-11.5-3.5-17-0.8 -2.9 1.4-6 2.2-9.3 2.2h-1.3c-11.5 0-20.9-9.4-20.9-20.9s9.4-20.9 20.9-20.9h1.3c3.3 0 6.4 0.7 9.3 2.2 5.4 2.7 11.8 2.4 17-0.8 5.2-3.2 8.3-8.8 8.3-15v-30h81.7c3 0 5.8-1.4 7.6-3.5l2.5 1.7c-1.4 3.7-2.2 7.6-2.2 11.6v30.4c-4.6-1.8-9.5-2.7-14.6-2.7h-1.3c-22.5 0-40.9 18.3-40.9 40.9C244 282.9 262.4 301.2 284.9 301.2zM282.9 34v128H256V94.3c0-5.5-4.5-10-10-10s-10 4.5-10 10v67.6h-26.6c-4.4-12.3-16.1-21.2-29.9-21.2H143c2.3-5.2 3.5-10.9 3.5-16.6v-1.3c0-22.5-18.3-40.9-40.9-40.9s-40.9 18.3-40.9 40.9v1.3c0 5.7 1.2 11.4 3.5 16.6H31.8c-4.2 0-8.1 0.8-11.8 2.3V34H282.9zM20 284.6c4.6 1.8 9.5 2.7 14.6 2.7h1.3c22.5 0 40.9-18.3 40.9-40.9s-18.3-40.9-40.9-40.9h-1.3c-5.1 0-10 0.9-14.6 2.7v-35.7c0-6.5 5.3-11.8 11.8-11.8H72.2c6.3 0 12.1-3.4 15.2-8.8 3.2-5.5 3.2-12 0-17.4 -1.8-3.1-2.8-6.7-2.8-10.4v-1.3c0-11.5 9.4-20.9 20.9-20.9s20.9 9.4 20.9 20.9v1.3c0 3.7-1 7.2-2.8 10.4 -3.1 5.5-3.1 12 0 17.4 3.1 5.4 9 8.8 15.2 8.8h40.5c6.5 0 11.8 5.3 11.8 11.8v35.6c-4.6-1.8-9.5-2.7-14.6-2.7h-1.3c-22.5 0-40.9 18.3-40.9 40.9 0 22.5 18.3 40.9 40.9 40.9h1.3c5.1 0 10-0.9 14.6-2.7v35.6c-20-11.3-42.4-17.3-65.5-17.3h-13.2c-18.8 0-34.7 12.2-40.4 29.1H51.6h-19.9c-6.5 0-11.8-5.3-11.8-11.8C20 320.2 20 284.6 20 284.6zM40.8 362c0-5.5 4.9-10 10.8-10h18.2v20H51.6C45.7 372 40.8 367.5 40.8 362zM30.8 392h39v20H30.8c-6 0-10.8-4.5-10.8-10S24.9 392 30.8 392zM30 432h0.8 71.7c5.5 0 10 4.5 10 10s-4.5 10-10 10H50.8 30c-5.5 0-10-4.5-10-10S24.5 432 30 432zM40.8 482c0-5.5 4.5-10 10-10h51.7c5.5 0 10 4.5 10 10s-4.5 10-10 10H50.8C45.3 492 40.8 487.5 40.8 482zM146.2 492h-15.4c1.1-3.1 1.7-6.5 1.7-10 0-7.7-2.9-14.7-7.7-20 4.8-5.3 7.7-12.3 7.7-20 0-11.6-6.6-21.7-16.3-26.7 4.9-5.6 8.5-12.3 10.4-19.8 9.3 11.5 22 20 36.7 24 5.3 1.5 10.8-1.7 12.3-7 1.5-5.3-1.7-10.8-7-12.3 -15.3-4.2-27.6-15-33.8-29.6l-3.2-7.5c-1.7-4-5.8-6.5-10.2-6.1 -4.3 0.4-7.9 3.6-8.8 7.9l-5.2 24.6c-2 9.6-8.9 17.3-17.7 20.6v-64.7c0-12.5 10.1-22.6 22.6-22.6h13.2c23.2 0 45.5 7 64.6 20.2l18.9 13.1v114.6l-7.1 4.6C185.4 486.3 166.1 492 146.2 492zM229.1 478v-128h28v67.6c0 5.5 4.5 10 10 10s10-4.5 10-10v-67.6h25.5c4.4 12.3 16.1 21.2 29.9 21.2h36.5c-2.3 5.2-3.5 10.9-3.5 16.6v1.3c0 22.5 18.3 40.9 40.9 40.9s40.9-18.3 40.9-40.9v-1.3c0-5.7-1.2-11.4-3.5-16.6h36.5c4.2 0 8.1-0.8 11.8-2.3v109.1L229.1 478 229.1 478zM492 227.4c-4.6-1.8-9.5-2.7-14.6-2.7h-1.3c-22.5 0-40.9 18.3-40.9 40.9s18.3 40.9 40.9 40.9h1.3c5.1 0 10-0.9 14.6-2.7v35.7c0 6.5-5.3 11.8-11.8 11.8H439.8c-6.3 0-12.1 3.4-15.2 8.8 -3.2 5.5-3.2 12 0 17.4 1.8 3.1 2.8 6.7 2.8 10.4v1.3c0 11.5-9.4 20.9-20.9 20.9s-20.9-9.4-20.9-20.9v-1.3c0-3.6 1-7.2 2.8-10.4 3.1-5.5 3.1-12 0-17.4 -3.1-5.4-9-8.8-15.2-8.8h-40.5c-6.5 0-11.8-5.3-11.8-11.8v-44.6c0-6.1-3.1-11.7-8.3-15 -5.2-3.2-11.5-3.5-17-0.8 -2.9 1.4-6 2.2-9.3 2.2h-1.3c-11.5 0-20.9-9.4-20.9-20.9s9.4-20.9 20.9-20.9h1.3c3.3 0 6.4 0.7 9.3 2.2 5.4 2.7 11.8 2.4 17-0.8 5.2-3.2 8.3-8.8 8.3-15v-34.1c20 11.3 42.4 17.3 65.5 17.3h13.2c18.8 0 34.7-12.2 40.4-29.1h40.3c6.5 0 11.8 5.3 11.8 11.8v35.6H492z"/>
  <path d="M267.1 442.8c-2.6 0-5.2 1.1-7.1 2.9 -1.9 1.9-2.9 4.4-2.9 7.1s1.1 5.2 2.9 7.1c1.9 1.9 4.4 2.9 7.1 2.9 2.6 0 5.2-1.1 7.1-2.9 1.9-1.9 2.9-4.4 2.9-7.1s-1.1-5.2-2.9-7.1C272.3 443.9 269.7 442.8 267.1 442.8z"/>
</svg>
 
