<?xml version="1.0" encoding="iso-8859-1"?>
<!-- Generator: Adobe Illustrator 19.0.0, SVG Export Plug-In . SVG Version: 6.00 Build 0)  -->
<svg version="1.1" id="Capa_1" xmlns="http://www.w3.org/2000/svg" xmlns:xlink="http://www.w3.org/1999/xlink" x="0px" y="0px"
	 viewBox="0 0 512 512" style="enable-background:new 0 0 512 512;" xml:space="preserve">
<g>
	<g>
		<path d="M133.985,0.028C60.105,0.028,0,60.135,0,134.013s60.105,133.985,133.985,133.985s133.985-60.105,133.985-133.985
			S207.864,0.028,133.985,0.028z M133.984,248.001c-27.47-0.001-52.702-9.77-72.405-26.015
			c0.309-13.954,10.364-25.834,24.148-28.383l19.312-3.571c0.045-0.008,0.088-0.022,0.134-0.031l20.327,32.504
			c1.828,2.923,5.031,4.698,8.478,4.698s6.65-1.776,8.478-4.698l20.316-32.5c0.042,0.008,0.081,0.021,0.123,0.029l19.321,3.572
			c13.791,2.551,23.85,14.438,24.15,28.401C186.665,238.24,161.443,248.001,133.984,248.001z M112.163,112.706
			c13.979,0,27.287-5.092,37.604-14.194l16.882,9.918v12.404c0,18.019-14.658,32.677-32.676,32.677
			c-18.019,0-32.677-14.658-32.677-32.677v-8.127h0.001H112.163z M101.296,92.709v-0.274c0-18.018,14.658-32.676,32.677-32.676
			c15.351,0,28.264,10.642,31.749,24.934l-12.558-7.377c-4.211-2.474-9.592-1.544-12.728,2.199
			c-7.028,8.386-17.333,13.194-28.274,13.194H101.296z M146.016,179.08l-12.042,19.263l-12.052-19.272
			c1.337-1.94,2.406-4.068,3.185-6.324c2.885,0.491,5.843,0.761,8.865,0.761c3.019,0,5.974-0.269,8.855-0.759
			C143.608,175.007,144.678,177.137,146.016,179.08z M223.116,204.98c-6.019-15.748-19.872-27.825-37.265-31.039l-19.321-3.572
			c-2.331-0.432-4.383-2.376-4.954-4.696c15.03-9.287,25.07-25.91,25.07-44.839v-28.4c0-29.045-23.629-52.674-52.674-52.674
			c-29.045,0-52.675,23.629-52.675,52.674v28.399c0,18.925,10.037,35.545,25.062,44.833c-0.573,2.333-2.62,4.271-4.956,4.702
			l-19.313,3.571c-17.385,3.215-31.232,15.281-37.255,31.019c-15.537-19.482-24.838-44.146-24.838-70.945
			c0-62.852,51.135-113.987,113.987-113.987s113.987,51.135,113.987,113.987C247.971,160.822,238.663,185.494,223.116,204.98z"/>
	</g>
</g>
<g>
	<g>
		<path d="M378.015,244.002c-73.879,0-133.984,60.105-133.984,133.985s60.105,133.985,133.984,133.985S512,451.866,512,377.987
			S451.894,244.002,378.015,244.002z M378.015,491.973c-27.463,0.001-52.688-9.762-72.388-25.999
			c0.415-13.852,10.437-25.613,24.143-28.147l19.313-3.571c0.045-0.008,0.088-0.022,0.133-0.031l20.326,32.503
			c1.827,2.923,5.031,4.698,8.478,4.698s6.65-1.776,8.478-4.698l20.317-32.501c0.042,0.008,0.081,0.021,0.123,0.028l19.322,3.573
			c13.706,2.534,23.728,14.293,24.144,28.145C430.703,482.209,405.478,491.973,378.015,491.973z M356.206,356.93
			c13.98,0,27.288-5.092,37.603-14.195l16.883,9.919v12.404c0,18.018-14.658,32.676-32.677,32.676
			c-18.018,0-32.676-14.658-32.676-32.676v-8.127h0.001H356.206z M345.339,336.933v-0.274c0-18.018,14.658-32.676,32.676-32.676
			c15.351,0,28.265,10.641,31.75,24.934l-12.559-7.378c-4.21-2.475-9.593-1.545-12.729,2.199
			c-7.026,8.386-17.331,13.195-28.272,13.195H345.339z M390.06,423.304l-12.042,19.263l-12.052-19.273
			c1.335-1.94,2.404-4.068,3.184-6.324c2.885,0.491,5.843,0.761,8.865,0.761c3.019,0,5.974-0.269,8.855-0.759
			C387.651,419.231,388.721,421.361,390.06,423.304z M467.088,449.026c-6.053-15.662-19.866-27.659-37.194-30.861l-19.322-3.574
			c-2.33-0.43-4.382-2.377-4.954-4.695c15.03-9.287,25.071-25.909,25.071-44.838v-28.399c0-29.045-23.63-52.674-52.675-52.674
			c-29.045,0-52.674,23.629-52.674,52.674v28.399c0,18.925,10.037,35.544,25.061,44.832c-0.572,2.332-2.619,4.272-4.955,4.703
			l-19.313,3.571c-17.327,3.204-31.138,15.201-37.194,30.862c-15.581-19.498-24.913-44.197-24.913-71.038
			c0-62.852,51.135-113.987,113.987-113.987S492,315.136,492,377.988C492,404.829,482.669,429.528,467.088,449.026z"/>
	</g>
</g>
<g>
	<g>
		<path d="M455.018,217.053c-1.859-1.86-4.439-2.92-7.068-2.92s-5.209,1.06-7.069,2.92c-1.86,1.87-2.93,4.449-2.93,7.079
			s1.069,5.199,2.93,7.069c1.86,1.859,4.439,2.93,7.069,2.93s5.209-1.07,7.068-2.93c1.86-1.87,2.931-4.44,2.931-7.069
			S456.878,218.923,455.018,217.053z"/>
	</g>
</g>
<g>
	<g>
		<path d="M447.949,54.022H313.292l0.076-0.076c3.905-3.905,3.905-10.236,0-14.141c-3.906-3.904-10.235-3.904-14.141,0
			L282.081,56.95c-3.905,3.905-3.905,10.236,0,14.141l17.146,17.146c1.953,1.952,4.511,2.929,7.07,2.929
			c2.559,0,5.117-0.977,7.07-2.929c3.905-3.905,3.905-10.236,0-14.141l-0.076-0.076h124.659v112.987
			c0,5.521,4.477,9.999,9.999,9.999s9.999-4.477,9.999-9.999V64.021C457.948,58.5,453.471,54.022,447.949,54.022z"/>
	</g>
</g>
<g>
	<g>
		<path d="M417.352,179.938c-1.859-1.86-4.438-2.93-7.068-2.93s-5.209,1.069-7.069,2.93s-2.93,4.439-2.93,7.069
			c0,2.63,1.069,5.209,2.93,7.068c1.86,1.86,4.44,2.931,7.069,2.931c2.64,0,5.209-1.07,7.068-2.931
			c1.86-1.859,2.931-4.438,2.931-7.068C420.283,184.377,419.213,181.798,417.352,179.938z"/>
	</g>
</g>
<g>
	<g>
		<path d="M417.352,139.942c-1.859-1.86-4.429-2.93-7.068-2.93c-2.63,0-5.199,1.069-7.069,2.93c-1.86,1.86-2.93,4.44-2.93,7.069
			s1.069,5.209,2.93,7.068c1.87,1.86,4.45,2.931,7.069,2.931c2.63,0,5.209-1.07,7.068-2.931c1.87-1.859,2.931-4.438,2.931-7.068
			S419.223,141.802,417.352,139.942z"/>
	</g>
</g>
<g>
	<g>
		<path d="M417.352,99.947c-1.859-1.86-4.438-2.93-7.068-2.93s-5.209,1.069-7.069,2.93s-2.93,4.44-2.93,7.069
			s1.069,5.209,2.93,7.068c1.86,1.86,4.44,2.931,7.069,2.931s5.209-1.07,7.068-2.931c1.87-1.859,2.931-4.438,2.931-7.068
			S419.223,101.807,417.352,99.947z"/>
	</g>
</g>
<g>
	<g>
		<path d="M71.062,278.926c-1.859-1.86-4.439-2.93-7.068-2.93c-2.63,0-5.209,1.07-7.069,2.93s-2.93,4.44-2.93,7.069
			s1.069,5.209,2.93,7.068c1.86,1.86,4.44,2.931,7.069,2.931c2.63,0,5.209-1.07,7.068-2.931c1.86-1.859,2.931-4.438,2.931-7.068
			S72.923,280.786,71.062,278.926z"/>
	</g>
</g>
<g>
	<g>
		<path d="M229.861,440.908l-17.145-17.146c-3.906-3.904-10.235-3.904-14.141,0c-3.905,3.905-3.905,10.236,0,14.141l0.076,0.076
			H73.992V324.992c0-5.521-4.477-9.999-9.999-9.999c-5.521,0-9.999,4.477-9.999,9.999v122.986c0,5.521,4.477,9.999,9.999,9.999
			h134.658l-0.076,0.076c-3.905,3.905-3.905,10.236,0,14.141c1.953,1.952,4.511,2.929,7.07,2.929c2.559,0,5.117-0.977,7.07-2.929
			l17.145-17.145C233.765,451.144,233.765,444.813,229.861,440.908z"/>
	</g>
</g>
<g>
	<g>
		<path d="M108.728,317.922c-1.86-1.86-4.439-2.93-7.069-2.93c-2.64,0-5.209,1.069-7.069,2.93c-1.87,1.86-2.93,4.44-2.93,7.069
			s1.06,5.209,2.93,7.068c1.86,1.86,4.44,2.931,7.069,2.931s5.199-1.07,7.069-2.931c1.859-1.859,2.93-4.438,2.93-7.068
			S110.588,319.782,108.728,317.922z"/>
	</g>
</g>
<g>
	<g>
		<path d="M108.728,357.917c-1.87-1.86-4.439-2.93-7.069-2.93s-5.209,1.069-7.069,2.93c-1.87,1.86-2.93,4.44-2.93,7.069
			s1.06,5.209,2.93,7.068c1.86,1.86,4.43,2.931,7.069,2.931c2.63,0,5.199-1.07,7.069-2.931c1.859-1.859,2.93-4.438,2.93-7.068
			S110.588,359.777,108.728,357.917z"/>
	</g>
</g>
<g>
	<g>
		<path d="M108.728,397.913c-1.86-1.86-4.439-2.93-7.069-2.93c-2.64,0-5.209,1.069-7.069,2.93c-1.87,1.86-2.93,4.44-2.93,7.069
			s1.06,5.209,2.93,7.068c1.86,1.86,4.43,2.931,7.069,2.931c2.63,0,5.209-1.07,7.069-2.931c1.859-1.859,2.93-4.438,2.93-7.068
			S110.588,399.772,108.728,397.913z"/>
	</g>
</g>
<g>
</g>
<g>
</g>
<g>
</g>
<g>
</g>
<g>
</g>
<g>
</g>
<g>
</g>
<g>
</g>
<g>
</g>
<g>
</g>
<g>
</g>
<g>
</g>
<g>
</g>
<g>
</g>
<g>
</g>
</svg>
