<?xml version="1.0" encoding="iso-8859-1"?>
<!-- Generator: Adobe Illustrator 19.0.0, SVG Export Plug-In . SVG Version: 6.00 Build 0)  -->
<svg version="1.1" id="Capa_1" xmlns="http://www.w3.org/2000/svg" xmlns:xlink="http://www.w3.org/1999/xlink" x="0px" y="0px"
	 viewBox="0 0 512 512" style="enable-background:new 0 0 512 512;" xml:space="preserve">
<path style="fill:#695A6E;" d="M103.372,509.196c13.329,0,24.135-10.806,24.135-24.135V292.153
	c0-13.329-10.806-24.135-24.135-24.135s-24.135,10.806-24.135,24.135v192.909C79.238,498.391,90.043,509.196,103.372,509.196z"/>
<path style="fill:#87A0AF;" d="M498.127,266.525H146.361c-7.662,0-13.873-6.211-13.873-13.873V24.97
	c0-7.662,6.211-13.873,13.873-13.873h351.767c7.662,0,13.873,6.211,13.873,13.873v227.682
	C512,260.313,505.789,266.525,498.127,266.525z"/>
<path style="fill:#50374B;" d="M161.633,509.196c13.329,0,24.135-10.806,24.135-24.135V292.153
	c0-13.329-10.806-24.135-24.135-24.135c-13.329,0-24.135,10.806-24.135,24.135v192.909
	C137.498,498.391,148.304,509.196,161.633,509.196z"/>
<path style="fill:#414B82;" d="M185.593,140.804v-20.447c0-11.794-9.562-21.356-21.356-21.356H79.506
	c-20.444-0.086-39.313,11.864-48.056,30.36L1.921,191.826c-3.284,6.945-2.344,15.301,2.786,21.423
	c2.931,3.497,7.056,5.781,11.516,6.742l63.014,13.577v58.584h106.529V143.261C185.657,142.447,185.593,141.628,185.593,140.804z
	 M79.238,192.696l-30.432-6.557l18.768-39.7c2.099-4.44,6.546-7.353,11.429-7.547v0.334h0.234V192.696z"/>
<circle style="fill:#BA6746;" cx="132.515" cy="44.487" r="41.683"/>
<path style="fill:#838387;" d="M79.238,192.696l-30.432-6.558L79.238,192.696z"/>
<path style="fill:#414B82;" d="M116.354,221.251c2.324-10.786-4.536-21.414-15.322-23.738l-76.841-16.557
	c-10.79-2.327-21.415,4.536-23.739,15.322c-2.324,10.786,4.536,21.414,15.322,23.738l76.841,16.557
	C103.448,238.907,114.04,231.992,116.354,221.251z"/>
<path style="fill:#BA6746;" d="M101.033,197.513c10.786,2.324,17.646,12.951,15.322,23.738
	c-2.314,10.74-12.907,17.655-23.739,15.322L101.033,197.513z"/>
<rect x="86.913" y="195.999" transform="matrix(0.9776 0.2106 -0.2106 0.9776 47.545 -14.5139)" style="fill:#FFFFFF;" width="10.012" height="39.957"/>
<path style="fill:#FFFFFF;" d="M276.197,128.467c-0.311,0-0.624-0.018-0.941-0.055c-4.362-0.513-7.484-4.467-6.969-8.831
	l4.372-37.122c0.514-4.363,4.462-7.486,8.831-6.969c4.362,0.513,7.484,4.467,6.969,8.831l-4.372,37.122
	C283.611,125.489,280.175,128.467,276.197,128.467z"/>
<path style="fill:#323E6D;" d="M279.813,104.619c-9.846-5.81-22.538-2.541-28.351,7.306l-30.206,51.18l-9.26-30.62
	c-6.071-20.079-24.245-33.569-45.222-33.569c-1.386,0.003-34.661,0.087-34.661,0.087h-37.58h-0.217h38.187v193.151h53.265v-66.918
	c0.028,0.028,0.057,0.053,0.084,0.082v-36.254l9.434,31.195c2.379,7.866,9.184,13.579,17.342,14.561
	c8.131,0.982,16.114-2.937,20.301-10.031l54.191-91.816C292.931,123.123,289.66,110.43,279.813,104.619z"/>
<path style="fill:#BA6746;" d="M279.813,104.619c-9.846-5.81-22.538-2.541-28.351,7.306l35.656,21.045
	C292.931,123.123,289.66,110.43,279.813,104.619z"/>
<polygon style="fill:#FFFFFF;" points="132.492,99.001 101.785,99.001 132.492,179.579 163.23,98.923 "/>
<path style="fill:#82BE50;" d="M145.818,126.554l-6.836-12.432l5.932-10.789c1.069-1.945-0.339-4.332-2.561-4.332h-19.72
	c-2.219,0-3.632,2.384-2.561,4.332l5.932,10.789l-6.836,12.432c-0.942,1.713-1.248,3.704-0.865,5.62l3.592,19.593l10.599,27.811
	l10.599-27.811l3.592-19.593C147.066,130.257,146.759,128.267,145.818,126.554z"/>
<path style="fill:#51946F;" d="M142.361,98.976c2.219,0,3.623,2.409,2.553,4.357l-5.932,10.789l6.836,12.432
	c0.942,1.713,1.248,3.704,0.865,5.62l-3.592,19.593l-10.599,27.811V99.001L142.361,98.976z"/>
<g>
	<rect x="149.326" y="164.821" style="fill:#FFFFFF;" width="23.837" height="6.952"/>
	<path style="fill:#FFFFFF;" d="M251.464,111.925l-5.102,8.644l35.711,20.951l5.046-8.55c0.025-0.042-0.024,0.043,0,0
		L251.464,111.925z"/>
</g>
<g>
</g>
<g>
</g>
<g>
</g>
<g>
</g>
<g>
</g>
<g>
</g>
<g>
</g>
<g>
</g>
<g>
</g>
<g>
</g>
<g>
</g>
<g>
</g>
<g>
</g>
<g>
</g>
<g>
</g>
</svg>
