<?xml version="1.0" encoding="iso-8859-1"?>
<!-- Generator: Adobe Illustrator 16.0.0, SVG Export Plug-In . SVG Version: 6.00 Build 0)  -->
<!DOCTYPE svg PUBLIC "-//W3C//DTD SVG 1.1//EN" "http://www.w3.org/Graphics/SVG/1.1/DTD/svg11.dtd">
<svg version="1.1" id="Capa_1" xmlns="http://www.w3.org/2000/svg" xmlns:xlink="http://www.w3.org/1999/xlink" x="0px" y="0px"
	 width="32.079px" height="32.079px" viewBox="0 0 32.079 32.079" style="enable-background:new 0 0 32.079 32.079;"
	 xml:space="preserve">
<g>
	<g>
		<path d="M3.355,25.615c0.26,0,0.766,0,1.711,0c0.018,0,0.036,0,0.056,0c0.946,0,1.451,0,1.71,0c0.403-0.401,0.73-0.79,0.997-1.161
			l0,0c0.053,0.002,0.12,0.003,0.198,0.003c0.572,0,1.706-0.08,1.815-0.71c0.025-0.14,0.744-2.043,0.214-2.521
			c-0.168-0.152-0.867-0.156-0.991-0.098c0.004-0.025,0.007-0.051,0.01-0.072c0.084-0.479-0.349-0.627-0.644-0.646
			c-0.1-0.006-0.887-0.014-1.888-0.02c0.038,0.102,0.052,0.207,0.035,0.309c-0.021,0.119-0.072,0.261-0.129,0.391l0.365,0.129
			c0.124,0.043,0.183,0.193,0.133,0.333l-0.436,1.229C6.462,22.921,6.322,23,6.198,22.956l-1.076-0.38
			c-0.123-0.044-0.183-0.193-0.133-0.333l0.435-1.229c0.05-0.14,0.189-0.219,0.313-0.175l0.419,0.149
			c0.054-0.12,0.101-0.245,0.118-0.342c0.017-0.099-0.025-0.189-0.078-0.26c-0.16,0-0.324,0-0.49-0.002H5.552c0,0,0,0,0-0.001
			c-0.143,0-0.286-0.001-0.43-0.002c-0.009,0-0.019,0-0.028,0c-0.01,0-0.018,0-0.028,0c-1.584,0.009-3.167,0.021-3.311,0.028
			c-0.293,0.02-0.728,0.168-0.644,0.646C1.201,21.57,1.153,23.425,3.355,25.615z M8.992,21.723c0.152-0.121,0.681-0.223,0.757-0.154
			c0.296,0.268-0.327,1.918-0.359,2.1c-0.03,0.167-0.604,0.311-1.255,0.326C8.705,23.064,8.904,22.271,8.992,21.723z"/>
		<path d="M5.618,21.369l-0.283,0.796c-0.032,0.091,0.006,0.188,0.086,0.216l0.699,0.247c0.079,0.028,0.17-0.022,0.203-0.112
			l0.282-0.798c0.033-0.091-0.007-0.188-0.086-0.216l-0.697-0.247C5.741,21.227,5.65,21.275,5.618,21.369z"/>
		<path d="M30.777,26.496v-0.439h-0.762l-0.14-2.485l-0.415,0.161c-0.555,0.219-1.107,0.353-1.67,0.41l-0.777-7.033
			c0.125-0.914,0.287-2.309,0.35-3.737c0.105-2.445,0.472-10.206-6.568-10.206c-7.042,0-6.847,6.48-6.847,6.48l0.513,8.406
			l-0.637,6.114c-0.704-0.025-1.386-0.165-2.077-0.434l-0.415-0.162l-0.138,2.484h-0.796v0.44H9.08
			c0.104-0.069,0.178-0.183,0.178-0.318c0-0.213-0.174-0.387-0.388-0.387H1.078c-0.214,0-0.388,0.174-0.388,0.387
			c0,0.136,0.073,0.25,0.178,0.318H0v2.418h17.025h7.973h7.081v-2.417H30.777z M29.352,25.732h-8.414
			c0.041-0.59,0.235-1.815,1.164-1.928c0.463-0.057,1.056,0.141,1.767,0.37c0.894,0.288,2.006,0.647,3.286,0.647
			c0.727,0,1.426-0.112,2.127-0.34L29.352,25.732z M24.389,23.664c0.109-0.71,0.314-2,0.547-3.348l0.502,3.645
			C25.068,23.873,24.723,23.77,24.389,23.664z M15.358,8.842c1.53-0.104,6.813-0.584,6.949-2.293
			c0.504,0.928,3.17,3.266,4.229,3.419c-0.239,2.338-1.913,4.25-4.127,4.845v1.958h0.01l0.709,0.338l-2.229,4.017l-2.183-4.142
			l0.558-0.139v-2.089c-2.287-0.713-3.944-2.845-3.944-5.364C15.33,9.208,15.34,9.023,15.358,8.842z M17.34,23.499
			c-0.066,0.021-0.129,0.041-0.197,0.063c-0.304,0.098-0.625,0.195-0.957,0.287l0.381-2.938C16.86,21.902,17.145,22.85,17.34,23.499
			z M11.928,24.482c0.701,0.229,1.401,0.34,2.127,0.34c1.28,0,2.392-0.359,3.285-0.646c0.712-0.229,1.305-0.426,1.768-0.371
			c0.924,0.111,1.123,1.338,1.164,1.928h-8.414L11.928,24.482z"/>
	</g>
</g>
<g>
</g>
<g>
</g>
<g>
</g>
<g>
</g>
<g>
</g>
<g>
</g>
<g>
</g>
<g>
</g>
<g>
</g>
<g>
</g>
<g>
</g>
<g>
</g>
<g>
</g>
<g>
</g>
<g>
</g>
</svg>
