<?xml version="1.0" encoding="iso-8859-1"?>
<!-- Generator: Adobe Illustrator 19.0.0, SVG Export Plug-In . SVG Version: 6.00 Build 0)  -->
<svg version="1.1" id="Capa_1" xmlns="http://www.w3.org/2000/svg" xmlns:xlink="http://www.w3.org/1999/xlink" x="0px" y="0px"
	 viewBox="0 0 512.001 512.001" style="enable-background:new 0 0 512.001 512.001;" xml:space="preserve">
<g>
	<g>
		<path d="M130.773,281.991l-17.351-3.208c-1.473-0.272-2.849-1.403-3.425-2.776c13.411-8.596,22.325-23.622,22.325-40.701v-25.501
			c0-26.645-21.677-48.321-48.321-48.321c-26.644,0-48.321,21.677-48.321,48.321v25.501c0,17.075,8.91,32.099,22.317,40.696
			c-0.266,0.636-0.665,1.204-1.173,1.662c-0.373,0.215-0.737,0.453-1.088,0.721c-0.366,0.177-0.75,0.323-1.165,0.4l-17.343,3.206
			C15.656,285.978,0,304.793,0,326.73v13.79c0,5.522,4.477,10,10,10h148c5.523,0,10-4.478,10-10V326.73
			C168,304.793,152.343,285.978,130.773,281.991z M84,181.482c12.421,0,23,8.037,26.81,19.185l-9.058-5.322
			c-4.213-2.474-9.594-1.544-12.73,2.199c-6.116,7.298-15.085,11.484-24.606,11.484H55.69C56.102,193.77,68.643,181.482,84,181.482z
			 M55.679,235.304v-6.276h8.736c12.554,0,24.515-4.483,33.884-12.516l14.022,8.239v10.553c0,15.617-12.705,28.322-28.321,28.322
			C68.384,263.626,55.679,250.921,55.679,235.304z M93.057,286.745l-9.054,11.298l-9.064-11.306
			c0.688-1.164,1.277-2.388,1.767-3.661c2.379,0.362,4.815,0.551,7.294,0.551c2.476,0,4.908-0.189,7.285-0.55
			C91.777,284.352,92.368,285.579,93.057,286.745z M20,330.52v-3.79c0-12.293,8.774-22.839,20.862-25.074l17.344-3.206
			c0.14-0.026,0.273-0.067,0.412-0.095l17.584,21.933c1.898,2.368,4.769,3.745,7.803,3.745s5.905-1.379,7.802-3.746l17.575-21.931
			c0.136,0.028,0.266,0.068,0.403,0.093l17.351,3.208c12.089,2.235,20.863,12.78,20.863,25.074v3.789H20z"/>
	</g>
</g>
<g>
	<g>
		<g>
			<path d="M230.123,114.52C216.716,105.923,229.857,115.155,230.123,114.52L230.123,114.52z"/>
			<path d="M302.899,120.508l-17.351-3.208c-1.474-0.273-2.849-1.402-3.425-2.776c13.411-8.596,22.325-23.622,22.325-40.7V48.322
				c0-26.644-21.677-48.321-48.321-48.321s-48.321,21.677-48.321,48.321v1.695v23.807c0,17.075,8.91,32.099,22.317,40.696
				c-0.577,1.381-1.949,2.507-3.427,2.781l-17.343,3.207c-21.57,3.988-37.226,22.805-37.226,44.741v13.79c0,5.523,4.477,10,10,10
				h148c5.523,0,10-4.477,10-10v-13.79C340.127,143.313,324.471,124.496,302.899,120.508z M256.127,20.001
				c12.421,0,23,8.037,26.81,19.185l-9.058-5.322c-4.212-2.474-9.594-1.545-12.73,2.199c-6.116,7.298-15.085,11.484-24.606,11.484
				h-8.726C228.229,32.288,240.77,20.001,256.127,20.001z M227.806,73.824v-6.277h8.736c12.554,0,24.515-4.483,33.884-12.516
				l14.022,8.239v10.554c0,15.615-12.705,28.321-28.321,28.321C240.511,102.146,227.806,89.441,227.806,73.824z M265.184,125.264
				l-9.054,11.298l-9.064-11.306c0.688-1.164,1.277-2.389,1.768-3.661c2.379,0.362,4.815,0.551,7.293,0.551
				c2.476,0,4.908-0.189,7.285-0.55C263.904,122.871,264.495,124.098,265.184,125.264z M320.127,169.038h-128v-3.79
				c0-12.294,8.774-22.839,20.863-25.074l17.342-3.207c0.14-0.026,0.274-0.067,0.413-0.095l17.584,21.934
				c1.898,2.368,4.769,3.746,7.803,3.745c3.034-0.001,5.905-1.378,7.803-3.747l17.574-21.93c0.136,0.027,0.267,0.068,0.404,0.093
				l17.351,3.208c12.089,2.234,20.863,12.78,20.863,25.073V169.038z"/>
		</g>
	</g>
</g>
<g>
	<g>
		<path d="M302.9,443.472l-17.351-3.208c-1.473-0.272-2.849-1.402-3.425-2.776c13.411-8.596,22.325-23.622,22.325-40.7v-25.502
			c0-26.645-21.677-48.321-48.321-48.321c-26.644,0-48.321,21.677-48.321,48.321v25.502c0,17.075,8.91,32.099,22.317,40.696
			c-0.578,1.382-1.948,2.507-3.427,2.781l-17.343,3.207c-21.57,3.988-37.226,22.805-37.226,44.74v13.789c0,5.522,4.477,10,10,10h148
			c5.523,0,10-4.478,10-10v-13.789C340.127,466.275,324.47,447.459,302.9,443.472z M256.127,342.964c12.421,0,23,8.037,26.81,19.185
			l-9.058-5.321c-4.212-2.476-9.594-1.544-12.73,2.199c-6.116,7.298-15.085,11.483-24.606,11.483h-8.726
			C228.229,355.249,240.77,342.964,256.127,342.964z M227.806,396.787v-6.277h8.736c12.554,0,24.515-4.482,33.883-12.516
			l14.023,8.239v10.554c0,15.616-12.705,28.321-28.321,28.321C240.511,425.108,227.806,412.402,227.806,396.787z M265.184,448.227
			l-9.054,11.298l-9.064-11.306c0.688-1.164,1.277-2.389,1.768-3.661c2.379,0.362,4.815,0.551,7.293,0.551
			c2.476,0,4.908-0.189,7.285-0.55C263.904,445.834,264.495,447.061,265.184,448.227z M320.127,492.001L320.127,492.001h-128v-3.79
			c0-12.293,8.774-22.839,20.863-25.074l17.342-3.207c0.14-0.026,0.273-0.067,0.413-0.095l17.585,21.934
			c1.898,2.368,4.769,3.745,7.803,3.745c3.034,0,5.905-1.379,7.802-3.746l17.575-21.931c0.136,0.028,0.266,0.068,0.403,0.093
			l17.351,3.208c12.089,2.235,20.863,12.78,20.863,25.074V492.001z"/>
	</g>
</g>
<g>
	<g>
		<path d="M474.773,281.99l-17.351-3.208c-1.473-0.272-2.849-1.403-3.425-2.776c13.411-8.596,22.325-23.622,22.325-40.701v-25.501
			c0-26.645-21.677-48.321-48.321-48.321s-48.321,21.677-48.321,48.321v25.501c0,17.075,8.91,32.099,22.317,40.696
			c-0.577,1.381-1.948,2.508-3.427,2.782l-17.343,3.206c-21.57,3.988-37.226,22.805-37.226,44.74v13.79c0,5.522,4.477,10,10,10h148
			c5.523,0,10-4.478,10-10V326.73C512,304.793,496.343,285.978,474.773,281.99z M428,181.482c12.421,0,23,8.037,26.81,19.185
			l-9.058-5.322c-4.212-2.474-9.594-1.544-12.73,2.199c-6.116,7.298-15.085,11.484-24.606,11.484h-8.726
			C400.102,193.77,412.643,181.482,428,181.482z M399.679,235.304v-6.276h8.736c12.554,0,24.515-4.483,33.884-12.516l14.022,8.239
			v10.553c0,15.617-12.705,28.322-28.321,28.322C412.384,263.626,399.679,250.921,399.679,235.304z M437.057,286.745l-9.054,11.298
			l-9.064-11.306c0.688-1.164,1.277-2.388,1.767-3.661c2.379,0.362,4.815,0.551,7.294,0.551c2.476,0,4.908-0.189,7.285-0.55
			C435.777,284.352,436.368,285.579,437.057,286.745z M364,330.52v-3.79c0-12.293,8.774-22.839,20.862-25.074l17.344-3.206
			c0.14-0.026,0.273-0.067,0.412-0.095l17.584,21.933c1.898,2.368,4.769,3.745,7.803,3.745s5.905-1.379,7.802-3.746l17.575-21.931
			c0.136,0.028,0.266,0.068,0.403,0.093l17.351,3.208c12.089,2.235,20.863,12.78,20.863,25.074v3.789H364z"/>
	</g>
</g>
<g>
	<g>
		<path d="M414.358,365.056c-4.377-3.368-10.656-2.549-14.023,1.829l-0.232,0.3c-3.391,4.359-2.605,10.643,1.754,14.033
			c1.825,1.42,3.986,2.106,6.132,2.106c2.98,0,5.929-1.326,7.9-3.86l0.298-0.386C419.554,374.701,418.735,368.423,414.358,365.056z"
			/>
	</g>
</g>
<g>
	<g>
		<path d="M391.669,392.224c-3.689-4.108-10.012-4.449-14.121-0.758c-12.982,11.657-27.519,21.367-43.204,28.859
			c-4.983,2.38-7.094,8.35-4.713,13.334c1.716,3.593,5.298,5.691,9.03,5.691c1.445,0,2.913-0.314,4.303-0.979
			c17.41-8.315,33.541-19.091,47.946-32.025C395.019,402.657,395.359,396.333,391.669,392.224z"/>
	</g>
</g>
<g>
	<g>
		<path d="M177.101,420.058c-27.062-13.039-50.728-32.815-68.44-57.192c-3.246-4.467-9.499-5.459-13.968-2.212
			c-4.468,3.246-5.458,9.5-2.211,13.968c19.649,27.043,45.909,48.985,75.938,63.454c1.399,0.674,2.878,0.993,4.333,0.993
			c3.721,0,7.293-2.085,9.016-5.661C184.166,428.431,182.076,422.456,177.101,420.058z"/>
	</g>
</g>
<g>
	<g>
		<path d="M112.537,128.027c-3.819-3.077-10.156-3.312-14.153,1.624c-3.996,4.934-2.448,11.085,1.358,14.18
			c1.747,1.421,4.026,2.244,6.371,2.244c2.763,0,5.615-1.145,7.789-3.805c0.019-0.023,0.038-0.046,0.056-0.069
			C117.932,137.247,116.355,131.104,112.537,128.027z"/>
	</g>
</g>
<g>
	<g>
		<path d="M188.612,75.879c-2.204-5.064-8.099-7.384-13.16-5.178c-16.959,7.381-32.846,17.082-47.218,28.83
			c-4.276,3.495-4.909,9.795-1.413,14.071c1.978,2.42,4.852,3.672,7.749,3.672c2.226,0,4.465-0.74,6.323-2.258
			c12.952-10.587,27.265-19.327,42.541-25.977C188.498,86.835,190.816,80.943,188.612,75.879z"/>
	</g>
</g>
<g>
	<g>
		<path d="M421.279,139.84c-23.104-32.817-55.021-57.8-92.297-72.25c-5.151-1.996-10.942,0.561-12.938,5.71
			c-1.997,5.15,0.56,10.943,5.709,12.939c33.586,13.018,62.346,35.535,83.172,65.115c1.947,2.766,5.042,4.244,8.186,4.244
			c1.989,0,3.998-0.592,5.748-1.824C423.375,150.595,424.458,144.356,421.279,139.84z"/>
	</g>
</g>
<g>
</g>
<g>
</g>
<g>
</g>
<g>
</g>
<g>
</g>
<g>
</g>
<g>
</g>
<g>
</g>
<g>
</g>
<g>
</g>
<g>
</g>
<g>
</g>
<g>
</g>
<g>
</g>
<g>
</g>
</svg>
