<?xml version="1.0" encoding="iso-8859-1"?>
<!-- Generator: Adobe Illustrator 19.0.0, SVG Export Plug-In . SVG Version: 6.00 Build 0)  -->
<svg version="1.1" id="Capa_1" xmlns="http://www.w3.org/2000/svg" xmlns:xlink="http://www.w3.org/1999/xlink" x="0px" y="0px"
	 viewBox="0 0 512.001 512.001" style="enable-background:new 0 0 512.001 512.001;" xml:space="preserve">
<g>
	<g>
		<path d="M256.001,372.001c-20.953,0-38,17.047-38,38s17.047,38,38,38s38-17.047,38-38S276.955,372.001,256.001,372.001z
			 M256.001,428.001c-9.925,0-18-8.075-18-18s8.075-18,18-18s18,8.075,18,18S265.926,428.001,256.001,428.001z"/>
	</g>
</g>
<g>
	<g>
		<path d="M256.001,75.2c-49.202,0-89.229,40.028-89.229,89.229v53.677c0.001,49.201,40.028,89.229,89.229,89.229
			s89.229-40.028,89.229-89.229v-53.677C345.23,115.228,305.203,75.2,256.001,75.2z M325.229,218.105
			c0,38.173-31.056,69.229-69.229,69.229c-38.173,0-69.229-31.056-69.229-69.229v-24.237h0.002h18.73
			c24.591,0,47.934-11.19,63.445-29.841l6.038,5.931c13.727,13.483,31.327,21.667,50.243,23.51V218.105z M325.23,173.325
			c-13.63-1.758-26.271-7.855-36.228-17.635l-14.39-14.134c-2.187-2.147-5.232-3.172-8.276-2.785
			c-3.039,0.389-5.732,2.149-7.309,4.778c-11.211,18.702-31.72,30.32-53.524,30.32h-18.73v-9.439
			c0-38.174,31.056-69.23,69.228-69.23c38.173,0,69.229,31.056,69.229,69.229V173.325z"/>
	</g>
</g>
<g>
	<g>
		<path d="M478.069,492.001h-20.11v-75.266c0-34.488-22.938-64.896-55.952-74.479c-9.791-20.252-30.543-34.255-54.504-34.255H164.5
			c-23.962,0-44.713,14.003-54.504,34.255c-33.014,9.583-55.952,39.991-55.952,74.479v75.266h-20.11c-5.522,0-10,4.477-10,10
			s4.478,10,10,10h444.135c5.522,0,10-4.477,10-10S483.591,492.001,478.069,492.001z M104.001,368.5V492H74.044v-75.265
			c0-21.358,11.856-40.607,30.015-50.531C104.03,366.967,104.001,367.73,104.001,368.5z M388.001,492.001H164.008v-46.333
			c0-5.523-4.478-10-10-10c-5.522,0-10,4.477-10,10v46.333h-20.007v-123.5c0-22.332,18.168-40.5,40.499-40.5h183.002
			c22.331,0,40.499,18.168,40.499,40.5V492.001z M437.958,492.001h-29.957v-123.5c0-0.77-0.029-1.533-0.058-2.296
			c18.16,9.923,30.015,29.172,30.015,50.53V492.001z"/>
	</g>
</g>
<g>
	<g>
		<path d="M24.144,41.143l18.852-18.852c3.905-3.905,3.905-10.237,0-14.143c-3.906-3.904-10.236-3.904-14.143,0L2.93,34.071
			c-1.875,1.876-2.929,4.419-2.929,7.072s1.054,5.196,2.929,7.071l25.923,25.922c1.953,1.953,4.512,2.929,7.071,2.929
			c2.559,0,5.118-0.977,7.071-2.929c3.905-3.905,3.905-10.237,0-14.142L24.144,41.143z"/>
	</g>
</g>
<g>
	<g>
		<path d="M162.32,34.073L136.399,8.149c-3.904-3.905-10.234-3.905-14.143,0c-3.905,3.905-3.905,10.237,0,14.142l18.852,18.852
			l-18.852,18.852c-3.905,3.904-3.905,10.236,0,14.141c1.953,1.953,4.512,2.929,7.071,2.929c2.559,0,5.118-0.977,7.071-2.929
			l25.922-25.922C166.225,44.31,166.225,37.979,162.32,34.073z"/>
	</g>
</g>
<g>
	<g>
		<path d="M105.994,1.379c-4.762-2.797-10.89-1.206-13.688,3.555L55.704,67.217c-2.799,4.762-1.207,10.89,3.554,13.688
			c1.592,0.935,3.335,1.38,5.057,1.38c3.429,0,6.769-1.765,8.631-4.935l36.603-62.283C112.348,10.305,110.756,4.177,105.994,1.379z"
			/>
	</g>
</g>
<g>
	<g>
		<path d="M508.702,95.024l-10.327-9.328c0.113-1.585,0.171-3.174,0.171-4.758s-0.058-3.173-0.171-4.758l10.327-9.328
			c3.501-3.163,4.315-8.343,1.953-12.427l-16.148-27.921c-2.359-4.079-7.244-5.958-11.731-4.509l-13.216,4.271
			c-2.633-1.788-5.387-3.381-8.245-4.768l-2.911-13.59c-0.988-4.611-5.063-7.906-9.778-7.906h-32.252
			c-4.716,0-8.79,3.294-9.778,7.906l-2.911,13.59c-2.858,1.387-5.612,2.98-8.245,4.768l-13.216-4.271
			c-4.486-1.45-9.372,0.43-11.731,4.509l-16.148,27.921c-2.362,4.084-1.548,9.264,1.953,12.427l10.327,9.328
			c-0.113,1.585-0.171,3.174-0.171,4.758s0.058,3.173,0.171,4.758l-10.327,9.328c-3.501,3.163-4.315,8.342-1.953,12.427
			l16.148,27.921c2.359,4.079,7.245,5.958,11.731,4.509l13.216-4.271c2.633,1.788,5.387,3.381,8.245,4.768l2.911,13.59
			c0.988,4.611,5.063,7.906,9.778,7.906h32.252c4.716,0,8.79-3.294,9.778-7.906l2.911-13.59c2.858-1.387,5.612-2.98,8.245-4.768
			l13.216,4.271c4.487,1.449,9.372-0.43,11.731-4.509l16.148-27.921C513.017,103.367,512.203,98.187,508.702,95.024z
			 M477.988,73.744c0.371,2.368,0.56,4.788,0.56,7.193c0,2.405-0.188,4.825-0.56,7.193c-0.521,3.334,0.673,6.707,3.177,8.969
			l8.129,7.342l-8.054,13.924l-10.42-3.368c-3.215-1.038-6.741-0.383-9.368,1.744c-3.758,3.043-7.939,5.461-12.429,7.188
			c-3.153,1.213-5.48,3.936-6.188,7.239l-2.293,10.705H424.46l-2.293-10.705c-0.708-3.303-3.035-6.026-6.188-7.239
			c-4.489-1.727-8.671-4.145-12.429-7.188c-2.627-2.128-6.153-2.784-9.368-1.744l-10.42,3.368l-8.054-13.924l8.129-7.342
			c2.504-2.262,3.699-5.635,3.177-8.969c-0.371-2.368-0.56-4.788-0.56-7.193c0-2.405,0.188-4.825,0.56-7.193
			c0.521-3.334-0.673-6.707-3.177-8.969l-8.129-7.342l8.054-13.924l10.42,3.368c3.218,1.04,6.741,0.384,9.368-1.744
			c3.758-3.043,7.939-5.461,12.429-7.188c3.153-1.213,5.48-3.936,6.188-7.239l2.293-10.705h16.082l2.293,10.705
			c0.708,3.303,3.035,6.026,6.188,7.239c4.489,1.727,8.671,4.145,12.429,7.188c2.627,2.127,6.15,2.782,9.368,1.744l10.42-3.368
			l8.054,13.924l-8.129,7.342C478.661,67.037,477.467,70.41,477.988,73.744z"/>
	</g>
</g>
<g>
	<g>
		<path d="M87.981,117.875h-77.98c-5.522,0-10,4.477-10,10c0,5.523,4.478,10,10,10h77.98c5.522,0,10-4.477,10-10
			C97.981,122.352,93.503,117.875,87.981,117.875z"/>
	</g>
</g>
<g>
	<g>
		<path d="M146.548,117.875h-24.155c-5.522,0-10,4.477-10,10c0,5.523,4.478,10,10,10h24.155c5.522,0,10-4.477,10-10
			C156.548,122.352,152.07,117.875,146.548,117.875z"/>
	</g>
</g>
<g>
	<g>
		<path d="M60.001,213.872h-50c-5.522,0-10,4.477-10,10c0,5.523,4.478,10,10,10h50c5.523,0,10-4.477,10-10
			S65.523,213.872,60.001,213.872z"/>
	</g>
</g>
<g>
	<g>
		<path d="M138.771,213.872H94.886c-5.522,0-10,4.477-10,10c0,5.523,4.478,10,10,10h43.885c5.522,0,10-4.477,10-10
			C148.771,218.349,144.293,213.872,138.771,213.872z"/>
	</g>
</g>
<g>
	<g>
		<path d="M22.962,165.873H10.001c-5.522,0-10,4.477-10,10s4.478,10,10,10h12.961c5.522,0,10-4.477,10-10
			S28.484,165.873,22.962,165.873z"/>
	</g>
</g>
<g>
	<g>
		<path d="M138.771,165.873h-81.77c-5.522,0-10,4.477-10,10s4.478,10,10,10h81.77c5.522,0,10-4.477,10-10
			S144.293,165.873,138.771,165.873z"/>
	</g>
</g>
<g>
	<g>
		<path d="M509.07,310.921c-1.859-1.87-4.439-2.93-7.069-2.93s-5.21,1.06-7.07,2.93c-1.86,1.86-2.93,4.44-2.93,7.07
			s1.069,5.21,2.93,7.07c1.86,1.86,4.44,2.93,7.07,2.93s5.21-1.07,7.069-2.93c1.86-1.86,2.931-4.44,2.931-7.07
			C512.001,315.351,510.931,312.781,509.07,310.921z"/>
	</g>
</g>
<g>
	<g>
		<path d="M466.334,308.001h-49.243c-5.522,0-10,4.477-10,10s4.478,10,10,10h49.243c5.522,0,10-4.477,10-10
			S471.856,308.001,466.334,308.001z"/>
	</g>
</g>
<g>
	<g>
		<path d="M403.268,259.996h-25.6c-5.522,0-10,4.477-10,10s4.478,10,10,10h25.6c5.523,0,10-4.477,10-10
			S408.79,259.996,403.268,259.996z"/>
	</g>
</g>
<g>
	<g>
		<path d="M502.001,259.996h-59.31c-5.522,0-10,4.477-10,10s4.478,10,10,10h59.31c5.523,0,10-4.477,10-10
			S507.523,259.996,502.001,259.996z"/>
	</g>
</g>
<g>
	<g>
		<path d="M439.57,73.871c-1.859-1.87-4.439-2.93-7.069-2.93s-5.21,1.06-7.07,2.93c-1.86,1.86-2.93,4.43-2.93,7.07
			c0,2.63,1.069,5.21,2.93,7.07c1.861,1.86,4.441,2.93,7.07,2.93c2.63,0,5.21-1.07,7.069-2.93c1.86-1.86,2.931-4.44,2.931-7.07
			C442.501,78.302,441.431,75.731,439.57,73.871z"/>
	</g>
</g>
<g>
	<g>
		<path d="M235.82,216.801c-1.859-1.86-4.439-2.93-7.069-2.93s-5.21,1.07-7.07,2.93s-2.93,4.44-2.93,7.07s1.069,5.21,2.93,7.07
			c1.86,1.86,4.441,2.93,7.07,2.93c2.63,0,5.21-1.07,7.069-2.93c1.86-1.86,2.931-4.44,2.931-7.07S237.681,218.661,235.82,216.801z"
			/>
	</g>
</g>
<g>
	<g>
		<path d="M290.32,216.801c-1.859-1.86-4.439-2.93-7.069-2.93c-2.641,0-5.21,1.07-7.07,2.93c-1.86,1.86-2.93,4.44-2.93,7.07
			s1.069,5.21,2.93,7.07c1.86,1.86,4.441,2.93,7.07,2.93c2.63,0,5.21-1.07,7.069-2.93c1.86-1.86,2.931-4.44,2.931-7.07
			S292.181,218.661,290.32,216.801z"/>
	</g>
</g>
<g>
	<g>
		<path d="M161.061,402.931c-1.859-1.86-4.43-2.93-7.069-2.93c-2.631,0-5.21,1.07-7.07,2.93c-1.86,1.86-2.93,4.44-2.93,7.07
			s1.069,5.21,2.93,7.07c1.861,1.86,4.439,2.93,7.07,2.93c2.63,0,5.21-1.07,7.069-2.93c1.86-1.86,2.931-4.43,2.931-7.07
			C163.992,407.371,162.922,404.792,161.061,402.931z"/>
	</g>
</g>
<g>
</g>
<g>
</g>
<g>
</g>
<g>
</g>
<g>
</g>
<g>
</g>
<g>
</g>
<g>
</g>
<g>
</g>
<g>
</g>
<g>
</g>
<g>
</g>
<g>
</g>
<g>
</g>
<g>
</g>
</svg>
