<?xml version="1.0" encoding="iso-8859-1"?>
<!-- Generator: Adobe Illustrator 19.0.0, SVG Export Plug-In . SVG Version: 6.00 Build 0)  -->
<svg version="1.1" id="Layer_1" xmlns="http://www.w3.org/2000/svg" xmlns:xlink="http://www.w3.org/1999/xlink" x="0px" y="0px"
	 viewBox="0 0 512.002 512.002" style="enable-background:new 0 0 512.002 512.002;" xml:space="preserve">
<g>
	<g>
		<circle cx="214.226" cy="171.261" r="10.413"/>
	</g>
</g>
<g>
	<g>
		<circle cx="292.924" cy="171.261" r="10.413"/>
	</g>
</g>
<g>
	<g>
		<path d="M418.381,356.154c-19.329-4.924-36.487-8.89-56.751-12.144l-20.271-30.655c-1.717-2.596-4.544-4.245-7.649-4.461
			c-3.102-0.225-6.133,1.024-8.193,3.357l-69.73,78.953l-69.496-74.275c-2.013-2.151-4.864-3.293-7.812-3.156
			c-2.941,0.149-5.668,1.587-7.452,3.93l-19.944,26.188c-20.813,3.315-38.288,7.359-57.957,12.386
			c-42.427,10.844-72.058,49.105-72.058,93.045v23.331c0,21.696,17.65,39.346,39.346,39.346h160.418
			c0.012,0,0.024,0.001,0.036,0.001c0.011,0,0.022-0.001,0.033-0.001h75.081c0.015,0,0.03,0.002,0.045,0.002
			c0.012,0,0.024-0.002,0.035-0.002h155.525c21.696,0,39.346-17.65,39.346-39.346v-23.326
			C490.933,405.348,461.098,367.034,418.381,356.154z M331.871,335.28l14.661,22.17l-36.356,72.206l-39.036-25.613L331.871,335.28z
			 M179.772,339.244l60.686,64.86l-39.881,25.367l-32.711-74.593L179.772,339.244z M212.369,491.991H60.414
			c-10.663,0-19.339-8.675-19.339-19.338v-23.331c0-34.792,23.441-65.083,57.005-73.661c17.822-4.555,33.759-8.274,52.077-11.346
			l36.781,83.876c1.172,2.674,3.455,4.702,6.248,5.552c2.793,0.85,5.818,0.437,8.282-1.128l19.458-12.376L212.369,491.991z
			 M232.649,491.992l10.942-66.168l12.325-7.84l12.891,8.458l14.728,65.55H232.649z M451.587,491.992H304.041l-11.183-49.769
			l15.721,10.315c1.647,1.08,3.556,1.64,5.488,1.64c0.866,0,1.737-0.112,2.589-0.341c2.755-0.738,5.064-2.617,6.345-5.164
			l42.184-83.782c16.721,2.922,31.651,6.42,48.258,10.651c33.845,8.621,57.482,38.963,57.482,73.785v23.326h0.001
			C470.926,483.316,462.251,491.992,451.587,491.992z"/>
	</g>
</g>
<g>
	<g>
		<path d="M402.287,37.403c-5.525,0-10.004,4.479-10.004,10.004v13.445c0,20.371-16.573,36.944-36.944,36.944H198.546
			c-0.315,0-0.625,0.019-0.932,0.047c-0.307-0.029-0.618-0.047-0.932-0.047c-31.449,0-57.036,25.586-57.036,57.036v52.496
			c0,4.723,0.294,9.377,0.853,13.951c-20.331-8.735-22.153-35.208-22.153-44.269V83.093c0-18.159,14.774-32.933,32.933-32.933
			h12.224c5.525,0,10.004-4.479,10.004-10.004c0-11.11,9.039-20.15,20.15-20.15h164.809c5.525,0,10.003-4.479,10.003-10.004
			S363.99,0,358.465,0H193.656c-18.69,0-34.439,12.836-38.896,30.154h-3.481c-29.191,0-52.94,23.748-52.94,52.94v93.915
			c-0.001,36.432,18.258,61.666,47.125,66.319c15.115,45.392,57.994,78.215,108.398,78.215c62.979,0,114.216-51.237,114.216-114.216
			v-90.978c25.287-5.804,44.212-28.474,44.212-55.497V47.407C412.29,41.882,407.812,37.403,402.287,37.403z M348.071,207.325
			c0,51.947-42.262,94.209-94.209,94.209s-94.209-42.262-94.209-94.209v-52.495h0c0-20.418,16.611-37.029,37.029-37.029
			c0.315,0,0.625-0.019,0.932-0.047c0.307,0.029,0.618,0.047,0.932,0.047h149.525V207.325z"/>
	</g>
</g>
<g>
	<g>
		<path d="M292.433,235.314c-3.906-3.906-10.241-3.906-14.148,0c-5.98,5.981-13.932,9.274-22.389,9.274
			c-8.883,0-17.413-3.767-23.403-10.337c-3.722-4.081-10.049-4.374-14.132-0.651c-4.082,3.723-4.374,10.05-0.651,14.132
			c9.772,10.717,23.691,16.863,38.188,16.863c13.801,0,26.777-5.375,36.536-15.133C296.339,245.556,296.339,239.222,292.433,235.314
			z"/>
	</g>
</g>
<g>
	<g>
		<circle cx="402.283" cy="10.004" r="10.004"/>
	</g>
</g>
<g>
</g>
<g>
</g>
<g>
</g>
<g>
</g>
<g>
</g>
<g>
</g>
<g>
</g>
<g>
</g>
<g>
</g>
<g>
</g>
<g>
</g>
<g>
</g>
<g>
</g>
<g>
</g>
<g>
</g>
</svg>
