<?xml version="1.0" encoding="iso-8859-1"?>
<!-- Generator: Adobe Illustrator 16.0.0, SVG Export Plug-In . SVG Version: 6.00 Build 0)  -->
<!DOCTYPE svg PUBLIC "-//W3C//DTD SVG 1.1//EN" "http://www.w3.org/Graphics/SVG/1.1/DTD/svg11.dtd">
<svg version="1.1" id="Capa_1" xmlns="http://www.w3.org/2000/svg" xmlns:xlink="http://www.w3.org/1999/xlink" x="0px" y="0px"
	 width="32.094px" height="32.094px" viewBox="0 0 32.094 32.094" style="enable-background:new 0 0 32.094 32.094;"
	 xml:space="preserve">
<g>
	<g>
		<path d="M21.702,21.045l-6.267-0.023l-0.14,4.228h1.938v5.739c-0.883,0.015-1.43,0.152-1.43,0.549c0,0.42,0.862,0.557,0.862,0.557
			h0.568h1.363h0.068c0,0,0-0.295,0-0.523c0-0.082-0.021-0.162-0.068-0.233v-6.088h0.725l0.25,2.377l-0.388,3.61
			c-0.11,0.096-0.155,0.209-0.155,0.332c0,0.229,0,0.524,0,0.524h0.063l0,0h1.375l0,0h0.562c0,0,0.861-0.137,0.861-0.557
			c0-0.381-0.511-0.521-1.332-0.545l0.273-3.366l-0.19-2.377h1.302L21.702,21.045z"/>
		<path d="M24.208,12.454l-1.308-0.456l0,0L19.7,10.883l0,0l-0.369-0.128l-0.073,0.178v-0.339c0.19-0.12,0.341-0.294,0.442-0.497
			l0,0c0-0.001,0-0.001,0-0.002c0.041-0.081,0.076-0.165,0.098-0.255c0.023-0.093,0.037-0.188,0.037-0.289
			c0-0.034-0.008-0.064-0.01-0.098l0,0c-0.049-0.635-0.576-1.138-1.226-1.138c-0.682,0-1.235,0.553-1.235,1.236
			c0,0.503,0.303,0.936,0.736,1.127v3.051v0.631h0.25h0.381h0.525v-1.222V12.4l0.38,0.146l0,0l0.245,0.093l1.697,0.652l0,0
			l1.574,0.604v-0.001l0.393,0.151L24.208,12.454z"/>
		<path d="M15.437,20.658h2.914v-5.917h-0.25h-0.382v-0.38v-1.353l-0.943-1.79l0.441-0.111v-0.734
			c-0.146-0.245-0.232-0.526-0.232-0.822c0-0.07,0.012-0.137,0.021-0.205c-1.589-0.59-2.746-2.043-2.881-3.803l1.165,0.168v0.711
			h3.056V5.92h0.54v0.502h3.057V5.73l0.971-0.151C22.86,7,22.163,8.847,20.198,9.366c0.006,0.062,0.019,0.122,0.019,0.186
			c0,0.366-0.132,0.708-0.354,0.986l3.252,1.132l0.23-0.357c0.1-0.723,0.43-1.859,0.479-2.994C23.907,6.383,24.018,0,18.446,0
			c-0.588,0-1.274,0.072-1.573,0.206C16.574,0.34,16.52,0.645,16.328,0.71c-0.201,0.067-0.486,0.041-0.662,0.126
			c-2.76,1.33-2.665,4.571-2.665,4.571l0.683,5.932L7.887,7.566L7.885,9.297l6.932,5.064c0.421,1.425,1.077,2.7,1.077,2.7
			L15.437,20.658z M18.006,6.083h-2.378v-1.21h2.378V6.083z M21.601,6.083h-2.376v-1.21h2.376V6.083z M14.14,4.768
			c1.229-0.083,2.617-1.052,2.724-2.399c1.555,1.288,3.757,1.35,5.594,1.515c0.228,0.107,0.396,0.57,0.442,1.181L21.94,5.214V4.535
			h-3.055v0.707h-0.54V4.535h-3.056v0.663l-1.179-0.17C14.119,4.94,14.131,4.855,14.14,4.768z"/>
		<path d="M21.756,13.766l-2.119-0.813v1.408v0.38h-0.38h-0.526v5.917h1.549h1.469l-0.553-3.708c0,0,0.197-1.299,0.445-2.754h1.234
			L21.756,13.766L21.756,13.766z"/>
	</g>
</g>
<g>
</g>
<g>
</g>
<g>
</g>
<g>
</g>
<g>
</g>
<g>
</g>
<g>
</g>
<g>
</g>
<g>
</g>
<g>
</g>
<g>
</g>
<g>
</g>
<g>
</g>
<g>
</g>
<g>
</g>
</svg>
