<svg xmlns:rdf="http://www.w3.org/1999/02/22-rdf-syntax-ns#" xmlns="http://www.w3.org/2000/svg" height="423.59" width="683.79" version="1.1" xmlns:cc="http://creativecommons.org/ns#" xmlns:xlink="http://www.w3.org/1999/xlink" viewBox="0 0 683.79085 423.58828" xmlns:dc="http://purl.org/dc/elements/1.1/">
 <defs>
  <pattern id="j" xlink:href="#l" patternTransform="matrix(10 0 0 10 96.753 45.897)"/>
  <pattern id="l" xlink:href="#f" patternTransform="matrix(10 0 0 10 -71.221 61.787)"/>
  <pattern id="f" xlink:href="#g" patternTransform="scale(10)"/>
  <pattern id="g" width="2" patternUnits="userSpaceOnUse" patternTransform="translate(0) scale(10)" height="1">
   <rect y="-.5" width="1" x="0" height="2"/>
  </pattern>
  <pattern id="i" xlink:href="#k" patternTransform="matrix(10 0 0 10 96.753 45.897)"/>
  <pattern id="k" xlink:href="#f" patternTransform="matrix(10 0 0 10 -71.221 61.787)"/>
  <filter id="h" style="color-interpolation-filters:sRGB" height="2.9608" width="1.0231" y="-.98040" x="-.011534">
   <feGaussianBlur stdDeviation="2.8981823"/>
  </filter>
 </defs>
 <g transform="translate(-96.751 -45.897)">
  <path d="m531.6 178.05a24.86 20.065 0 0 0 -24.86 20.065 24.86 20.065 0 0 0 .0623 1.4131h49.571a24.86 20.065 0 0 0 .0874 -1.4131 24.86 20.065 0 0 0 -24.86 -20.065z" style="color-rendering:auto;fill-rule:evenodd;color:#000000;isolation:auto;mix-blend-mode:normal;shape-rendering:auto;solid-color:#000000;image-rendering:auto;fill:#92dbce"/>
  <path style="opacity:.972;color-rendering:auto;fill-rule:evenodd;color:#000000;isolation:auto;mix-blend-mode:normal;shape-rendering:auto;solid-color:#000000;image-rendering:auto;fill:#92dbce" d="m481.81 198.4h99.582v64.595h-99.582z"/>
  <path style="opacity:.972;color-rendering:auto;fill-opacity:.97255;color:#000000;isolation:auto;mix-blend-mode:normal;fill-rule:evenodd;shape-rendering:auto;solid-color:#000000;image-rendering:auto;fill:#92dbce" d="m461.14 267.84h140.91v89.467h-140.91z"/>
  <path style="opacity:.972;color-rendering:auto;fill-rule:evenodd;color:#000000;isolation:auto;mix-blend-mode:normal;shape-rendering:auto;solid-color:#000000;image-rendering:auto;fill:#92dbce" d="m480.98 360.38h17.628v89.631h-17.628z"/>
  <path style="opacity:.972;color-rendering:auto;fill-rule:evenodd;color:#000000;isolation:auto;mix-blend-mode:normal;shape-rendering:auto;solid-color:#000000;image-rendering:auto;fill:#92dbce" d="m564.6 360.38h17.628v89.631h-17.628z"/>
  <path d="m451.62 364.74s-57.686-35.613 0-79.081" style="stroke:url(#i);stroke-width:20;fill:none"/>
  <path style="color-rendering:auto;fill-rule:evenodd;color:#000000;isolation:auto;mix-blend-mode:normal;shape-rendering:auto;solid-color:#000000;image-rendering:auto;fill:#68b2a5" d="m454.31 273.33c2.056 0 3.7113 3.1857 3.7113 7.1429v13.974c0 3.9572-1.6552 7.1429-3.7113 7.1429-2.056 0-3.7113-3.1857-3.7113-7.1429v-13.974c0-3.9572 1.6552-7.1429 3.7113-7.1429z"/>
  <path d="m611.56 287.54s57.686 35.613 0 79.081" style="stroke:url(#j);stroke-width:20;fill:none"/>
  <path style="color-rendering:auto;fill-rule:evenodd;color:#000000;isolation:auto;mix-blend-mode:normal;shape-rendering:auto;solid-color:#000000;image-rendering:auto;fill:#68b2a5" d="m608.88 273.33c2.056 0 3.7113 3.1857 3.7113 7.1429v13.974c0 3.9572-1.6552 7.1429-3.7113 7.1429s-3.7113-3.1857-3.7113-7.1429v-13.974c0-3.9572 1.6552-7.1429 3.7113-7.1429z"/>
  <path style="opacity:.972;color-rendering:auto;fill-rule:evenodd;color:#000000;isolation:auto;mix-blend-mode:normal;shape-rendering:auto;solid-color:#000000;image-rendering:auto;fill:#fff" d="m493.11 212.13h20.179v12.112h-20.179z"/>
  <path style="opacity:.972;color-rendering:auto;fill-rule:evenodd;color:#000000;isolation:auto;mix-blend-mode:normal;shape-rendering:auto;solid-color:#000000;image-rendering:auto;fill:#fff" d="m549.91 212.13h20.179v12.112h-20.179z"/>
  <path style="color-rendering:auto;fill-rule:evenodd;color:#000000;isolation:auto;mix-blend-mode:normal;shape-rendering:auto;solid-color:#000000;image-rendering:auto;fill:#68b2a5" d="m467.59 362.81a14 14 0 0 1 -14 14 14 14 0 0 1 -14 -14 14 14 0 0 1 14 -14 14 14 0 0 1 14 14z"/>
  <path style="color-rendering:auto;fill-rule:evenodd;color:#000000;isolation:auto;mix-blend-mode:normal;shape-rendering:auto;solid-color:#000000;image-rendering:auto;fill:#68b2a5" d="m629.16 362.67a14.033 14.038 0 0 1 -14.033 14.038 14.033 14.038 0 0 1 -14.033 -14.038 14.033 14.038 0 0 1 14.033 -14.038 14.033 14.038 0 0 1 14.033 14.038z"/>
  <path d="m489.79 445.53a14.125 9.1672 0 0 0 -14.125 9.1678 14.125 9.1672 0 0 0 .2549 1.6971h27.742a14.125 9.1672 0 0 0 .2527 -1.6971 14.125 9.1672 0 0 0 -14.125 -9.1678z" style="color-rendering:auto;fill-rule:evenodd;color:#000000;isolation:auto;mix-blend-mode:normal;shape-rendering:auto;solid-color:#000000;image-rendering:auto;fill:#66aea2"/>
  <path d="m573.41 445.53a14.125 9.1672 0 0 0 -14.125 9.1678 14.125 9.1672 0 0 0 .25492 1.6971h27.742a14.125 9.1672 0 0 0 .25271 -1.6971 14.125 9.1672 0 0 0 -14.125 -9.1678z" style="color-rendering:auto;fill-rule:evenodd;color:#000000;isolation:auto;mix-blend-mode:normal;shape-rendering:auto;solid-color:#000000;image-rendering:auto;fill:#66aea2"/>
  <path d="m509.84 243.14s23.542 11.537 43.518 0v6.7751s-20.086 11.138-43.518 0z" style="fill:#fff;fill-rule:evenodd"/>
  <path d="m531.6 187.08v-28.439" style="stroke:#92dbce;stroke-width:10;fill:none"/>
  <path style="color-rendering:auto;fill-rule:evenodd;color:#000000;isolation:auto;mix-blend-mode:normal;shape-rendering:auto;solid-color:#000000;image-rendering:auto;fill:#66aea2" d="m573.41 400.39c8.0431 0 14.518 2.865 14.518 6.4239v2.4196c0 3.5588-6.4752 6.4239-14.518 6.4239-8.0431 0-14.518-2.865-14.518-6.4239v-2.4196c0-3.5588 6.4752-6.4239 14.518-6.4239z"/>
  <path style="color-rendering:auto;fill-rule:evenodd;color:#000000;isolation:auto;mix-blend-mode:normal;shape-rendering:auto;solid-color:#000000;image-rendering:auto;fill:#66aea2" d="m489.79 400.39c8.0431 0 14.518 2.865 14.518 6.4239v2.4196c0 3.5588-6.4752 6.4239-14.518 6.4239-8.0431 0-14.518-2.865-14.518-6.4239v-2.4196c0-3.5588 6.4752-6.4239 14.518-6.4239z"/>
  <path style="stroke-linejoin:round;color-rendering:auto;stroke-opacity:.97255;fill-rule:evenodd;color:#000000;isolation:auto;mix-blend-mode:normal;shape-rendering:auto;solid-color:#000000;stroke:#92dbce;image-rendering:auto;stroke-width:2;fill:#f51f2e" d="m536.97 156.75a5.3675 5.3694 0 0 1 -5.3675 5.3694 5.3675 5.3694 0 0 1 -5.3675 -5.3694 5.3675 5.3694 0 0 1 5.3675 -5.3694 5.3675 5.3694 0 0 1 5.3675 5.3694z"/>
  <path style="color-rendering:auto;color:#000000;isolation:auto;mix-blend-mode:normal;fill-rule:evenodd;shape-rendering:auto;solid-color:#000000;image-rendering:auto;fill:#687e7a" d="m468.6 300.99h126v51.6h-126z"/>
  <g style="fill:#66aea2" transform="scale(.99982 1.0002)">
   <path style="fill:#66aea2" d="m540.14 290.99q-.75287.32852-1.3688.61598-.60229.28746-1.5879.60229-.83499.26008-1.8206.43803-.97188.19164-2.1491.19164-2.2175 0-4.0381-.61598-1.8069-.62967-3.1483-1.9574-1.3141-1.3004-2.0533-3.2989-.73918-2.0122-.73918-4.6678 0-2.5187.7118-4.5035t2.0533-3.3537q1.3004-1.3278 3.1346-2.0259 1.848-.69811 4.0928-.69811 1.6426 0 3.2715.39696 1.6426.39697 3.6411 1.3962v3.2168h-.20533q-1.6837-1.4099-3.34-2.0533-1.6563-.64335-3.5453-.64335-1.5468 0-2.7924.50647-1.232.49278-2.2038 1.5468-.94451 1.0266-1.4784 2.6008-.52016 1.5605-.52016 3.6138 0 2.1491.57492 3.6959.5886 1.5468 1.5057 2.5187.95819 1.0129 2.2312 1.5057 1.2867.47909 2.7103.47909 1.9574 0 3.6685-.67073t3.2031-2.0122h.19164v3.1757z"/>
  </g>
  <path d="m604.55 195.13h168.32c4.2525 0 7.6759 1.3026 7.6759 2.9206v28.967c0 1.618-3.4234 2.9206-7.6759 2.9206h-162.53l-21.835 7.1686c-3.3154 1.0885 8.3737-8.4714 8.3737-10.089v-28.967c0-1.618 3.4234-2.9206 7.6759-2.9206z" style="color-rendering:auto;color:#000000;isolation:auto;mix-blend-mode:normal;shape-rendering:auto;solid-color:#000000;image-rendering:auto;fill:#333"/>
  <path style="fill:#e9ad95;fill-rule:evenodd" d="m216.86 138.98s-.30859 8.9381-3.394 11.863c0 0 11.161 15.46 16.97 15.135 0 0 7.1975-4.0628 16.299-16.251 0 0-3.6492.30305-4.4206-1.8096-.77134-2.1126-.61708-9.1006-.61708-9.1006s-15.273 5.5254-24.838.16272z"/>
  <path style="fill:#f6bea3;fill-rule:evenodd" d="m202.73 113.3 6.5698 21.3s1.2342 3.2397 3.8567 3.5483c2.6226.30859 6.8399 5.2253 16.353 3.8568 6.0253-.86686 16.353-1.697 17.895-5.3995 1.5427-3.7025 7.4822-20.942 7.4822-23.719l-3.5868.30859s1.967-4.2039 2.4298-9.1405c0 0 1.5592-15.884 1.0137-18.175 0 0-3.0675-6.2561-10.703-6.0379 0 0-33.625 1.9505-35.588.64142 0 0-4.9918.44954-4.9918 10.704l2.6446 21.934z"/>
  <path d="m254.16 416.69.20771 17.107s-4.778 6.0959-4.4772 11.056c.18765 3.0977-4.2432 1.393-5.589-.93579-.80901-1.4-.46945-3.3828-.23154-5.47.0173-.61826.26506-21.65.26506-21.65z" style="fill:#f5bfa4;fill-rule:evenodd"/>
  <path style="fill:#a6d46d;fill-rule:evenodd" d="m197.42 442.22s-2.7769-3.5482 1.0799-6.7879 8.1764-1.0799 8.1764-1.0799 9.7191 2.0055 10.645 8.3306c.92562 6.3251 1.3884 7.8678 1.3884 7.8678s-1.856 1.7184-4.6923 2.5244c-3.0605.86974-7.2626.81296-11.506.25248 0 0-2.4684 1.2342-6.6337-4.0111 0 0-5.2452.46282-6.9422 1.0799s8.4849-8.1764 8.4849-8.1764z"/>
  <path style="fill:#b8dc89;fill-rule:evenodd" d="m242.32 443.92c.46368-2.3698 5.8623 3.0854 6.6336 2.1598.77134-.92564.9256-6.7879 0-7.2507-.92564-.46282 10.336-10.182 13.576.15412l-.46281 3.0856s9.0018 2.341 9.9274 9.129l.74419 3.7935s-.53534-5.4265-5.6263-5.4265c-5.0909 0-8.4757 4.5101-8.4757 4.5101s-15.082-.59007-17.705-3.0584z"/>
  <path style="fill:#f5bfa4;fill-rule:evenodd" d="m206.52 416.36-.8727 17.61s7.4178 2.7805 6.9815 8.3414c-.43636 5.561 3.3817-.46341 3.3817-1.1585 0-.69511.32725-24.329.32725-24.329z"/>
  <path style="fill:#648811;fill-rule:evenodd" d="m218.74 450.74s1.309 2.1817.43635 4.3635c-.8727 2.1817-13.309 3.0544-15.708 3.2726-2.3999.21806-16.145-1.309-16.145-1.309s-.21805-6.1088 2.1817-6.7634c2.3999-.65453 4.7998-1.7454 6.327-1.0909 1.5272.65454 3.2726 3.4908 4.7998 3.9271 1.5272.43634 12.436 1.309 18.108-2.3999z"/>
  <path style="fill:#5f8613;fill-rule:evenodd" d="m192.55 445.94s1.5272-3.7089 2.8362-3.7089 10.69.43635 11.345 2.3999c.65449 1.9636-.65451 3.0544-2.3999 1.5272s-10.69 0-11.781-.21805z"/>
  <path style="fill:#5f8613;fill-rule:evenodd" d="m266.52 445.72s.43635-2.3999-1.7454-3.0544c-2.1817-.65453-9.3814 0-10.472.65451-1.0909.65451-2.1817 3.4908.21805 3.4908 0 0 9.8178-2.6181 11.999-1.0909"/>
  <path style="fill:#648811;fill-rule:evenodd" d="m240.62 451.32s-1.0799 2.3141-.61708 3.2397c.46282.92564 11.416 3.7025 12.65 3.7025 1.2342 0 18.05.15413 20.518-1.697 0 0-.77137-7.5593-3.7025-7.7136-2.9312-.15412-8.6392 2.1598-10.645 4.7824 0 0-16.816-2.3141-18.204-2.3141z"/>
  <path style="fill:#6f6f6f;fill-rule:evenodd" d="m201.28 415.38s-.15413 3.5483 8.6392 2.7769c0 0 8.0221.92564 9.5648-1.2342l1.0799-14.501s-18.821-2.6226-20.364.61711z"/>
  <path d="m240.74 416.76s.61726 2.0055 9.4106 1.2342l8.6392-.9256 1.0799-14.501s-18.821-2.6226-20.364.61712z" style="fill:#6f6f6f;fill-rule:evenodd"/>
  <path style="fill:#474848;fill-rule:evenodd" d="m262.37 266.37c-.9257 2.2093-.61711 57.757-.61711 57.757s-.61709 28.089 0 36.611c.61711 8.5215-2.4683 41.976-2.4683 41.976l-18.821.31566-.61708-50.813s.61708-30.299.61708-33.77c-2.1277-16.594-.44935-36.205-10.49-36.295-11.606.73833-10.253 48.23-9.7129 56.08l1.0909 30.351s-.87267 31.085-1.7454 34.433l-19.199-.28747s.43634-11.382-.65451-18.97c0 0-.65454-29.459-.8727-35.707 0 0-1.0909-80.341-.8727-81.457.21806-1.1158 64.363-.2234 64.363-.2234z"/>
  <path style="fill:#4171a2;fill-rule:evenodd" d="m198.45 266.38s55.291 5.4543 64.018-.43635l1.6522-7.4178c3.9596-4.8375 1.3504-20.271.0932-25.673 0 0-.74771-4.8712-.74771-14.689v-24.217s2.7337-21.971 12.115-35.061c0 0-15.388-7.7004-25.642-7.9186l-18.981 21.599s-18.763-12.436-22.908-21.599c0 0-16.145 2.8362-22.908 7.1997 0 0 11.999 23.563 11.563 31.635 0 0 1.309 9.1632-.43635 11.999 1.0043 11.718-4.7819 52.829-1.5272 55.416 0 0 3.6336 5.018 1.6702 5.8907 0 0 .0752 3.4907 2.0388 3.2726z"/>
  <path style="fill:#133b5a;fill-rule:evenodd" d="m207.6 151.13s4.1583-1.0396 5.031-1.0396c6.1727 7.1028 11.791 13.979 18.108 15.272 1.9635-2.1817 9.6955-10.634 15.49-15.272.93641-.74946 3.8246.7058 3.8246.7058l-19.097 21.882c-10.217-6.7079-16.934-12.728-23.357-21.548z"/>
  <path d="m280.77 271.13s-.15412 4.6281.46283 5.091c.61707.46281-2.9312 6.7879-3.0854 7.8678-.15414 1.0799-.77134 10.336.46281 12.342 1.2342 2.0055.46283 4.0111.46283 4.0111s.61707.9256 1.2342 1.0799c.61711.15411 2.1598-1.0799 1.3884-6.1709-1.6914-10.909 6.6944-7.2178 6.4794-2.314 0 0 .71305 10.506-4.5231 10.834 0 0-1.5272 1.5272-.54541 2.3999 0 0 7.3088 2.6181 12.763-11.781 0 0 .87269-8.836-2.2908-14.618l-1.1999-10.254z" style="fill-rule:evenodd;stroke:#000;stroke-width:.03;fill:#f8bba8"/>
  <path style="fill-rule:evenodd;stroke:#000;stroke-width:0.2;fill:#234b6b" d="m263.68 190.89s.64815-7.6173 2.9332-15.265c2.0977-7.0204 5.7061-13.987 8.63-16.807 0 0 10.254 10.036 10.472 27.926 0 0-.21805 11.999.87271 17.017 0 0 5.2361 21.817 4.7998 23.563 0 0 1.9636 19.854 1.309 20.072 0 0 1.7454 16.799 1.9636 18.326 0 0-1.309 2.8362-1.0909 4.7998 0 0-.87266 3.2726-15.927 1.9636 0 0 0-3.0544.21805-3.9271.21805-.87269-1.9636.87271-1.9636-8.2905-4.9292-13.174-2.3466-32.435-6.4801-48.197-2.5174-9.5996-1.4356-15.642-5.7374-21.182z"/>
  <path style="fill-rule:evenodd;stroke:#000;stroke-width:.03;fill:#f8bba8" d="m179.84 272.37s.15412 4.6282-.46281 5.091c-.61709.46283 2.9311 6.7879 3.0854 7.8678.15412 1.0799.77134 10.336-.46282 12.342-1.2342 2.0055-.46282 4.0111-.46282 4.0111s-.61707.9256-1.2342 1.0799c-.61712.15413-2.1598-1.0799-1.3885-6.1709 1.6914-10.909-6.6944-7.2178-6.4794-2.314 0 0-.71304 10.506 4.5231 10.834 0 0 1.5272 1.5272.54541 2.3999 0 0-7.3087 2.6181-12.763-11.781 0 0-.87269-8.836 2.2908-14.618l1.1999-10.254z"/>
  <path d="m196.84 190.28s.57626-3.0085-.43613-7.0301c-2.0605-8.1852-7.0308-21.091-11.127-25.041 0 0-10.254 10.036-10.472 27.926 0 0 .21805 11.999-.87269 17.017 0 0-5.2362 21.817-4.7998 23.563 0 0-1.9636 19.854-1.309 20.072 0 0-1.7454 16.799-1.9636 18.326 0 0 1.309 2.8362 1.0909 4.7998 0 0 .87266 3.2726 15.927 1.9636 0 0 0-3.0544-.21805-3.9271-.21805-.87269 1.9636.8727 1.9636-8.2905 4.9292-13.174 2.3466-32.435 6.4802-48.197 2.5174-9.5995 1.4356-15.642 5.7374-21.182z" style="fill-rule:evenodd;stroke:#000;stroke-width:0.2;fill:#234b6b"/>
  <path style="fill:#214969;fill-rule:evenodd" d="m195.61 259.4.30744 3.7089 1.2198 5.379s54.236 4.7284 65.799-1.5986c0 0 2.271-7.9257.74379-7.9257 0 0-59.15.19007-68.07.43636z"/>
  <path style="fill:#723d11;fill-rule:evenodd" d="m208.22 88.938.15447 3.8568s9.102-4.0111 13.73-1.3884l.30823-4.1653s-9.4105-1.0799-14.193 1.697z"/>
  <path d="m249.28 89.092-.15447 3.8568s-9.102-4.0111-13.73-1.3884l-.30825-4.1653s9.4106-1.0799 14.193 1.697z" style="fill:#723d11;fill-rule:evenodd"/>
  <path style="stroke:#cb7f6c;stroke-width:0.2;fill:none" d="m227.35 103.13s.15411 4.1653-.92564 6.0166c-1.0799 1.8512-2.0055 6.1708-1.697 6.7879.30859.61708 4.7824 3.8568 10.028 1.3884"/>
  <path style="stroke:#bb6858;stroke-width:0.7;fill:none" d="m219.79 128.28s5.708 5.3995 18.975.15447"/>
  <path style="color-rendering:auto;color:#000000;isolation:auto;mix-blend-mode:normal;fill-rule:evenodd;shape-rendering:auto;solid-color:#000000;image-rendering:auto;fill:#0b0503" d="m220.85 99.829a4.8323 3.5326 78.563 0 1 -2.8043 5.1444 4.8323 3.5326 78.563 0 1 -4.2367 -4.4026 4.8323 3.5326 78.563 0 1 2.8043 -5.1444 4.8323 3.5326 78.563 0 1 4.2367 4.4025z"/>
  <path style="color-rendering:auto;color:#000000;isolation:auto;mix-blend-mode:normal;fill-rule:evenodd;shape-rendering:auto;solid-color:#000000;image-rendering:auto;fill:#0b0503" d="m237.78 99.829a3.5326 4.8323 11.437 0 0 2.8043 5.1444 3.5326 4.8323 11.437 0 0 4.2367 -4.4026 3.5326 4.8323 11.437 0 0 -2.8043 -5.1444 3.5326 4.8323 11.437 0 0 -4.2367 4.4026z"/>
  <path style="color-rendering:auto;color:#000000;isolation:auto;mix-blend-mode:normal;fill-rule:evenodd;shape-rendering:auto;solid-color:#000000;image-rendering:auto;fill:#cec2ba" d="m216.86 97.732a.92563 .92563 0 0 1 -.92563 .92563 .92563 .92563 0 0 1 -.92563 -.92563 .92563 .92563 0 0 1 .92563 -.92563 .92563 .92563 0 0 1 .92563 .92563z"/>
  <path style="color-rendering:auto;color:#000000;isolation:auto;mix-blend-mode:normal;fill-rule:evenodd;shape-rendering:auto;solid-color:#000000;image-rendering:auto;fill:#cec2ba" d="m240.99 97.577a.92563 .92563 0 0 1 -.92563 .92563 .92563 .92563 0 0 1 -.92562 -.92563 .92563 .92563 0 0 1 .92562 -.92563 .92563 .92563 0 0 1 .92563 .92563z"/>
  <path style="fill:#eabaa2;fill-rule:evenodd" d="m255.06 114.22c-2.7127-2.1833-1.415-6.8567 1.5436-11.688 5.0243-4.3383 5.1072 3.2613 4.245 7.3242-1.2063 2.3332-3.8958 5.8869-5.7886 4.3633z"/>
  <path d="m202.48 114.23c1.7974-1.4074 2.3531-4.4624.94834-7.4603-.39308-.83887-1.7088-1.3107-2.2574-2.1821-4.2607-3.5791-4.331 2.6906-3.5998 6.0426 1.023 1.9249 3.3037 4.8567 4.9089 3.5998z" style="fill:#eabaa2;fill-rule:evenodd"/>
  <path style="fill:#6c3e07;fill-rule:evenodd" d="m206.22 112.85-2.7769.30859s2.6226-7.7135-5.0909-9.102c0 0-2.0862-3.3777-2.6316-9.8137-.54544-6.4361.76361-27.926 10.581-36.653 0 0-1.6246 4.1963-.69899 5.8933.92564 1.697 15.372-14.668 27.615-17.587 0 0 0 2.3141-1.5427 6.4794 0 0-.3086 1.4656.84847 1.3884 1.157-.07706 9.7962-3.9339 10.722-3.5482.92564.38569-1.0028 2.7769-.53995 3.394.46281.61708.15413 2.3141 1.3884 1.9284 1.2342-.38569 5.4766-3.4711 7.1736-2.3912 0 0-2.1598 2.9312-1.0028 4.9367s1.9284 4.3196 3.3168 4.1653c1.3884-.15412 7.0965 3.0854 7.405 9.5648 0 0 2.0056 21.289-.46281 30.854 0 0-4.0419 1.7198-5.8964 6.1923 0 0-.87271 3.5998 0 4.1453l-3.4908.43632s3.0544-6.8724 2.8362-11.018c0 0 .54541-14.181.54541-15.163 0-.98179-3.3816-7.7451-9.9268-7.5269 0 0-32.944 3.0544-34.689 1.309 0 0-6.2179-.54544-6.5451 9.5996z"/>
  <path style="color-rendering:auto;color:#000000;shape-rendering:auto;solid-color:#000000;stroke:#cb7f6c;stroke-width:0.2;fill:#333;fill-rule:evenodd;mix-blend-mode:normal;image-rendering:auto;isolation:auto" d="m288.28 57.141h122.83c4.0547 0 7.319 3.2667 7.319 7.3243v38.529c0 4.0577-3.2643 7.3243-7.319 7.3243h-118.02l-31.698 11.761c-3.8017 1.4105 19.568-15.027 19.568-19.085v-38.529c0-4.0577 3.2642-7.3243 7.319-7.3243z"/>
  <path style="stroke:#fff;stroke-width:1px;fill:none" d="m493.59 330.01h95.811"/>
  <path d="m493.59 348.71h95.811" style="stroke:#fff;stroke-width:1px;fill:none"/>
  <ellipse style="color-rendering:auto;color:#000000;isolation:auto;mix-blend-mode:normal;fill-rule:evenodd;shape-rendering:auto;solid-color:#000000;image-rendering:auto;filter:url(#h);fill:#ccc" rx="301.52" ry="3.5473" cy="458.98" cx="405.23"/>
  <text style="letter-spacing:0px;font-size:27.5px;word-spacing:0px;font-family:sans-serif;line-height:125%;fill:#ffffff" xml:space="preserve" y="93.855721" x="305.53531"><tspan x="305.53531" y="93.855721">3 &amp; 2 ?</tspan></text>
  <text style="letter-spacing:0px;font-size:27.5px;word-spacing:0px;font-family:sans-serif;line-height:125%;fill:#ffffff" xml:space="preserve" y="221.49667" x="608.10803"><tspan x="608.10803" y="221.49667">answer is 2</tspan></text>
  <g style="fill:#fff">
   <path style="" d="m479.57 309.32q.21499.1926.35384.48373.13885.29114.13885.75247 0 .45686-.16572.83757-.16573.38072-.46582.6629-.33592.31352-.79278.46581-.45238.14781-.99434.14781-.55539 0-1.0929-.13437-.53748-.12989-.88236-.28666v-.93611h.0672q.38072.25083.8958.41655t.99434.16572q.28217 0 .60018-.0941t.51509-.27769q.20603-.19708.30457-.43447.10301-.23738.10301-.60018 0-.35832-.11645-.59123-.11198-.23739-.31353-.37176-.20155-.13884-.48821-.18811-.28666-.0538-.6181-.0538h-.40311v-.74351h.31353q.68081 0 1.0839-.28218.40758-.28666.40758-.83309 0-.24187-.10301-.42103-.10302-.18364-.28666-.30009-.1926-.11645-.41207-.16124-.21947-.0448-.49716-.0448-.42551 0-.90476.15228-.47925.15229-.90476.42999h-.0448v-.93611q.31801-.15677.84653-.28666.533-.13437 1.0302-.13437.48821 0 .85997.0896.37175.0896.67185.28666.32248.21499.48821.51956.16572.30457.16572.71216 0 .55539-.39415.97194-.38967.41207-.92267.51956v.0627q.21499.0358.49268.15228.2777.11198.4703.28218z"/>
   <path style="" d="m490.39 309.02h-5.3121v-.71664h5.3121v.71664zm0 1.8812h-5.3121v-.71664h5.3121v.71664z"/>
   <path style="" d="m499.94 309.19q0 1.7961-.56435 2.6381-.55987.83757-1.7423.83757-1.2004 0-1.7558-.85101-.55092-.85101-.55092-2.6157 0-1.7782.55988-2.6247.55987-.85101 1.7468-.85101 1.2004 0 1.7513.86445.55539.85996.55539 2.6023zm-1.178 2.0335q.15676-.3628.21051-.85101.0582-.49269.0582-1.1824 0-.68081-.0582-1.1824-.0537-.50165-.21499-.85101-.15676-.34489-.42998-.51957-.26874-.17468-.69425-.17468-.42102 0-.69872.17468-.27322.17468-.43446.52853-.15229.33144-.21051.86444-.0537.533-.0537 1.169 0 .69872.0493 1.169.0493.4703.21051.84205.14781.34937.41655.533.27321.18364.72111.18364.42103 0 .69873-.17468.27769-.17468.42998-.52852z"/>
   <path style="" d="m505.78 309.19q0 1.7961-.56435 2.6381-.55988.83757-1.7423.83757-1.2004 0-1.7558-.85101-.55091-.85101-.55091-2.6157 0-1.7782.55987-2.6247.55988-.85101 1.7468-.85101 1.2004 0 1.7513.86445.5554.85996.5554 2.6023zm-1.178 2.0335q.15677-.3628.21052-.85101.0582-.49269.0582-1.1824 0-.68081-.0582-1.1824-.0537-.50165-.21499-.85101-.15677-.34489-.42999-.51957-.26874-.17468-.69424-.17468-.42103 0-.69872.17468-.27322.17468-.43447.52853-.15228.33144-.21051.86444-.0537.533-.0537 1.169 0 .69872.0493 1.169.0493.4703.21051.84205.14781.34937.41655.533.27322.18364.72112.18364.42102 0 .69872-.17468t.42998-.52852z"/>
   <path style="" d="m511.62 309.19q0 1.7961-.56435 2.6381-.55987.83757-1.7423.83757-1.2004 0-1.7558-.85101-.55092-.85101-.55092-2.6157 0-1.7782.55988-2.6247.55987-.85101 1.7468-.85101 1.2004 0 1.7513.86445.55539.85996.55539 2.6023zm-1.178 2.0335q.15676-.3628.21051-.85101.0582-.49269.0582-1.1824 0-.68081-.0582-1.1824-.0537-.50165-.21499-.85101-.15676-.34489-.42998-.51957-.26874-.17468-.69425-.17468-.42102 0-.69872.17468-.27322.17468-.43446.52853-.15229.33144-.21051.86444-.0537.533-.0537 1.169 0 .69872.0493 1.169.0493.4703.21051.84205.14781.34937.41655.533.27321.18364.72111.18364.42103 0 .69873-.17468.27769-.17468.42998-.52852z"/>
   <path style="" d="m517.47 309.19q0 1.7961-.56435 2.6381-.55988.83757-1.7423.83757-1.2004 0-1.7558-.85101-.55092-.85101-.55092-2.6157 0-1.7782.55987-2.6247.55988-.85101 1.7468-.85101 1.2004 0 1.7513.86445.55539.85996.55539 2.6023zm-1.178 2.0335q.15676-.3628.21051-.85101.0582-.49269.0582-1.1824 0-.68081-.0582-1.1824-.0538-.50165-.21499-.85101-.15677-.34489-.42999-.51957-.26874-.17468-.69424-.17468-.42103 0-.69872.17468-.27322.17468-.43446.52853-.15229.33144-.21052.86444-.0538.533-.0538 1.169 0 .69872.0493 1.169.0493.4703.21052.84205.1478.34937.41654.533.27322.18364.72112.18364.42103 0 .69872-.17468.2777-.17468.42999-.52852z"/>
   <path style="" d="m523.31 309.19q0 1.7961-.56436 2.6381-.55987.83757-1.7423.83757-1.2004 0-1.7558-.85101-.55091-.85101-.55091-2.6157 0-1.7782.55987-2.6247.55987-.85101 1.7468-.85101 1.2004 0 1.7513.86445.5554.85996.5554 2.6023zm-1.178 2.0335q.15677-.3628.21052-.85101.0582-.49269.0582-1.1824 0-.68081-.0582-1.1824-.0538-.50165-.215-.85101-.15676-.34489-.42998-.51957-.26874-.17468-.69424-.17468-.42103 0-.69873.17468-.27321.17468-.43446.52853-.15228.33144-.21051.86444-.0538.533-.0538 1.169 0 .69872.0493 1.169.0493.4703.21051.84205.14781.34937.41655.533.27322.18364.72112.18364.42102 0 .69872-.17468t.42998-.52852z"/>
   <path style="" d="m529.15 309.19q0 1.7961-.56435 2.6381-.55987.83757-1.7423.83757-1.2004 0-1.7558-.85101-.55092-.85101-.55092-2.6157 0-1.7782.55988-2.6247.55987-.85101 1.7468-.85101 1.2004 0 1.7513.86445.55539.85996.55539 2.6023zm-1.178 2.0335q.15676-.3628.21051-.85101.0582-.49269.0582-1.1824 0-.68081-.0582-1.1824-.0538-.50165-.21499-.85101-.15676-.34489-.42998-.51957-.26874-.17468-.69425-.17468-.42102 0-.69872.17468-.27322.17468-.43446.52853-.15229.33144-.21051.86444-.0538.533-.0538 1.169 0 .69872.0493 1.169.0493.4703.21051.84205.14781.34937.41655.533.27321.18364.72111.18364.42103 0 .69873-.17468.27769-.17468.42998-.52852z"/>
   <path style="" d="m534.99 309.19q0 1.7961-.56436 2.6381-.55987.83757-1.7423.83757-1.2004 0-1.7558-.85101-.55091-.85101-.55091-2.6157 0-1.7782.55987-2.6247.55987-.85101 1.7468-.85101 1.2004 0 1.7513.86445.5554.85996.5554 2.6023zm-1.178 2.0335q.15677-.3628.21051-.85101.0582-.49269.0582-1.1824 0-.68081-.0582-1.1824-.0537-.50165-.21499-.85101-.15676-.34489-.42998-.51957-.26874-.17468-.69424-.17468-.42103 0-.69873.17468-.27321.17468-.43446.52853-.15228.33144-.21051.86444-.0538.533-.0538 1.169 0 .69872.0493 1.169.0493.4703.21051.84205.14781.34937.41655.533.27322.18364.72112.18364.42102 0 .69872-.17468t.42998-.52852z"/>
   <path style="" d="m540.83 309.19q0 1.7961-.56435 2.6381-.55987.83757-1.7423.83757-1.2004 0-1.7558-.85101-.55092-.85101-.55092-2.6157 0-1.7782.55988-2.6247.55987-.85101 1.7468-.85101 1.2004 0 1.7513.86445.55539.85996.55539 2.6023zm-1.178 2.0335q.15676-.3628.21051-.85101.0582-.49269.0582-1.1824 0-.68081-.0582-1.1824-.0537-.50165-.21499-.85101-.15676-.34489-.42998-.51957-.26874-.17468-.69425-.17468-.42102 0-.69872.17468-.27322.17468-.43446.52853-.15229.33144-.21051.86444-.0537.533-.0537 1.169 0 .69872.0493 1.169.0493.4703.21051.84205.14781.34937.41655.533.27321.18364.72111.18364.42103 0 .69873-.17468.27769-.17468.42998-.52852z"/>
   <path style="" d="m546.67 309.19q0 1.7961-.56436 2.6381-.55987.83757-1.7423.83757-1.2004 0-1.7558-.85101-.55092-.85101-.55092-2.6157 0-1.7782.55988-2.6247.55987-.85101 1.7468-.85101 1.2004 0 1.7513.86445.5554.85996.5554 2.6023zm-1.178 2.0335q.15677-.3628.21051-.85101.0582-.49269.0582-1.1824 0-.68081-.0582-1.1824-.0537-.50165-.21499-.85101-.15676-.34489-.42998-.51957-.26874-.17468-.69424-.17468-.42103 0-.69873.17468-.27322.17468-.43446.52853-.15228.33144-.21051.86444-.0537.533-.0537 1.169 0 .69872.0493 1.169.0493.4703.21051.84205.14781.34937.41655.533.27322.18364.72112.18364.42102 0 .69872-.17468t.42998-.52852z"/>
   <path style="" d="m552.51 309.19q0 1.7961-.56435 2.6381-.55987.83757-1.7423.83757-1.2004 0-1.7558-.85101-.55092-.85101-.55092-2.6157 0-1.7782.55988-2.6247.55987-.85101 1.7468-.85101 1.2004 0 1.7513.86445.55539.85996.55539 2.6023zm-1.178 2.0335q.15676-.3628.21051-.85101.0582-.49269.0582-1.1824 0-.68081-.0582-1.1824-.0538-.50165-.21499-.85101-.15677-.34489-.42998-.51957-.26874-.17468-.69425-.17468-.42102 0-.69872.17468-.27322.17468-.43446.52853-.15229.33144-.21052.86444-.0537.533-.0537 1.169 0 .69872.0493 1.169.0493.4703.21051.84205.14781.34937.41654.533.27322.18364.72112.18364.42103 0 .69873-.17468.27769-.17468.42998-.52852z"/>
   <path style="" d="m558.35 309.19q0 1.7961-.56435 2.6381-.55988.83757-1.7423.83757-1.2004 0-1.7558-.85101-.55091-.85101-.55091-2.6157 0-1.7782.55987-2.6247.55988-.85101 1.7468-.85101 1.2004 0 1.7513.86445.55539.85996.55539 2.6023zm-1.178 2.0335q.15676-.3628.21051-.85101.0582-.49269.0582-1.1824 0-.68081-.0582-1.1824-.0538-.50165-.21499-.85101-.15677-.34489-.42999-.51957-.26874-.17468-.69424-.17468-.42103 0-.69872.17468-.27322.17468-.43447.52853-.15228.33144-.21051.86444-.0538.533-.0538 1.169 0 .69872.0493 1.169.0493.4703.21052.84205.1478.34937.41654.533.27322.18364.72112.18364.42102 0 .69872-.17468t.42999-.52852z"/>
   <path style="" d="m564.19 309.19q0 1.7961-.56436 2.6381-.55987.83757-1.7423.83757-1.2004 0-1.7558-.85101-.55091-.85101-.55091-2.6157 0-1.7782.55987-2.6247.55987-.85101 1.7468-.85101 1.2004 0 1.7513.86445.5554.85996.5554 2.6023zm-1.178 2.0335q.15677-.3628.21051-.85101.0582-.49269.0582-1.1824 0-.68081-.0582-1.1824-.0537-.50165-.21499-.85101-.15676-.34489-.42998-.51957-.26874-.17468-.69424-.17468-.42103 0-.69873.17468-.27322.17468-.43446.52853-.15228.33144-.21051.86444-.0538.533-.0538 1.169 0 .69872.0493 1.169.0493.4703.21051.84205.14781.34937.41655.533.27322.18364.72112.18364.42102 0 .69872-.17468t.42998-.52852z"/>
   <path style="" d="m570.03 309.19q0 1.7961-.56435 2.6381-.55987.83757-1.7423.83757-1.2004 0-1.7558-.85101-.55092-.85101-.55092-2.6157 0-1.7782.55988-2.6247.55987-.85101 1.7468-.85101 1.2004 0 1.7513.86445.55539.85996.55539 2.6023zm-1.178 2.0335q.15676-.3628.21051-.85101.0582-.49269.0582-1.1824 0-.68081-.0582-1.1824-.0537-.50165-.21499-.85101-.15677-.34489-.42998-.51957-.26874-.17468-.69425-.17468-.42102 0-.69872.17468-.27322.17468-.43446.52853-.15229.33144-.21052.86444-.0537.533-.0537 1.169 0 .69872.0493 1.169.0493.4703.21051.84205.14781.34937.41654.533.27322.18364.72112.18364.42103 0 .69873-.17468.27769-.17468.42998-.52852z"/>
   <path style="" d="m575.87 309.19q0 1.7961-.56435 2.6381-.55988.83757-1.7423.83757-1.2004 0-1.7558-.85101-.55091-.85101-.55091-2.6157 0-1.7782.55987-2.6247.55988-.85101 1.7468-.85101 1.2004 0 1.7513.86445.55539.85996.55539 2.6023zm-1.178 2.0335q.15676-.3628.21051-.85101.0582-.49269.0582-1.1824 0-.68081-.0582-1.1824-.0538-.50165-.21499-.85101-.15677-.34489-.42999-.51957-.26874-.17468-.69424-.17468-.42103 0-.69872.17468-.27322.17468-.43447.52853-.15228.33144-.21051.86444-.0537.533-.0537 1.169 0 .69872.0493 1.169.0493.4703.21052.84205.1478.34937.41654.533.27322.18364.72112.18364.42102 0 .69872-.17468t.42999-.52852z"/>
   <path style="" d="m581.34 312.53h-3.6101v-.68081h1.3885v-4.47h-1.3885v-.60915q.28218 0 .60467-.0448.32248-.0493.48821-.13884.20603-.11198.32248-.28218.12094-.17468.13885-.46582h.69425v6.0108h1.3616v.68081z"/>
   <path style="" d="m587.18 312.53h-3.6101v-.68081h1.3885v-4.47h-1.3885v-.60915q.28218 0 .60466-.0448.32249-.0493.48821-.13884.20604-.11198.32249-.28218.12093-.17468.13885-.46582h.69424v6.0108h1.3616v.68081z"/>
   <path style="" d="m480.16 323.99h-4.5148v-.93611q.4703-.40311.94059-.80622.47477-.40311.88236-.80174.85997-.83309 1.178-1.3213.31801-.49269.31801-1.0615 0-.51957-.34489-.8107-.3404-.29561-.95402-.29561-.40759 0-.88236.14332-.47478.14333-.92715.43894h-.0448v-.94058q.318-.15677.84653-.28666.533-.12989 1.0302-.12989 1.0257 0 1.608.49717.58227.49269.58227 1.3392 0 .38071-.0985.71216-.0941.32696-.28217.62258-.17468.27769-.41207.54643-.23291.26874-.56883.59571-.47926.47029-.98986.91371-.51061.43895-.95403.81518h3.5877v.76591z"/>
   <path style="" d="m490.39 320.49h-5.3121v-.71664h5.3121v.71664zm0 1.8812h-5.3121v-.71664h5.3121v.71664z"/>
   <path style="" d="m499.94 320.66q0 1.7961-.56435 2.6381-.55987.83757-1.7423.83757-1.2004 0-1.7558-.85101-.55092-.85101-.55092-2.6157 0-1.7782.55988-2.6247.55987-.85101 1.7468-.85101 1.2004 0 1.7513.86444.55539.85997.55539 2.6023zm-1.178 2.0335q.15676-.3628.21051-.85101.0582-.49269.0582-1.1824 0-.68081-.0582-1.1824-.0537-.50165-.21499-.85101-.15676-.34489-.42998-.51957-.26874-.17468-.69425-.17468-.42102 0-.69872.17468-.27322.17468-.43446.52852-.15229.33145-.21051.86445-.0537.533-.0537 1.169 0 .69872.0493 1.169.0493.4703.21051.84205.14781.34937.41655.533.27321.18364.72111.18364.42103 0 .69873-.17468.27769-.17468.42998-.52852z"/>
   <path style="" d="m505.78 320.66q0 1.7961-.56435 2.6381-.55988.83757-1.7423.83757-1.2004 0-1.7558-.85101-.55091-.85101-.55091-2.6157 0-1.7782.55987-2.6247.55988-.85101 1.7468-.85101 1.2004 0 1.7513.86444.5554.85997.5554 2.6023zm-1.178 2.0335q.15677-.3628.21052-.85101.0582-.49269.0582-1.1824 0-.68081-.0582-1.1824-.0537-.50165-.21499-.85101-.15677-.34489-.42999-.51957-.26874-.17468-.69424-.17468-.42103 0-.69872.17468-.27322.17468-.43447.52852-.15228.33145-.21051.86445-.0537.533-.0537 1.169 0 .69872.0493 1.169.0493.4703.21051.84205.14781.34937.41655.533.27322.18364.72112.18364.42102 0 .69872-.17468t.42998-.52852z"/>
   <path style="" d="m511.62 320.66q0 1.7961-.56435 2.6381-.55987.83757-1.7423.83757-1.2004 0-1.7558-.85101-.55092-.85101-.55092-2.6157 0-1.7782.55988-2.6247.55987-.85101 1.7468-.85101 1.2004 0 1.7513.86444.55539.85997.55539 2.6023zm-1.178 2.0335q.15676-.3628.21051-.85101.0582-.49269.0582-1.1824 0-.68081-.0582-1.1824-.0537-.50165-.21499-.85101-.15676-.34489-.42998-.51957-.26874-.17468-.69425-.17468-.42102 0-.69872.17468-.27322.17468-.43446.52852-.15229.33145-.21051.86445-.0537.533-.0537 1.169 0 .69872.0493 1.169.0493.4703.21051.84205.14781.34937.41655.533.27321.18364.72111.18364.42103 0 .69873-.17468.27769-.17468.42998-.52852z"/>
   <path style="" d="m517.47 320.66q0 1.7961-.56435 2.6381-.55988.83757-1.7423.83757-1.2004 0-1.7558-.85101-.55092-.85101-.55092-2.6157 0-1.7782.55987-2.6247.55988-.85101 1.7468-.85101 1.2004 0 1.7513.86444.55539.85997.55539 2.6023zm-1.178 2.0335q.15676-.3628.21051-.85101.0582-.49269.0582-1.1824 0-.68081-.0582-1.1824-.0538-.50165-.21499-.85101-.15677-.34489-.42999-.51957-.26874-.17468-.69424-.17468-.42103 0-.69872.17468-.27322.17468-.43446.52852-.15229.33145-.21052.86445-.0538.533-.0538 1.169 0 .69872.0493 1.169.0493.4703.21052.84205.1478.34937.41654.533.27322.18364.72112.18364.42103 0 .69872-.17468.2777-.17468.42999-.52852z"/>
   <path style="" d="m523.31 320.66q0 1.7961-.56436 2.6381-.55987.83757-1.7423.83757-1.2004 0-1.7558-.85101-.55091-.85101-.55091-2.6157 0-1.7782.55987-2.6247.55987-.85101 1.7468-.85101 1.2004 0 1.7513.86444.5554.85997.5554 2.6023zm-1.178 2.0335q.15677-.3628.21052-.85101.0582-.49269.0582-1.1824 0-.68081-.0582-1.1824-.0538-.50165-.215-.85101-.15676-.34489-.42998-.51957-.26874-.17468-.69424-.17468-.42103 0-.69873.17468-.27321.17468-.43446.52852-.15228.33145-.21051.86445-.0538.533-.0538 1.169 0 .69872.0493 1.169.0493.4703.21051.84205.14781.34937.41655.533.27322.18364.72112.18364.42102 0 .69872-.17468t.42998-.52852z"/>
   <path style="" d="m529.15 320.66q0 1.7961-.56435 2.6381-.55987.83757-1.7423.83757-1.2004 0-1.7558-.85101-.55092-.85101-.55092-2.6157 0-1.7782.55988-2.6247.55987-.85101 1.7468-.85101 1.2004 0 1.7513.86444.55539.85997.55539 2.6023zm-1.178 2.0335q.15676-.3628.21051-.85101.0582-.49269.0582-1.1824 0-.68081-.0582-1.1824-.0538-.50165-.21499-.85101-.15676-.34489-.42998-.51957-.26874-.17468-.69425-.17468-.42102 0-.69872.17468-.27322.17468-.43446.52852-.15229.33145-.21051.86445-.0538.533-.0538 1.169 0 .69872.0493 1.169.0493.4703.21051.84205.14781.34937.41655.533.27321.18364.72111.18364.42103 0 .69873-.17468.27769-.17468.42998-.52852z"/>
   <path style="" d="m534.99 320.66q0 1.7961-.56436 2.6381-.55987.83757-1.7423.83757-1.2004 0-1.7558-.85101-.55091-.85101-.55091-2.6157 0-1.7782.55987-2.6247.55987-.85101 1.7468-.85101 1.2004 0 1.7513.86444.5554.85997.5554 2.6023zm-1.178 2.0335q.15677-.3628.21051-.85101.0582-.49269.0582-1.1824 0-.68081-.0582-1.1824-.0537-.50165-.21499-.85101-.15676-.34489-.42998-.51957-.26874-.17468-.69424-.17468-.42103 0-.69873.17468-.27321.17468-.43446.52852-.15228.33145-.21051.86445-.0538.533-.0538 1.169 0 .69872.0493 1.169.0493.4703.21051.84205.14781.34937.41655.533.27322.18364.72112.18364.42102 0 .69872-.17468t.42998-.52852z"/>
   <path style="" d="m540.83 320.66q0 1.7961-.56435 2.6381-.55987.83757-1.7423.83757-1.2004 0-1.7558-.85101-.55092-.85101-.55092-2.6157 0-1.7782.55988-2.6247.55987-.85101 1.7468-.85101 1.2004 0 1.7513.86444.55539.85997.55539 2.6023zm-1.178 2.0335q.15676-.3628.21051-.85101.0582-.49269.0582-1.1824 0-.68081-.0582-1.1824-.0537-.50165-.21499-.85101-.15676-.34489-.42998-.51957-.26874-.17468-.69425-.17468-.42102 0-.69872.17468-.27322.17468-.43446.52852-.15229.33145-.21051.86445-.0537.533-.0537 1.169 0 .69872.0493 1.169.0493.4703.21051.84205.14781.34937.41655.533.27321.18364.72111.18364.42103 0 .69873-.17468.27769-.17468.42998-.52852z"/>
   <path style="" d="m546.67 320.66q0 1.7961-.56436 2.6381-.55987.83757-1.7423.83757-1.2004 0-1.7558-.85101-.55092-.85101-.55092-2.6157 0-1.7782.55988-2.6247.55987-.85101 1.7468-.85101 1.2004 0 1.7513.86444.5554.85997.5554 2.6023zm-1.178 2.0335q.15677-.3628.21051-.85101.0582-.49269.0582-1.1824 0-.68081-.0582-1.1824-.0537-.50165-.21499-.85101-.15676-.34489-.42998-.51957-.26874-.17468-.69424-.17468-.42103 0-.69873.17468-.27322.17468-.43446.52852-.15228.33145-.21051.86445-.0537.533-.0537 1.169 0 .69872.0493 1.169.0493.4703.21051.84205.14781.34937.41655.533.27322.18364.72112.18364.42102 0 .69872-.17468t.42998-.52852z"/>
   <path style="" d="m552.51 320.66q0 1.7961-.56435 2.6381-.55987.83757-1.7423.83757-1.2004 0-1.7558-.85101-.55092-.85101-.55092-2.6157 0-1.7782.55988-2.6247.55987-.85101 1.7468-.85101 1.2004 0 1.7513.86444.55539.85997.55539 2.6023zm-1.178 2.0335q.15676-.3628.21051-.85101.0582-.49269.0582-1.1824 0-.68081-.0582-1.1824-.0538-.50165-.21499-.85101-.15677-.34489-.42998-.51957-.26874-.17468-.69425-.17468-.42102 0-.69872.17468-.27322.17468-.43446.52852-.15229.33145-.21052.86445-.0537.533-.0537 1.169 0 .69872.0493 1.169.0493.4703.21051.84205.14781.34937.41654.533.27322.18364.72112.18364.42103 0 .69873-.17468.27769-.17468.42998-.52852z"/>
   <path style="" d="m558.35 320.66q0 1.7961-.56435 2.6381-.55988.83757-1.7423.83757-1.2004 0-1.7558-.85101-.55091-.85101-.55091-2.6157 0-1.7782.55987-2.6247.55988-.85101 1.7468-.85101 1.2004 0 1.7513.86444.55539.85997.55539 2.6023zm-1.178 2.0335q.15676-.3628.21051-.85101.0582-.49269.0582-1.1824 0-.68081-.0582-1.1824-.0538-.50165-.21499-.85101-.15677-.34489-.42999-.51957-.26874-.17468-.69424-.17468-.42103 0-.69872.17468-.27322.17468-.43447.52852-.15228.33145-.21051.86445-.0538.533-.0538 1.169 0 .69872.0493 1.169.0493.4703.21052.84205.1478.34937.41654.533.27322.18364.72112.18364.42102 0 .69872-.17468t.42999-.52852z"/>
   <path style="" d="m564.19 320.66q0 1.7961-.56436 2.6381-.55987.83757-1.7423.83757-1.2004 0-1.7558-.85101-.55091-.85101-.55091-2.6157 0-1.7782.55987-2.6247.55987-.85101 1.7468-.85101 1.2004 0 1.7513.86444.5554.85997.5554 2.6023zm-1.178 2.0335q.15677-.3628.21051-.85101.0582-.49269.0582-1.1824 0-.68081-.0582-1.1824-.0537-.50165-.21499-.85101-.15676-.34489-.42998-.51957-.26874-.17468-.69424-.17468-.42103 0-.69873.17468-.27322.17468-.43446.52852-.15228.33145-.21051.86445-.0538.533-.0538 1.169 0 .69872.0493 1.169.0493.4703.21051.84205.14781.34937.41655.533.27322.18364.72112.18364.42102 0 .69872-.17468t.42998-.52852z"/>
   <path style="" d="m570.03 320.66q0 1.7961-.56435 2.6381-.55987.83757-1.7423.83757-1.2004 0-1.7558-.85101-.55092-.85101-.55092-2.6157 0-1.7782.55988-2.6247.55987-.85101 1.7468-.85101 1.2004 0 1.7513.86444.55539.85997.55539 2.6023zm-1.178 2.0335q.15676-.3628.21051-.85101.0582-.49269.0582-1.1824 0-.68081-.0582-1.1824-.0537-.50165-.21499-.85101-.15677-.34489-.42998-.51957-.26874-.17468-.69425-.17468-.42102 0-.69872.17468-.27322.17468-.43446.52852-.15229.33145-.21052.86445-.0537.533-.0537 1.169 0 .69872.0493 1.169.0493.4703.21051.84205.14781.34937.41654.533.27322.18364.72112.18364.42103 0 .69873-.17468.27769-.17468.42998-.52852z"/>
   <path style="" d="m575.87 320.66q0 1.7961-.56435 2.6381-.55988.83757-1.7423.83757-1.2004 0-1.7558-.85101-.55091-.85101-.55091-2.6157 0-1.7782.55987-2.6247.55988-.85101 1.7468-.85101 1.2004 0 1.7513.86444.55539.85997.55539 2.6023zm-1.178 2.0335q.15676-.3628.21051-.85101.0582-.49269.0582-1.1824 0-.68081-.0582-1.1824-.0538-.50165-.21499-.85101-.15677-.34489-.42999-.51957-.26874-.17468-.69424-.17468-.42103 0-.69872.17468-.27322.17468-.43447.52852-.15228.33145-.21051.86445-.0537.533-.0537 1.169 0 .69872.0493 1.169.0493.4703.21052.84205.1478.34937.41654.533.27322.18364.72112.18364.42102 0 .69872-.17468t.42999-.52852z"/>
   <path style="" d="m581.34 323.99h-3.6101v-.68081h1.3885v-4.47h-1.3885v-.60915q.28218 0 .60467-.0448.32248-.0493.48821-.13884.20603-.11198.32248-.28218.12094-.17468.13885-.46582h.69425v6.0108h1.3616v.68081z"/>
   <path style="" d="m587.55 320.66q0 1.7961-.56435 2.6381-.55987.83757-1.7423.83757-1.2004 0-1.7558-.85101-.55092-.85101-.55092-2.6157 0-1.7782.55988-2.6247.55987-.85101 1.7468-.85101 1.2004 0 1.7513.86444.55539.85997.55539 2.6023zm-1.178 2.0335q.15676-.3628.21051-.85101.0582-.49269.0582-1.1824 0-.68081-.0582-1.1824-.0538-.50165-.21499-.85101-.15677-.34489-.42998-.51957-.26874-.17468-.69425-.17468-.42102 0-.69872.17468-.27322.17468-.43446.52852-.15229.33145-.21051.86445-.0538.533-.0538 1.169 0 .69872.0493 1.169.0493.4703.21051.84205.14781.34937.41654.533.27322.18364.72112.18364.42103 0 .69873-.17468.27769-.17468.42998-.52852z"/>
  </g>
  <g style="fill:#fff">
   <path style="fill:#fff" d="m499.94 339.36q0 1.7961-.56435 2.6381-.55988.83757-1.7423.83757-1.2004 0-1.7558-.85101-.55091-.85101-.55091-2.6157 0-1.7782.55987-2.6247.55987-.85101 1.7468-.85101 1.2004 0 1.7513.86445.5554.85996.5554 2.6023zm-1.178 2.0335q.15677-.3628.21052-.85101.0582-.49269.0582-1.1825 0-.6808-.0582-1.1824-.0537-.50165-.215-.85101-.15676-.34488-.42998-.51956-.26874-.17468-.69424-.17468-.42103 0-.69873.17468-.27321.17468-.43446.52852-.15228.33144-.21051.86444-.0537.533-.0537 1.169 0 .69872.0493 1.169.0493.47029.21051.84205.14781.34936.41655.533.27322.18364.72112.18364.42102 0 .69872-.17468t.42998-.52852z"/>
   <path style="fill:#fff" d="m505.78 339.36q0 1.7961-.56435 2.6381-.55987.83757-1.7423.83757-1.2004 0-1.7558-.85101-.55092-.85101-.55092-2.6157 0-1.7782.55988-2.6247.55987-.85101 1.7468-.85101 1.2004 0 1.7513.86445.55539.85996.55539 2.6023zm-1.178 2.0335q.15676-.3628.21051-.85101.0582-.49269.0582-1.1825 0-.6808-.0582-1.1824-.0537-.50165-.21499-.85101-.15676-.34488-.42998-.51956-.26874-.17468-.69425-.17468-.42102 0-.69872.17468-.27322.17468-.43446.52852-.15229.33144-.21051.86444-.0538.533-.0538 1.169 0 .69872.0493 1.169.0493.47029.21051.84205.14781.34936.41655.533.27321.18364.72111.18364.42103 0 .69873-.17468.27769-.17468.42998-.52852z"/>
   <path style="fill:#fff" d="m511.62 339.36q0 1.7961-.56435 2.6381-.55988.83757-1.7423.83757-1.2004 0-1.7558-.85101-.55091-.85101-.55091-2.6157 0-1.7782.55987-2.6247.55988-.85101 1.7468-.85101 1.2004 0 1.7513.86445.5554.85996.5554 2.6023zm-1.178 2.0335q.15676-.3628.21051-.85101.0582-.49269.0582-1.1825 0-.6808-.0582-1.1824-.0538-.50165-.21499-.85101-.15677-.34488-.42999-.51956-.26874-.17468-.69424-.17468-.42103 0-.69872.17468-.27322.17468-.43447.52852-.15228.33144-.21051.86444-.0537.533-.0537 1.169 0 .69872.0493 1.169.0493.47029.21052.84205.1478.34936.41654.533.27322.18364.72112.18364.42102 0 .69872-.17468t.42999-.52852z"/>
   <path style="fill:#fff" d="m517.47 339.36q0 1.7961-.56435 2.6381-.55987.83757-1.7423.83757-1.2004 0-1.7558-.85101-.55092-.85101-.55092-2.6157 0-1.7782.55988-2.6247.55987-.85101 1.7468-.85101 1.2004 0 1.7513.86445.55539.85996.55539 2.6023zm-1.178 2.0335q.15676-.3628.21051-.85101.0582-.49269.0582-1.1825 0-.6808-.0582-1.1824-.0538-.50165-.21499-.85101-.15676-.34488-.42998-.51956-.26874-.17468-.69425-.17468-.42102 0-.69872.17468-.27322.17468-.43446.52852-.15229.33144-.21051.86444-.0538.533-.0538 1.169 0 .69872.0493 1.169.0493.47029.21051.84205.14781.34936.41655.533.27321.18364.72111.18364.42103 0 .69873-.17468.27769-.17468.42998-.52852z"/>
   <path style="fill:#fff" d="m523.31 339.36q0 1.7961-.56435 2.6381-.55988.83757-1.7423.83757-1.2004 0-1.7558-.85101-.55092-.85101-.55092-2.6157 0-1.7782.55987-2.6247.55988-.85101 1.7468-.85101 1.2004 0 1.7513.86445.55539.85996.55539 2.6023zm-1.178 2.0335q.15676-.3628.21051-.85101.0582-.49269.0582-1.1825 0-.6808-.0582-1.1824-.0538-.50165-.21499-.85101-.15677-.34488-.42999-.51956-.26874-.17468-.69424-.17468-.42102 0-.69872.17468-.27322.17468-.43446.52852-.15229.33144-.21052.86444-.0537.533-.0537 1.169 0 .69872.0493 1.169.0493.47029.21052.84205.1478.34936.41654.533.27322.18364.72112.18364.42103 0 .69872-.17468.2777-.17468.42999-.52852z"/>
   <path style="fill:#fff" d="m529.15 339.36q0 1.7961-.56435 2.6381-.55988.83757-1.7423.83757-1.2004 0-1.7558-.85101-.55091-.85101-.55091-2.6157 0-1.7782.55987-2.6247.55987-.85101 1.7468-.85101 1.2004 0 1.7513.86445.5554.85996.5554 2.6023zm-1.178 2.0335q.15677-.3628.21052-.85101.0582-.49269.0582-1.1825 0-.6808-.0582-1.1824-.0537-.50165-.215-.85101-.15676-.34488-.42998-.51956-.26874-.17468-.69424-.17468-.42103 0-.69873.17468-.27321.17468-.43446.52852-.15228.33144-.21051.86444-.0538.533-.0538 1.169 0 .69872.0493 1.169.0493.47029.21051.84205.14781.34936.41655.533.27322.18364.72112.18364.42102 0 .69872-.17468t.42998-.52852z"/>
   <path style="fill:#fff" d="m534.99 339.36q0 1.7961-.56435 2.6381-.55988.83757-1.7423.83757-1.2004 0-1.7558-.85101-.55092-.85101-.55092-2.6157 0-1.7782.55987-2.6247.55988-.85101 1.7468-.85101 1.2004 0 1.7513.86445.55539.85996.55539 2.6023zm-1.178 2.0335q.15676-.3628.21051-.85101.0582-.49269.0582-1.1825 0-.6808-.0582-1.1824-.0537-.50165-.21499-.85101-.15677-.34488-.42999-.51956-.26874-.17468-.69424-.17468-.42103 0-.69872.17468-.27322.17468-.43446.52852-.15229.33144-.21052.86444-.0538.533-.0538 1.169 0 .69872.0493 1.169.0493.47029.21052.84205.1478.34936.41654.533.27322.18364.72112.18364.42103 0 .69872-.17468.2777-.17468.42999-.52852z"/>
   <path style="fill:#fff" d="m540.83 339.36q0 1.7961-.56436 2.6381-.55987.83757-1.7423.83757-1.2004 0-1.7558-.85101-.55091-.85101-.55091-2.6157 0-1.7782.55987-2.6247.55987-.85101 1.7468-.85101 1.2004 0 1.7513.86445.5554.85996.5554 2.6023zm-1.178 2.0335q.15677-.3628.21052-.85101.0582-.49269.0582-1.1825 0-.6808-.0582-1.1824-.0538-.50165-.215-.85101-.15676-.34488-.42998-.51956-.26874-.17468-.69424-.17468-.42103 0-.69873.17468-.27321.17468-.43446.52852-.15228.33144-.21051.86444-.0537.533-.0537 1.169 0 .69872.0493 1.169.0493.47029.21051.84205.14781.34936.41655.533.27322.18364.72112.18364.42102 0 .69872-.17468t.42998-.52852z"/>
   <path style="fill:#fff" d="m546.67 339.36q0 1.7961-.56435 2.6381-.55987.83757-1.7423.83757-1.2004 0-1.7558-.85101-.55092-.85101-.55092-2.6157 0-1.7782.55988-2.6247.55987-.85101 1.7468-.85101 1.2004 0 1.7513.86445.55539.85996.55539 2.6023zm-1.178 2.0335q.15676-.3628.21051-.85101.0582-.49269.0582-1.1825 0-.6808-.0582-1.1824-.0538-.50165-.21499-.85101-.15676-.34488-.42998-.51956-.26874-.17468-.69425-.17468-.42102 0-.69872.17468-.27322.17468-.43446.52852-.15229.33144-.21051.86444-.0538.533-.0538 1.169 0 .69872.0493 1.169.0493.47029.21051.84205.14781.34936.41655.533.27321.18364.72111.18364.42103 0 .69873-.17468.27769-.17468.42998-.52852z"/>
   <path style="fill:#fff" d="m552.51 339.36q0 1.7961-.56435 2.6381-.55988.83757-1.7423.83757-1.2004 0-1.7558-.85101-.55092-.85101-.55092-2.6157 0-1.7782.55987-2.6247.55988-.85101 1.7468-.85101 1.2004 0 1.7513.86445.55539.85996.55539 2.6023zm-1.178 2.0335q.15676-.3628.21051-.85101.0582-.49269.0582-1.1825 0-.6808-.0582-1.1824-.0538-.50165-.21499-.85101-.15677-.34488-.42999-.51956-.26874-.17468-.69424-.17468-.42103 0-.69872.17468-.27322.17468-.43446.52852-.15229.33144-.21052.86444-.0538.533-.0538 1.169 0 .69872.0493 1.169.0493.47029.21052.84205.1478.34936.41654.533.27322.18364.72112.18364.42103 0 .69872-.17468.2777-.17468.42999-.52852z"/>
   <path style="fill:#fff" d="m558.35 339.36q0 1.7961-.56436 2.6381-.55987.83757-1.7423.83757-1.2004 0-1.7558-.85101-.55091-.85101-.55091-2.6157 0-1.7782.55987-2.6247.55987-.85101 1.7468-.85101 1.2004 0 1.7513.86445.5554.85996.5554 2.6023zm-1.178 2.0335q.15677-.3628.21052-.85101.0582-.49269.0582-1.1825 0-.6808-.0582-1.1824-.0537-.50165-.215-.85101-.15676-.34488-.42998-.51956-.26874-.17468-.69424-.17468-.42103 0-.69873.17468-.27321.17468-.43446.52852-.15228.33144-.21051.86444-.0538.533-.0538 1.169 0 .69872.0493 1.169.0493.47029.21051.84205.14781.34936.41655.533.27322.18364.72112.18364.42102 0 .69872-.17468t.42998-.52852z"/>
   <path style="fill:#fff" d="m564.19 339.36q0 1.7961-.56435 2.6381-.55987.83757-1.7423.83757-1.2004 0-1.7558-.85101-.55092-.85101-.55092-2.6157 0-1.7782.55988-2.6247.55987-.85101 1.7468-.85101 1.2004 0 1.7513.86445.55539.85996.55539 2.6023zm-1.178 2.0335q.15676-.3628.21051-.85101.0582-.49269.0582-1.1825 0-.6808-.0582-1.1824-.0537-.50165-.21499-.85101-.15676-.34488-.42998-.51956-.26874-.17468-.69425-.17468-.42102 0-.69872.17468-.27322.17468-.43446.52852-.15229.33144-.21051.86444-.0537.533-.0537 1.169 0 .69872.0493 1.169.0493.47029.21051.84205.14781.34936.41655.533.27321.18364.72111.18364.42103 0 .69873-.17468.27769-.17468.42998-.52852z"/>
   <path style="fill:#fff" d="m570.03 339.36q0 1.7961-.56435 2.6381-.55987.83757-1.7423.83757-1.2004 0-1.7558-.85101-.55092-.85101-.55092-2.6157 0-1.7782.55988-2.6247.55987-.85101 1.7468-.85101 1.2004 0 1.7513.86445.55539.85996.55539 2.6023zm-1.178 2.0335q.15676-.3628.21051-.85101.0582-.49269.0582-1.1825 0-.6808-.0582-1.1824-.0537-.50165-.21499-.85101-.15677-.34488-.42998-.51956-.26874-.17468-.69425-.17468-.42102 0-.69872.17468-.27322.17468-.43446.52852-.15229.33144-.21052.86444-.0537.533-.0537 1.169 0 .69872.0493 1.169.0493.47029.21051.84205.14781.34936.41654.533.27322.18364.72112.18364.42103 0 .69873-.17468.27769-.17468.42998-.52852z"/>
   <path style="fill:#fff" d="m575.87 339.36q0 1.7961-.56435 2.6381-.55988.83757-1.7423.83757-1.2004 0-1.7558-.85101-.55091-.85101-.55091-2.6157 0-1.7782.55987-2.6247.55988-.85101 1.7468-.85101 1.2004 0 1.7513.86445.55539.85996.55539 2.6023zm-1.178 2.0335q.15676-.3628.21051-.85101.0582-.49269.0582-1.1825 0-.6808-.0582-1.1824-.0538-.50165-.21499-.85101-.15677-.34488-.42999-.51956-.26874-.17468-.69424-.17468-.42103 0-.69872.17468-.27322.17468-.43447.52852-.15228.33144-.21051.86444-.0537.533-.0537 1.169 0 .69872.0493 1.169.0493.47029.21052.84205.1478.34936.41654.533.27322.18364.72112.18364.42102 0 .69872-.17468t.42999-.52852z"/>
   <path style="fill:#fff" d="m581.34 342.7h-3.6101v-.6808h1.3885v-4.47h-1.3885v-.60914q.28218 0 .60467-.0448.32248-.0493.48821-.13885.20603-.11198.32248-.28218.12094-.17468.13885-.46581h.69425v6.0108h1.3616v.6808z"/>
   <path style="fill:#fff" d="m587.55 339.36q0 1.7961-.56435 2.6381-.55987.83757-1.7423.83757-1.2004 0-1.7558-.85101-.55092-.85101-.55092-2.6157 0-1.7782.55988-2.6247.55987-.85101 1.7468-.85101 1.2004 0 1.7513.86445.55539.85996.55539 2.6023zm-1.178 2.0335q.15676-.3628.21051-.85101.0582-.49269.0582-1.1825 0-.6808-.0582-1.1824-.0538-.50165-.21499-.85101-.15677-.34488-.42998-.51956-.26874-.17468-.69425-.17468-.42102 0-.69872.17468-.27322.17468-.43446.52852-.15229.33144-.21051.86444-.0538.533-.0538 1.169 0 .69872.0493 1.169.0493.47029.21051.84205.14781.34936.41654.533.27322.18364.72112.18364.42103 0 .69873-.17468.27769-.17468.42998-.52852z"/>
  </g>
 </g>
</svg>
